<?xml version="1.0" encoding="utf-8"?>
<!-- Generator: Adobe Illustrator 21.0.0, SVG Export Plug-In . SVG Version: 6.00 Build 0)  -->
<svg version="1.1" id="Layer_1" xmlns="http://www.w3.org/2000/svg" xmlns:xlink="http://www.w3.org/1999/xlink" x="0px" y="0px"
	 viewBox="0 0 186.4 220" style="enable-background:new 0 0 186.4 220;" xml:space="preserve">
<style type="text/css">
	.st0{fill:#FFFFFF;}
	.st1{opacity:0.4;fill:#7CB4D0;enable-background:new    ;}
	.st2{opacity:0.1;fill:#BCDEEA;enable-background:new    ;}
	.st3{opacity:0.5;fill:#7CB4D0;enable-background:new    ;}
	.st4{opacity:0.8;fill:#7CB4D0;enable-background:new    ;}
	.st5{opacity:0.2;fill:#3E6E7A;enable-background:new    ;}
	.st6{opacity:0.5;fill:#FFFFFF;enable-background:new    ;}
</style>
<path className="st0" d="M186.4,0H0v220h186.4V0z"/>
<path className="st1" d="M179.2,7.1H7.9V211h171.3V7.1z"/>
<path className="st2" d="M179.2,7.1H7.9V211h171.3V7.1z"/>
<path className="st3" d="M7.9,7.1L0,0v220l7.9-9V7.1z"/>
<path className="st3" d="M179.2,211l7.2,9V0l-7.2,7.1V211z"/>
<path className="st1" d="M186.4,0H0v220h186.4V0z"/>
<path className="st4" d="M179.2,210.9H7.9L0,220h186.4L179.2,210.9z"/>
<path className="st5" d="M18.3,27.9h17.9V17.3H18.3V27.9z"/>
<path className="st5" d="M18.3,27.9h17.9V17.3H18.3V27.9z"/>
<path className="st5" d="M15.4,26.8h22.3V16.1H15.4V26.8z"/>
<path className="st5" d="M36.3,27.9l1.4-1.2V16.1l-1.4,1.2V27.9z"/>
<path className="st5" d="M18.4,17.2l-3.1-1.2v10.7l3.1,1.2V17.2z"/>
<path className="st6" d="M15.4,26.7l3.1,1.2h17.8l1.4-1.2L15.4,26.7z"/>
<path className="st5" d="M45.9,27.9h17.9V17.3H45.9V27.9z"/>
<path className="st5" d="M45.9,27.9h17.9V17.3H45.9V27.9z"/>
<path className="st5" d="M42.8,26.8h22.3V16.1H42.8V26.8z"/>
<path className="st5" d="M63.8,27.9l1.4-1.2V16.1l-1.4,1.2V27.9z"/>
<path className="st5" d="M45.9,17.2l-3-1.2v10.7l3,1.2V17.2z"/>
<path className="st6" d="M42.9,26.7l3,1.2h17.9l1.4-1.2H42.9z"/>
<path className="st5" d="M73.4,27.9h17.9V17.3H73.4V27.9z"/>
<path className="st5" d="M73.4,27.9h17.9V17.3H73.4V27.9z"/>
<path className="st5" d="M70.3,26.8h22.3V16.1H70.3V26.8z"/>
<path className="st5" d="M91.3,27.9l1.4-1.2V16.1l-1.4,1.2V27.9z"/>
<path className="st5" d="M73.4,17.2l-3-1.2v10.7l3,1.2V17.2z"/>
<path className="st6" d="M70.4,26.7l3,1.2h17.9l1.4-1.2H70.4z"/>
<path className="st5" d="M172.2,16.7h-17.9v10.6h17.9V16.7z"/>
<path className="st5" d="M172.2,16.7h-17.9v10.6h17.9V16.7z"/>
<path className="st5" d="M175.2,15.5h-22.3v10.7h22.3V15.5z"/>
<path className="st5" d="M154.3,27.3l-1.4-1.2V15.5l1.4,1.2V27.3z"/>
<path className="st5" d="M172.1,16.7l3.1-1.2v10.6l-3.1,1.2V16.7z"/>
<path className="st6" d="M175.2,26.1l-3.1,1.2h-17.8l-1.4-1.2L175.2,26.1z"/>
<path className="st5" d="M144.7,16.7h-17.9v10.6h17.9V16.7z"/>
<path className="st5" d="M144.7,16.7h-17.9v10.6h17.9V16.7z"/>
<path className="st5" d="M147.6,15.5h-22.3v10.7h22.3V15.5z"/>
<path className="st5" d="M126.7,27.3l-1.4-1.2V15.5l1.4,1.2V27.3z"/>
<path className="st5" d="M144.7,16.7l3-1.2v10.6l-3,1.2V16.7z"/>
<path className="st6" d="M147.6,26.1l-3,1.2h-17.9l-1.4-1.2L147.6,26.1z"/>
<path className="st5" d="M117.1,16.7H99.2v10.6h17.9V16.7z"/>
<path className="st5" d="M117.1,16.7H99.2v10.6h17.9V16.7z"/>
<path className="st5" d="M120.2,15.5H97.9v10.7h22.3V15.5z"/>
<path className="st5" d="M99.2,27.3l-1.4-1.2V15.5l1.4,1.2V27.3z"/>
<path className="st5" d="M117.1,16.7l3-1.2v10.6l-3,1.2V16.7z"/>
<path className="st6" d="M120.1,26.1l-3,1.2H99.2l-1.4-1.2L120.1,26.1z"/>
</svg>
