<svg width="155" height="503" viewBox="0 0 155 503" fill="none" xmlns="http://www.w3.org/2000/svg">
<mask id="mask0" mask-type="alpha" maskUnits="userSpaceOnUse" x="69" y="0" width="86" height="503">
<rect x="69" width="86" height="503" fill="#C4C4C4"/>
</mask>
<g mask="url(#mask0)">
<path d="M488 -85H34V551H488V-85Z" fill="white"/>
<path opacity="0.4" d="M470.513 -64.6172H53.2207V524.88H470.513V-64.6172Z" fill="#7CB4D0"/>
<path opacity="0.1" d="M470.513 -64.6172H53.2207V524.88H470.513V-64.6172Z" fill="#BCDEEA"/>
<path opacity="0.4" d="M488 -85H34V551H488V-85Z" fill="#7CB4D0"/>
</g>
<mask id="mask1" mask-type="alpha" maskUnits="userSpaceOnUse" x="0" y="0" width="60" height="503">
<rect width="60" height="503" fill="#C4C4C4"/>
</mask>
<g mask="url(#mask1)">
<path d="M-0.464609 18.9998H5.02139V17.9208H2.85039V10.1598H1.75839C1.17339 10.9138 0.393391 11.2518 -0.724609 11.2908V12.3048C0.146391 12.2788 0.978391 12.1748 1.70639 11.6678V17.9208H-0.464609V18.9998Z" fill="white"/>
<path d="M9.6437 19.1558C11.6197 19.1558 12.6857 18.1288 12.6857 16.2178V12.9418C12.6857 11.0308 11.6197 10.0038 9.6437 10.0038C7.6677 10.0038 6.6017 11.0308 6.6017 12.9418V16.2178C6.6017 18.1288 7.6677 19.1558 9.6437 19.1558ZM9.6437 18.1158C8.3697 18.1158 7.7457 17.4658 7.7457 16.1398V13.0198C7.7457 11.6938 8.3697 11.0438 9.6437 11.0438C10.9177 11.0438 11.5417 11.6938 11.5417 13.0198V16.1398C11.5417 17.4658 10.9177 18.1158 9.6437 18.1158Z" fill="white"/>
<path d="M20.8918 19.1558C22.8678 19.1558 23.9338 18.1288 23.9338 16.2178V12.9418C23.9338 11.0308 22.8678 10.0038 20.8918 10.0038C18.9158 10.0038 17.8498 11.0308 17.8498 12.9418V16.2178C17.8498 18.1288 18.9158 19.1558 20.8918 19.1558ZM20.8918 18.1158C19.6178 18.1158 18.9937 17.4658 18.9937 16.1398V13.0198C18.9937 11.6938 19.6178 11.0438 20.8918 11.0438C22.1658 11.0438 22.7898 11.6938 22.7898 13.0198V16.1398C22.7898 17.4658 22.1658 18.1158 20.8918 18.1158Z" fill="white"/>
<path d="M28.7121 19.1558C30.6881 19.1558 31.7541 18.1288 31.7541 16.2178V12.9418C31.7541 11.0308 30.6881 10.0038 28.7121 10.0038C26.7361 10.0038 25.6701 11.0308 25.6701 12.9418V16.2178C25.6701 18.1288 26.7361 19.1558 28.7121 19.1558ZM28.7121 18.1158C27.4381 18.1158 26.8141 17.4658 26.8141 16.1398V13.0198C26.8141 11.6938 27.4381 11.0438 28.7121 11.0438C29.9861 11.0438 30.6101 11.6938 30.6101 13.0198V16.1398C30.6101 17.4658 29.9861 18.1158 28.7121 18.1158Z" fill="white"/>
<path d="M36.5324 19.1558C38.5084 19.1558 39.5744 18.1288 39.5744 16.2178V12.9418C39.5744 11.0308 38.5084 10.0038 36.5324 10.0038C34.5564 10.0038 33.4904 11.0308 33.4904 12.9418V16.2178C33.4904 18.1288 34.5564 19.1558 36.5324 19.1558ZM36.5324 18.1158C35.2584 18.1158 34.6344 17.4658 34.6344 16.1398V13.0198C34.6344 11.6938 35.2584 11.0438 36.5324 11.0438C37.8064 11.0438 38.4304 11.6938 38.4304 13.0198V16.1398C38.4304 17.4658 37.8064 18.1158 36.5324 18.1158Z" fill="white"/>
<path d="M48.2224 19.1558C49.7824 19.1558 50.6924 18.1938 50.6924 16.3608V14.9308C50.6924 13.0978 49.7824 12.1358 48.2224 12.1358C47.3254 12.1358 46.6364 12.4608 46.0904 13.1758V9.50977H44.9464V18.9998H45.9214L45.9604 17.9338C46.5324 18.7788 47.2474 19.1558 48.2224 19.1558ZM48.0794 18.1548C47.2344 18.1548 46.5324 17.5958 46.0904 16.6338V14.6578C46.5324 13.6958 47.2214 13.1368 48.0794 13.1368C49.0024 13.1368 49.5484 13.7738 49.5484 14.9698V16.3218C49.5484 17.5178 49.0024 18.1548 48.0794 18.1548Z" fill="white"/>
<path d="M52.5128 21.3658H53.6568V18.1158C54.2028 18.8308 54.8918 19.1558 55.7888 19.1558C57.3488 19.1558 58.2588 18.1938 58.2588 16.3608V14.9308C58.2588 13.0978 57.3488 12.1358 55.7888 12.1358C54.8138 12.1358 54.0988 12.5128 53.5268 13.3578L53.4878 12.2918H52.5128V21.3658ZM55.6458 18.1548C54.7878 18.1548 54.0988 17.5958 53.6568 16.6338V14.6578C54.0988 13.6958 54.7878 13.1368 55.6458 13.1368C56.5688 13.1368 57.1148 13.7738 57.1148 14.9698V16.3218C57.1148 17.5178 56.5688 18.1548 55.6458 18.1548Z" fill="white"/>
<path d="M13.0716 63.1558C15.1906 63.1558 16.3346 62.2588 16.3346 60.6208C16.3346 59.5158 15.8146 58.7748 14.8136 58.4238V58.3978C15.6586 58.0728 16.0876 57.4098 16.0876 56.4478C16.0876 54.9008 14.9826 54.0038 13.0846 54.0038C11.1866 54.0038 10.0686 54.9008 10.0686 56.4478C10.0686 57.4098 10.4976 58.0728 11.3296 58.3978V58.4238C10.3286 58.7618 9.80859 59.5158 9.80859 60.6208C9.80859 62.2588 10.9526 63.1558 13.0716 63.1558ZM13.0716 57.9558C11.8496 57.9558 11.1996 57.4488 11.1996 56.5128C11.1996 55.5508 11.8886 55.0438 13.0716 55.0438C14.2806 55.0438 14.9566 55.5638 14.9566 56.5128C14.9566 57.4488 14.2936 57.9558 13.0716 57.9558ZM13.0716 62.1158C11.6676 62.1158 10.9526 61.5828 10.9526 60.5558C10.9526 59.5288 11.6676 58.9958 13.0716 58.9958C14.4756 58.9958 15.1906 59.5288 15.1906 60.5558C15.1906 61.5828 14.4756 62.1158 13.0716 62.1158Z" fill="white"/>
<path d="M20.8919 63.1558C22.8679 63.1558 23.9339 62.1288 23.9339 60.2178V56.9418C23.9339 55.0308 22.8679 54.0038 20.8919 54.0038C18.9159 54.0038 17.8499 55.0308 17.8499 56.9418V60.2178C17.8499 62.1288 18.9159 63.1558 20.8919 63.1558ZM20.8919 62.1158C19.6179 62.1158 18.9939 61.4658 18.9939 60.1398V57.0198C18.9939 55.6938 19.6179 55.0438 20.8919 55.0438C22.1659 55.0438 22.7899 55.6938 22.7899 57.0198V60.1398C22.7899 61.4658 22.1659 62.1158 20.8919 62.1158Z" fill="white"/>
<path d="M28.7122 63.1558C30.6882 63.1558 31.7542 62.1288 31.7542 60.2178V56.9418C31.7542 55.0308 30.6882 54.0038 28.7122 54.0038C26.7362 54.0038 25.6702 55.0308 25.6702 56.9418V60.2178C25.6702 62.1288 26.7362 63.1558 28.7122 63.1558ZM28.7122 62.1158C27.4382 62.1158 26.8142 61.4658 26.8142 60.1398V57.0198C26.8142 55.6938 27.4382 55.0438 28.7122 55.0438C29.9862 55.0438 30.6102 55.6938 30.6102 57.0198V60.1398C30.6102 61.4658 29.9862 62.1158 28.7122 62.1158Z" fill="white"/>
<path d="M36.5325 63.1558C38.5085 63.1558 39.5745 62.1288 39.5745 60.2178V56.9418C39.5745 55.0308 38.5085 54.0038 36.5325 54.0038C34.5565 54.0038 33.4905 55.0308 33.4905 56.9418V60.2178C33.4905 62.1288 34.5565 63.1558 36.5325 63.1558ZM36.5325 62.1158C35.2585 62.1158 34.6345 61.4658 34.6345 60.1398V57.0198C34.6345 55.6938 35.2585 55.0438 36.5325 55.0438C37.8065 55.0438 38.4305 55.6938 38.4305 57.0198V60.1398C38.4305 61.4658 37.8065 62.1158 36.5325 62.1158Z" fill="white"/>
<path d="M48.2226 63.1558C49.7826 63.1558 50.6926 62.1938 50.6926 60.3608V58.9308C50.6926 57.0978 49.7826 56.1358 48.2226 56.1358C47.3256 56.1358 46.6366 56.4608 46.0906 57.1758V53.5098H44.9466V62.9998H45.9216L45.9606 61.9338C46.5326 62.7788 47.2476 63.1558 48.2226 63.1558ZM48.0796 62.1548C47.2346 62.1548 46.5326 61.5958 46.0906 60.6338V58.6578C46.5326 57.6958 47.2216 57.1368 48.0796 57.1368C49.0026 57.1368 49.5486 57.7738 49.5486 58.9698V60.3218C49.5486 61.5178 49.0026 62.1548 48.0796 62.1548Z" fill="white"/>
<path d="M52.513 65.3658H53.657V62.1158C54.203 62.8308 54.892 63.1558 55.789 63.1558C57.349 63.1558 58.259 62.1938 58.259 60.3608V58.9308C58.259 57.0978 57.349 56.1358 55.789 56.1358C54.814 56.1358 54.099 56.5128 53.527 57.3578L53.488 56.2918H52.513V65.3658ZM55.646 62.1548C54.788 62.1548 54.099 61.5958 53.657 60.6338V58.6578C54.099 57.6958 54.788 57.1368 55.646 57.1368C56.569 57.1368 57.115 57.7738 57.115 58.9698V60.3218C57.115 61.5178 56.569 62.1548 55.646 62.1548Z" fill="white"/>
<path d="M13.1878 98.1558C15.1898 98.1558 16.2298 97.1028 16.2298 95.2048C16.2298 93.3588 15.2418 92.3838 13.5258 92.3838C12.5507 92.3838 11.7837 92.6958 11.2378 93.3328V92.0848C11.2378 90.7198 11.8878 90.0438 13.2268 90.0438C14.3188 90.0438 14.9167 90.4988 14.9948 91.3958H16.1128C16.0478 89.8358 15.0338 89.0038 13.2137 89.0038C11.1857 89.0038 10.0938 90.0568 10.0938 92.0198V95.1528C10.0938 97.1288 11.2118 98.1558 13.1878 98.1558ZM13.1878 97.1158C11.9138 97.1158 11.2378 96.4658 11.2378 95.1268V94.8278C11.6148 93.8918 12.3167 93.4238 13.3177 93.4238C14.4878 93.4238 15.0728 94.0478 15.0728 95.2308C15.0728 96.4528 14.4618 97.1158 13.1878 97.1158Z" fill="white"/>
<path d="M20.8911 98.1558C22.8671 98.1558 23.9331 97.1288 23.9331 95.2178V91.9418C23.9331 90.0308 22.8671 89.0038 20.8911 89.0038C18.9151 89.0038 17.8491 90.0308 17.8491 91.9418V95.2178C17.8491 97.1288 18.9151 98.1558 20.8911 98.1558ZM20.8911 97.1158C19.6171 97.1158 18.9931 96.4658 18.9931 95.1398V92.0198C18.9931 90.6938 19.6171 90.0438 20.8911 90.0438C22.1651 90.0438 22.7891 90.6938 22.7891 92.0198V95.1398C22.7891 96.4658 22.1651 97.1158 20.8911 97.1158Z" fill="white"/>
<path d="M28.7114 98.1558C30.6874 98.1558 31.7534 97.1288 31.7534 95.2178V91.9418C31.7534 90.0308 30.6874 89.0038 28.7114 89.0038C26.7354 89.0038 25.6694 90.0308 25.6694 91.9418V95.2178C25.6694 97.1288 26.7354 98.1558 28.7114 98.1558ZM28.7114 97.1158C27.4374 97.1158 26.8134 96.4658 26.8134 95.1398V92.0198C26.8134 90.6938 27.4374 90.0438 28.7114 90.0438C29.9854 90.0438 30.6094 90.6938 30.6094 92.0198V95.1398C30.6094 96.4658 29.9854 97.1158 28.7114 97.1158Z" fill="white"/>
<path d="M36.5317 98.1558C38.5077 98.1558 39.5737 97.1288 39.5737 95.2178V91.9418C39.5737 90.0308 38.5077 89.0038 36.5317 89.0038C34.5557 89.0038 33.4897 90.0308 33.4897 91.9418V95.2178C33.4897 97.1288 34.5557 98.1558 36.5317 98.1558ZM36.5317 97.1158C35.2577 97.1158 34.6337 96.4658 34.6337 95.1398V92.0198C34.6337 90.6938 35.2577 90.0438 36.5317 90.0438C37.8057 90.0438 38.4297 90.6938 38.4297 92.0198V95.1398C38.4297 96.4658 37.8057 97.1158 36.5317 97.1158Z" fill="white"/>
<path d="M48.2217 98.1558C49.7817 98.1558 50.6917 97.1938 50.6917 95.3608V93.9308C50.6917 92.0978 49.7817 91.1358 48.2217 91.1358C47.3247 91.1358 46.6357 91.4608 46.0897 92.1758V88.5098H44.9457V97.9998H45.9207L45.9597 96.9338C46.5317 97.7788 47.2467 98.1558 48.2217 98.1558ZM48.0787 97.1548C47.2337 97.1548 46.5317 96.5958 46.0897 95.6338V93.6578C46.5317 92.6958 47.2207 92.1368 48.0787 92.1368C49.0017 92.1368 49.5477 92.7738 49.5477 93.9698V95.3218C49.5477 96.5178 49.0017 97.1548 48.0787 97.1548Z" fill="white"/>
<path d="M52.5121 100.366H53.6561V97.1158C54.2021 97.8308 54.8911 98.1558 55.7881 98.1558C57.3481 98.1558 58.2581 97.1938 58.2581 95.3608V93.9308C58.2581 92.0978 57.3481 91.1358 55.7881 91.1358C54.8131 91.1358 54.0981 91.5128 53.5261 92.3578L53.4871 91.2918H52.5121V100.366ZM55.6451 97.1548C54.7871 97.1548 54.0981 96.5958 53.6561 95.6338V93.6578C54.0981 92.6958 54.7871 92.1368 55.6451 92.1368C56.5681 92.1368 57.1141 92.7738 57.1141 93.9698V95.3218C57.1141 96.5178 56.5681 97.1548 55.6451 97.1548Z" fill="white"/>
<path d="M13.0836 130.156C15.1116 130.156 16.2556 129.168 16.2556 127.166C16.2556 125.268 15.2156 124.228 13.4216 124.228C12.6286 124.228 11.9786 124.436 11.4586 124.852L11.6276 122.239H15.8526V121.16H10.6006L10.3016 125.944H11.3546C11.8746 125.489 12.4466 125.268 13.1616 125.268C14.4096 125.268 15.1116 125.931 15.1116 127.192C15.1116 128.479 14.3836 129.116 13.0706 129.116C11.8876 129.116 11.1726 128.596 11.1336 127.712H10.0156C10.0416 129.233 11.1206 130.156 13.0836 130.156Z" fill="white"/>
<path d="M20.8909 130.156C22.8669 130.156 23.9329 129.129 23.9329 127.218V123.942C23.9329 122.031 22.8669 121.004 20.8909 121.004C18.9149 121.004 17.8489 122.031 17.8489 123.942V127.218C17.8489 129.129 18.9149 130.156 20.8909 130.156ZM20.8909 129.116C19.6169 129.116 18.9929 128.466 18.9929 127.14V124.02C18.9929 122.694 19.6169 122.044 20.8909 122.044C22.1649 122.044 22.7889 122.694 22.7889 124.02V127.14C22.7889 128.466 22.1649 129.116 20.8909 129.116Z" fill="white"/>
<path d="M28.7113 130.156C30.6873 130.156 31.7533 129.129 31.7533 127.218V123.942C31.7533 122.031 30.6873 121.004 28.7113 121.004C26.7353 121.004 25.6693 122.031 25.6693 123.942V127.218C25.6693 129.129 26.7353 130.156 28.7113 130.156ZM28.7113 129.116C27.4373 129.116 26.8132 128.466 26.8132 127.14V124.02C26.8132 122.694 27.4373 122.044 28.7113 122.044C29.9853 122.044 30.6093 122.694 30.6093 124.02V127.14C30.6093 128.466 29.9853 129.116 28.7113 129.116Z" fill="white"/>
<path d="M36.5316 130.156C38.5076 130.156 39.5736 129.129 39.5736 127.218V123.942C39.5736 122.031 38.5076 121.004 36.5316 121.004C34.5556 121.004 33.4896 122.031 33.4896 123.942V127.218C33.4896 129.129 34.5556 130.156 36.5316 130.156ZM36.5316 129.116C35.2576 129.116 34.6336 128.466 34.6336 127.14V124.02C34.6336 122.694 35.2576 122.044 36.5316 122.044C37.8056 122.044 38.4296 122.694 38.4296 124.02V127.14C38.4296 128.466 37.8056 129.116 36.5316 129.116Z" fill="white"/>
<path d="M48.2216 130.156C49.7816 130.156 50.6916 129.194 50.6916 127.361V125.931C50.6916 124.098 49.7816 123.136 48.2216 123.136C47.3246 123.136 46.6356 123.461 46.0896 124.176V120.51H44.9456V130H45.9206L45.9596 128.934C46.5316 129.779 47.2466 130.156 48.2216 130.156ZM48.0786 129.155C47.2336 129.155 46.5316 128.596 46.0896 127.634V125.658C46.5316 124.696 47.2206 124.137 48.0786 124.137C49.0016 124.137 49.5476 124.774 49.5476 125.97V127.322C49.5476 128.518 49.0016 129.155 48.0786 129.155Z" fill="white"/>
<path d="M52.512 132.366H53.656V129.116C54.202 129.831 54.891 130.156 55.788 130.156C57.348 130.156 58.258 129.194 58.258 127.361V125.931C58.258 124.098 57.348 123.136 55.788 123.136C54.813 123.136 54.098 123.513 53.526 124.358L53.487 123.292H52.512V132.366ZM55.645 129.155C54.787 129.155 54.098 128.596 53.656 127.634V125.658C54.098 124.696 54.787 124.137 55.645 124.137C56.568 124.137 57.114 124.774 57.114 125.97V127.322C57.114 128.518 56.568 129.155 55.645 129.155Z" fill="white"/>
<path d="M14.2805 162H15.4245V159.972H16.4645V158.932H15.4245V153.16H14.1245L9.73047 158.867V159.972H14.2805V162ZM11.0175 158.932L14.2805 154.642V158.932H11.0175Z" fill="white"/>
<path d="M20.8918 162.156C22.8678 162.156 23.9338 161.129 23.9338 159.218V155.942C23.9338 154.031 22.8678 153.004 20.8918 153.004C18.9158 153.004 17.8498 154.031 17.8498 155.942V159.218C17.8498 161.129 18.9158 162.156 20.8918 162.156ZM20.8918 161.116C19.6178 161.116 18.9938 160.466 18.9938 159.14V156.02C18.9938 154.694 19.6178 154.044 20.8918 154.044C22.1658 154.044 22.7898 154.694 22.7898 156.02V159.14C22.7898 160.466 22.1658 161.116 20.8918 161.116Z" fill="white"/>
<path d="M28.7121 162.156C30.6881 162.156 31.7541 161.129 31.7541 159.218V155.942C31.7541 154.031 30.6881 153.004 28.7121 153.004C26.7361 153.004 25.6701 154.031 25.6701 155.942V159.218C25.6701 161.129 26.7361 162.156 28.7121 162.156ZM28.7121 161.116C27.4381 161.116 26.8141 160.466 26.8141 159.14V156.02C26.8141 154.694 27.4381 154.044 28.7121 154.044C29.9861 154.044 30.6101 154.694 30.6101 156.02V159.14C30.6101 160.466 29.9861 161.116 28.7121 161.116Z" fill="white"/>
<path d="M36.5324 162.156C38.5084 162.156 39.5744 161.129 39.5744 159.218V155.942C39.5744 154.031 38.5084 153.004 36.5324 153.004C34.5564 153.004 33.4904 154.031 33.4904 155.942V159.218C33.4904 161.129 34.5564 162.156 36.5324 162.156ZM36.5324 161.116C35.2584 161.116 34.6344 160.466 34.6344 159.14V156.02C34.6344 154.694 35.2584 154.044 36.5324 154.044C37.8064 154.044 38.4304 154.694 38.4304 156.02V159.14C38.4304 160.466 37.8064 161.116 36.5324 161.116Z" fill="white"/>
<path d="M48.2225 162.156C49.7825 162.156 50.6925 161.194 50.6925 159.361V157.931C50.6925 156.098 49.7825 155.136 48.2225 155.136C47.3255 155.136 46.6365 155.461 46.0905 156.176V152.51H44.9464V162H45.9215L45.9604 160.934C46.5324 161.779 47.2475 162.156 48.2225 162.156ZM48.0795 161.155C47.2345 161.155 46.5325 160.596 46.0905 159.634V157.658C46.5325 156.696 47.2215 156.137 48.0795 156.137C49.0025 156.137 49.5485 156.774 49.5485 157.97V159.322C49.5485 160.518 49.0025 161.155 48.0795 161.155Z" fill="white"/>
<path d="M52.5129 164.366H53.6569V161.116C54.2029 161.831 54.8919 162.156 55.7889 162.156C57.3489 162.156 58.2589 161.194 58.2589 159.361V157.931C58.2589 156.098 57.3489 155.136 55.7889 155.136C54.8139 155.136 54.0989 155.513 53.5269 156.358L53.4879 155.292H52.5129V164.366ZM55.6459 161.155C54.7879 161.155 54.0989 160.596 53.6569 159.634V157.658C54.0989 156.696 54.7879 156.137 55.6459 156.137C56.5689 156.137 57.1149 156.774 57.1149 157.97V159.322C57.1149 160.518 56.5689 161.155 55.6459 161.155Z" fill="white"/>
<path d="M10.0293 279H16.1003V277.921H11.1603C11.2123 276.972 11.7973 276.4 13.4223 275.672C15.3853 274.788 16.1263 273.93 16.1263 272.526C16.1263 270.979 15.1123 270.004 13.1883 270.004C11.2643 270.004 10.1593 270.953 10.1593 272.695V272.994H11.2773V272.812C11.2773 271.629 11.9403 271.044 13.1753 271.044C14.3973 271.044 14.9823 271.629 14.9823 272.552C14.9823 273.475 14.4363 274.06 12.8763 274.775C10.8093 275.724 10.0293 276.699 10.0293 278.337V279Z" fill="white"/>
<path d="M20.8916 279.156C22.8676 279.156 23.9336 278.129 23.9336 276.218V272.942C23.9336 271.031 22.8676 270.004 20.8916 270.004C18.9156 270.004 17.8496 271.031 17.8496 272.942V276.218C17.8496 278.129 18.9156 279.156 20.8916 279.156ZM20.8916 278.116C19.6176 278.116 18.9936 277.466 18.9936 276.14V273.02C18.9936 271.694 19.6176 271.044 20.8916 271.044C22.1656 271.044 22.7896 271.694 22.7896 273.02V276.14C22.7896 277.466 22.1656 278.116 20.8916 278.116Z" fill="white"/>
<path d="M28.7119 279.156C30.6879 279.156 31.7539 278.129 31.7539 276.218V272.942C31.7539 271.031 30.6879 270.004 28.7119 270.004C26.7359 270.004 25.6699 271.031 25.6699 272.942V276.218C25.6699 278.129 26.7359 279.156 28.7119 279.156ZM28.7119 278.116C27.4379 278.116 26.8139 277.466 26.8139 276.14V273.02C26.8139 271.694 27.4379 271.044 28.7119 271.044C29.9859 271.044 30.6099 271.694 30.6099 273.02V276.14C30.6099 277.466 29.9859 278.116 28.7119 278.116Z" fill="white"/>
<path d="M36.5322 279.156C38.5082 279.156 39.5742 278.129 39.5742 276.218V272.942C39.5742 271.031 38.5082 270.004 36.5322 270.004C34.5562 270.004 33.4902 271.031 33.4902 272.942V276.218C33.4902 278.129 34.5562 279.156 36.5322 279.156ZM36.5322 278.116C35.2582 278.116 34.6342 277.466 34.6342 276.14V273.02C34.6342 271.694 35.2582 271.044 36.5322 271.044C37.8062 271.044 38.4302 271.694 38.4302 273.02V276.14C38.4302 277.466 37.8062 278.116 36.5322 278.116Z" fill="white"/>
<path d="M48.2223 279.156C49.7823 279.156 50.6923 278.194 50.6923 276.361V274.931C50.6923 273.098 49.7823 272.136 48.2223 272.136C47.3253 272.136 46.6363 272.461 46.0903 273.176V269.51H44.9463V279H45.9213L45.9603 277.934C46.5323 278.779 47.2473 279.156 48.2223 279.156ZM48.0793 278.155C47.2343 278.155 46.5323 277.596 46.0903 276.634V274.658C46.5323 273.696 47.2213 273.137 48.0793 273.137C49.0023 273.137 49.5483 273.774 49.5483 274.97V276.322C49.5483 277.518 49.0023 278.155 48.0793 278.155Z" fill="white"/>
<path d="M52.5127 281.366H53.6567V278.116C54.2027 278.831 54.8917 279.156 55.7887 279.156C57.3487 279.156 58.2587 278.194 58.2587 276.361V274.931C58.2587 273.098 57.3487 272.136 55.7887 272.136C54.8137 272.136 54.0987 272.513 53.5267 273.358L53.4877 272.292H52.5127V281.366ZM55.6457 278.155C54.7877 278.155 54.0987 277.596 53.6567 276.634V274.658C54.0987 273.696 54.7877 273.137 55.6457 273.137C56.5687 273.137 57.1147 273.774 57.1147 274.97V276.322C57.1147 277.518 56.5687 278.155 55.6457 278.155Z" fill="white"/>
<path d="M10.7834 314H16.2694V312.921H14.0984V305.16H13.0064C12.4214 305.914 11.6414 306.252 10.5234 306.291V307.305C11.3944 307.279 12.2264 307.175 12.9544 306.668V312.921H10.7834V314Z" fill="white"/>
<path d="M20.9048 314.156C22.9328 314.156 24.0767 313.168 24.0767 311.166C24.0767 309.268 23.0368 308.228 21.2428 308.228C20.4498 308.228 19.7998 308.436 19.2798 308.852L19.4487 306.239H23.6737V305.16H18.4218L18.1228 309.944H19.1758C19.6958 309.489 20.2677 309.268 20.9827 309.268C22.2307 309.268 22.9328 309.931 22.9328 311.192C22.9328 312.479 22.2048 313.116 20.8918 313.116C19.7088 313.116 18.9937 312.596 18.9548 311.712H17.8368C17.8628 313.233 18.9418 314.156 20.9048 314.156Z" fill="white"/>
<path d="M28.7121 314.156C30.6881 314.156 31.7541 313.129 31.7541 311.218V307.942C31.7541 306.031 30.6881 305.004 28.7121 305.004C26.7361 305.004 25.6701 306.031 25.6701 307.942V311.218C25.6701 313.129 26.7361 314.156 28.7121 314.156ZM28.7121 313.116C27.4381 313.116 26.8141 312.466 26.8141 311.14V308.02C26.8141 306.694 27.4381 306.044 28.7121 306.044C29.9861 306.044 30.6101 306.694 30.6101 308.02V311.14C30.6101 312.466 29.9861 313.116 28.7121 313.116Z" fill="white"/>
<path d="M36.5324 314.156C38.5084 314.156 39.5744 313.129 39.5744 311.218V307.942C39.5744 306.031 38.5084 305.004 36.5324 305.004C34.5564 305.004 33.4904 306.031 33.4904 307.942V311.218C33.4904 313.129 34.5564 314.156 36.5324 314.156ZM36.5324 313.116C35.2584 313.116 34.6344 312.466 34.6344 311.14V308.02C34.6344 306.694 35.2584 306.044 36.5324 306.044C37.8064 306.044 38.4304 306.694 38.4304 308.02V311.14C38.4304 312.466 37.8064 313.116 36.5324 313.116Z" fill="white"/>
<path d="M48.2224 314.156C49.7824 314.156 50.6924 313.194 50.6924 311.361V309.931C50.6924 308.098 49.7824 307.136 48.2224 307.136C47.3254 307.136 46.6364 307.461 46.0904 308.176V304.51H44.9464V314H45.9214L45.9604 312.934C46.5324 313.779 47.2474 314.156 48.2224 314.156ZM48.0794 313.155C47.2344 313.155 46.5324 312.596 46.0904 311.634V309.658C46.5324 308.696 47.2214 308.137 48.0794 308.137C49.0024 308.137 49.5484 308.774 49.5484 309.97V311.322C49.5484 312.518 49.0024 313.155 48.0794 313.155Z" fill="white"/>
<path d="M52.5128 316.366H53.6568V313.116C54.2028 313.831 54.8918 314.156 55.7888 314.156C57.3488 314.156 58.2588 313.194 58.2588 311.361V309.931C58.2588 308.098 57.3488 307.136 55.7888 307.136C54.8138 307.136 54.0988 307.513 53.5268 308.358L53.4878 307.292H52.5128V316.366ZM55.6458 313.155C54.7878 313.155 54.0988 312.596 53.6568 311.634V309.658C54.0988 308.696 54.7878 308.137 55.6458 308.137C56.5688 308.137 57.1148 308.774 57.1148 309.97V311.322C57.1148 312.518 56.5688 313.155 55.6458 313.155Z" fill="white"/>
<path d="M10.7834 392H16.2694V390.921H14.0984V383.16H13.0064C12.4214 383.914 11.6414 384.252 10.5234 384.291V385.305C11.3944 385.279 12.2264 385.175 12.9544 384.668V390.921H10.7834V392Z" fill="white"/>
<path d="M20.8918 392.156C22.8678 392.156 23.9338 391.129 23.9338 389.218V385.942C23.9338 384.031 22.8678 383.004 20.8918 383.004C18.9158 383.004 17.8498 384.031 17.8498 385.942V389.218C17.8498 391.129 18.9158 392.156 20.8918 392.156ZM20.8918 391.116C19.6178 391.116 18.9937 390.466 18.9937 389.14V386.02C18.9937 384.694 19.6178 384.044 20.8918 384.044C22.1658 384.044 22.7898 384.694 22.7898 386.02V389.14C22.7898 390.466 22.1658 391.116 20.8918 391.116Z" fill="white"/>
<path d="M28.7121 392.156C30.6881 392.156 31.7541 391.129 31.7541 389.218V385.942C31.7541 384.031 30.6881 383.004 28.7121 383.004C26.7361 383.004 25.6701 384.031 25.6701 385.942V389.218C25.6701 391.129 26.7361 392.156 28.7121 392.156ZM28.7121 391.116C27.4381 391.116 26.8141 390.466 26.8141 389.14V386.02C26.8141 384.694 27.4381 384.044 28.7121 384.044C29.9861 384.044 30.6101 384.694 30.6101 386.02V389.14C30.6101 390.466 29.9861 391.116 28.7121 391.116Z" fill="white"/>
<path d="M36.5324 392.156C38.5084 392.156 39.5744 391.129 39.5744 389.218V385.942C39.5744 384.031 38.5084 383.004 36.5324 383.004C34.5564 383.004 33.4904 384.031 33.4904 385.942V389.218C33.4904 391.129 34.5564 392.156 36.5324 392.156ZM36.5324 391.116C35.2584 391.116 34.6344 390.466 34.6344 389.14V386.02C34.6344 384.694 35.2584 384.044 36.5324 384.044C37.8064 384.044 38.4304 384.694 38.4304 386.02V389.14C38.4304 390.466 37.8064 391.116 36.5324 391.116Z" fill="white"/>
<path d="M48.2224 392.156C49.7824 392.156 50.6924 391.194 50.6924 389.361V387.931C50.6924 386.098 49.7824 385.136 48.2224 385.136C47.3254 385.136 46.6364 385.461 46.0904 386.176V382.51H44.9464V392H45.9214L45.9604 390.934C46.5324 391.779 47.2474 392.156 48.2224 392.156ZM48.0794 391.155C47.2344 391.155 46.5324 390.596 46.0904 389.634V387.658C46.5324 386.696 47.2214 386.137 48.0794 386.137C49.0024 386.137 49.5484 386.774 49.5484 387.97V389.322C49.5484 390.518 49.0024 391.155 48.0794 391.155Z" fill="white"/>
<path d="M52.5128 394.366H53.6568V391.116C54.2028 391.831 54.8918 392.156 55.7888 392.156C57.3488 392.156 58.2588 391.194 58.2588 389.361V387.931C58.2588 386.098 57.3488 385.136 55.7888 385.136C54.8138 385.136 54.0988 385.513 53.5268 386.358L53.4878 385.292H52.5128V394.366ZM55.6458 391.155C54.7878 391.155 54.0988 390.596 53.6568 389.634V387.658C54.0988 386.696 54.7878 386.137 55.6458 386.137C56.5688 386.137 57.1148 386.774 57.1148 387.97V389.322C57.1148 390.518 56.5688 391.155 55.6458 391.155Z" fill="white"/>
<path d="M20.9039 481.156C22.9319 481.156 24.0759 480.168 24.0759 478.166C24.0759 476.268 23.0359 475.228 21.2419 475.228C20.4489 475.228 19.7989 475.436 19.2789 475.852L19.4479 473.239H23.6729V472.16H18.4209L18.1219 476.944H19.1749C19.6949 476.489 20.2669 476.268 20.9819 476.268C22.2299 476.268 22.9319 476.931 22.9319 478.192C22.9319 479.479 22.2039 480.116 20.8909 480.116C19.7079 480.116 18.9929 479.596 18.9539 478.712H17.8359C17.8619 480.233 18.9409 481.156 20.9039 481.156Z" fill="white"/>
<path d="M28.7113 481.156C30.6873 481.156 31.7533 480.129 31.7533 478.218V474.942C31.7533 473.031 30.6873 472.004 28.7113 472.004C26.7353 472.004 25.6693 473.031 25.6693 474.942V478.218C25.6693 480.129 26.7353 481.156 28.7113 481.156ZM28.7113 480.116C27.4373 480.116 26.8132 479.466 26.8132 478.14V475.02C26.8132 473.694 27.4373 473.044 28.7113 473.044C29.9853 473.044 30.6093 473.694 30.6093 475.02V478.14C30.6093 479.466 29.9853 480.116 28.7113 480.116Z" fill="white"/>
<path d="M36.5316 481.156C38.5076 481.156 39.5736 480.129 39.5736 478.218V474.942C39.5736 473.031 38.5076 472.004 36.5316 472.004C34.5556 472.004 33.4896 473.031 33.4896 474.942V478.218C33.4896 480.129 34.5556 481.156 36.5316 481.156ZM36.5316 480.116C35.2576 480.116 34.6336 479.466 34.6336 478.14V475.02C34.6336 473.694 35.2576 473.044 36.5316 473.044C37.8056 473.044 38.4296 473.694 38.4296 475.02V478.14C38.4296 479.466 37.8056 480.116 36.5316 480.116Z" fill="white"/>
<path d="M48.2216 481.156C49.7816 481.156 50.6916 480.194 50.6916 478.361V476.931C50.6916 475.098 49.7816 474.136 48.2216 474.136C47.3246 474.136 46.6356 474.461 46.0896 475.176V471.51H44.9456V481H45.9206L45.9596 479.934C46.5316 480.779 47.2466 481.156 48.2216 481.156ZM48.0786 480.155C47.2336 480.155 46.5316 479.596 46.0896 478.634V476.658C46.5316 475.696 47.2206 475.137 48.0786 475.137C49.0016 475.137 49.5476 475.774 49.5476 476.97V478.322C49.5476 479.518 49.0016 480.155 48.0786 480.155Z" fill="white"/>
<path d="M52.512 483.366H53.656V480.116C54.202 480.831 54.891 481.156 55.788 481.156C57.348 481.156 58.258 480.194 58.258 478.361V476.931C58.258 475.098 57.348 474.136 55.788 474.136C54.813 474.136 54.098 474.513 53.526 475.358L53.487 474.292H52.512V483.366ZM55.645 480.155C54.787 480.155 54.098 479.596 53.656 478.634V476.658C54.098 475.696 54.787 475.137 55.645 475.137C56.568 475.137 57.114 475.774 57.114 476.97V478.322C57.114 479.518 56.568 480.155 55.645 480.155Z" fill="white"/>
<path d="M13.1109 210.156C15.1129 210.156 16.2179 209.311 16.2179 207.582C16.2179 206.464 15.7629 205.749 14.8009 205.424V205.398C15.5939 205.06 15.9969 204.397 15.9969 203.435C15.9969 201.875 14.9439 201.004 13.1239 201.004C11.2259 201.004 10.1339 201.94 10.1339 203.565V203.76H11.2389V203.643C11.2389 202.616 11.8889 202.044 13.0849 202.044C14.2289 202.044 14.8659 202.564 14.8659 203.539C14.8659 204.488 14.2549 204.969 13.0979 204.969H12.1099V206.009H13.0849C14.4499 206.009 15.0739 206.529 15.0739 207.543C15.0739 208.622 14.3719 209.116 13.1109 209.116C11.7849 209.116 11.1219 208.57 11.1219 207.504V207.335H10.0039V207.66C10.0039 209.285 11.0829 210.156 13.1109 210.156Z" fill="white"/>
<path d="M20.8922 210.156C22.8682 210.156 23.9342 209.129 23.9342 207.218V203.942C23.9342 202.031 22.8682 201.004 20.8922 201.004C18.9162 201.004 17.8502 202.031 17.8502 203.942V207.218C17.8502 209.129 18.9162 210.156 20.8922 210.156ZM20.8922 209.116C19.6182 209.116 18.9942 208.466 18.9942 207.14V204.02C18.9942 202.694 19.6182 202.044 20.8922 202.044C22.1662 202.044 22.7902 202.694 22.7902 204.02V207.14C22.7902 208.466 22.1662 209.116 20.8922 209.116Z" fill="white"/>
<path d="M28.7125 210.156C30.6885 210.156 31.7545 209.129 31.7545 207.218V203.942C31.7545 202.031 30.6885 201.004 28.7125 201.004C26.7365 201.004 25.6705 202.031 25.6705 203.942V207.218C25.6705 209.129 26.7365 210.156 28.7125 210.156ZM28.7125 209.116C27.4385 209.116 26.8145 208.466 26.8145 207.14V204.02C26.8145 202.694 27.4385 202.044 28.7125 202.044C29.9865 202.044 30.6105 202.694 30.6105 204.02V207.14C30.6105 208.466 29.9865 209.116 28.7125 209.116Z" fill="white"/>
<path d="M36.5328 210.156C38.5088 210.156 39.5748 209.129 39.5748 207.218V203.942C39.5748 202.031 38.5088 201.004 36.5328 201.004C34.5568 201.004 33.4908 202.031 33.4908 203.942V207.218C33.4908 209.129 34.5568 210.156 36.5328 210.156ZM36.5328 209.116C35.2588 209.116 34.6348 208.466 34.6348 207.14V204.02C34.6348 202.694 35.2588 202.044 36.5328 202.044C37.8068 202.044 38.4308 202.694 38.4308 204.02V207.14C38.4308 208.466 37.8068 209.116 36.5328 209.116Z" fill="white"/>
<path d="M48.2229 210.156C49.7829 210.156 50.6929 209.194 50.6929 207.361V205.931C50.6929 204.098 49.7829 203.136 48.2229 203.136C47.3259 203.136 46.6369 203.461 46.0909 204.176V200.51H44.9469V210H45.9219L45.9609 208.934C46.5329 209.779 47.2479 210.156 48.2229 210.156ZM48.0799 209.155C47.2349 209.155 46.5329 208.596 46.0909 207.634V205.658C46.5329 204.696 47.2219 204.137 48.0799 204.137C49.0029 204.137 49.5489 204.774 49.5489 205.97V207.322C49.5489 208.518 49.0029 209.155 48.0799 209.155Z" fill="white"/>
<path d="M52.5133 212.366H53.6573V209.116C54.2033 209.831 54.8923 210.156 55.7893 210.156C57.3493 210.156 58.2593 209.194 58.2593 207.361V205.931C58.2593 204.098 57.3493 203.136 55.7893 203.136C54.8143 203.136 54.0993 203.513 53.5273 204.358L53.4883 203.292H52.5133V212.366ZM55.6463 209.155C54.7883 209.155 54.0993 208.596 53.6573 207.634V205.658C54.0993 204.696 54.7883 204.137 55.6463 204.137C56.5693 204.137 57.1153 204.774 57.1153 205.97V207.322C57.1153 208.518 56.5693 209.155 55.6463 209.155Z" fill="white"/>
</g>
</svg>
