<svg xmlns="http://www.w3.org/2000/svg" width="181" height="220" fill="none" viewBox="0 0 181 220">
    <path fill="#fff" d="M181 0H0v220h181V0z"/>
    <path fill="#7CB4D0" d="M174.027 7.05H7.662v203.915h166.365V7.051z" opacity=".4"/>
    <path fill="#BCDEEA" d="M174.027 7.05H7.662v203.915h166.365V7.051z" opacity=".1"/>
    <path fill="#7CB4D0" d="M7.662 7.05L0 0v220l7.662-9.036V7.05zM174.027 210.964l6.972 9.036V0l-6.972 7.05v203.914z" opacity=".5"/>
    <path fill="#7CB4D0" d="M181 0H0v220h181V0z" opacity=".4"/>
    <path fill="#7CB4D0" d="M174.028 210.896H7.662L0 220h181l-6.972-9.104z" opacity=".8"/>
    <path fill="#3E6E7A" d="M42.876 27.082h19.073v-10.61H42.876v10.61z" opacity=".2"/>
    <path fill="#3E6E7A" d="M42.876 27.082h19.073v-10.61H42.876v10.61z" opacity=".2"/>
    <path fill="#3E6E7A" d="M39.648 25.9h23.766V15.222H39.648V25.9z" opacity=".2"/>
    <path fill="#3E6E7A" d="M61.924 27.063l1.514-1.164V15.22l-1.514 1.163v10.679zM42.849 16.384l-3.18-1.163v10.678l3.18 1.164V16.384z" opacity=".2"/>
    <path fill="#fff" d="M39.67 24.736v1.095l3.179 1.233h19.073l1.514-1.233v-1.095H39.67z" opacity=".5"/>
    <path fill="#3E6E7A" d="M16.329 27.082h19.073v-10.61H16.33v10.61z" opacity=".2"/>
    <path fill="#3E6E7A" d="M16.329 27.082h19.073v-10.61H16.33v10.61z" opacity=".2"/>
    <path fill="#3E6E7A" d="M13.1 25.9h23.767V15.222H13.101V25.9z" opacity=".2"/>
    <path fill="#3E6E7A" d="M35.377 27.063l1.514-1.164V15.22l-1.514 1.163v10.679zM16.302 16.384l-3.179-1.163v10.678l3.179 1.164V16.384z" opacity=".2"/>
    <path fill="#fff" d="M13.123 24.736v1.095l3.179 1.233h19.074l1.513-1.233v-1.095H13.123z" opacity=".5"/>
    <path fill="#3E6E7A" d="M69.426 27.082h19.091v-10.61H69.426v10.61z" opacity=".2"/>
    <path fill="#3E6E7A" d="M69.426 27.082h19.091v-10.61H69.426v10.61z" opacity=".2"/>
    <path fill="#3E6E7A" d="M66.196 25.9h23.788V15.222H66.196V25.9z" opacity=".2"/>
    <path fill="#3E6E7A" d="M88.527 27.063l1.44-1.164V15.22l-1.44 1.163v10.679zM69.438 16.384l-3.182-1.163v10.678l3.182 1.164V16.384z" opacity=".2"/>
    <path fill="#fff" d="M66.254 24.736v1.095l3.182 1.233h19.091l1.44-1.233v-1.095H66.254z" opacity=".5"/>
    <path fill="#3E6E7A" d="M166.441 16.385h-19.092v10.61h19.092v-10.61z" opacity=".2"/>
    <path fill="#3E6E7A" d="M166.441 16.385h-19.092v10.61h19.092v-10.61z" opacity=".2"/>
    <path fill="#3E6E7A" d="M169.622 15.22h-23.788V25.9h23.788V15.22z" opacity=".2"/>
    <path fill="#3E6E7A" d="M147.349 26.994l-1.515-1.163V15.22l1.515 1.163v10.61zM166.365 16.384l3.258-1.163v10.61l-3.258 1.163v-10.61z" opacity=".2"/>
    <path fill="#fff" d="M169.622 24.666v1.164l-3.257 1.163h-19.016l-1.515-1.163v-1.164h23.788z" opacity=".5"/>
    <path fill="#3E6E7A" d="M139.896 16.385h-19.092v10.61h19.092v-10.61z" opacity=".2"/>
    <path fill="#3E6E7A" d="M139.896 16.385h-19.092v10.61h19.092v-10.61z" opacity=".2"/>
    <path fill="#3E6E7A" d="M143.077 15.22h-23.788V25.9h23.788V15.22z" opacity=".2"/>
    <path fill="#3E6E7A" d="M120.804 26.994l-1.515-1.163V15.22l1.515 1.163v10.61zM139.896 16.384l3.182-1.163v10.61l-3.182 1.163v-10.61z" opacity=".2"/>
    <path fill="#fff" d="M143.077 24.666v1.164l-3.182 1.163h-19.091l-1.515-1.163v-1.164h23.788z" opacity=".5"/>
    <path fill="#3E6E7A" d="M113.273 16.385H94.182v10.61h19.091v-10.61z" opacity=".2"/>
    <path fill="#3E6E7A" d="M113.273 16.385H94.182v10.61h19.091v-10.61z" opacity=".2"/>
    <path fill="#3E6E7A" d="M116.531 15.22H92.742V25.9h23.789V15.22z" opacity=".2"/>
    <path fill="#3E6E7A" d="M94.181 26.994l-1.439-1.163V15.22l1.44 1.163v10.61zM113.273 16.384l3.182-1.163v10.61l-3.182 1.163v-10.61z" opacity=".2"/>
    <path fill="#fff" d="M116.455 24.666v1.164l-3.182 1.163H94.182l-1.44-1.163v-1.164h23.713z" opacity=".5"/>
    <path fill="#003E6B" d="M13.123 31.453h23.789v5.535H13.123zM13.123 45.98h23.789v5.535H13.123zM13.123 58.586h23.789v5.535H13.123zM13.123 69.654h23.789v5.535H13.123zM13.123 80.725h23.789v5.535H13.123zM13.123 97.328h23.789v5.535H13.123zM13.123 121.195h23.789v5.535H13.123zM13.123 133.303h23.789v5.535H13.123zM13.123 160.283h23.789v5.535H13.123zM13.123 191.07h23.789v5.535H13.123zM39.648 32.17h23.79v5.535h-23.79zM39.648 58h23.79v5.535h-23.79zM39.648 69.799h23.79v5.535h-23.79zM92.742 32h23.789v5.535H92.742zM146 35h24v25h-24zM145.836 64h23.789v5.535h-23.789zM119.289 70h23.789v5.535h-23.789zM119.289 191.98h23.789v5.535h-23.789zM92.742 66h23.789v5.535H92.742zM92.742 74h23.789v5.535H92.742zM66.195 67h23.79v5.535h-23.79zM66.195 165h23.79v5.535h-23.79z"/>
    <path fill="#fff" d="M15.265 35.628h1.892v-.373h-.749v-2.684h-.376c-.202.26-.47.377-.856.39v.352c.3-.01.587-.046.838-.22v2.162h-.749v.373zM18.75 35.682c.682 0 1.05-.355 1.05-1.016v-1.133c0-.661-.368-1.017-1.05-1.017-.68 0-1.048.356-1.048 1.017v1.133c0 .661.367 1.016 1.048 1.016zm0-.36c-.439 0-.654-.224-.654-.683v-1.08c0-.458.215-.683.654-.683.44 0 .655.225.655.684v1.079c0 .459-.215.684-.655.684zM22.628 35.682c.681 0 1.049-.355 1.049-1.016v-1.133c0-.661-.367-1.017-1.049-1.017-.681 0-1.049.356-1.049 1.017v1.133c0 .661.368 1.016 1.05 1.016zm0-.36c-.439 0-.654-.224-.654-.683v-1.08c0-.458.215-.683.654-.683.44 0 .655.225.655.684v1.079c0 .459-.216.684-.655.684zM25.324 35.682c.682 0 1.05-.355 1.05-1.016v-1.133c0-.661-.368-1.017-1.05-1.017-.68 0-1.048.356-1.048 1.017v1.133c0 .661.367 1.016 1.048 1.016zm0-.36c-.439 0-.654-.224-.654-.683v-1.08c0-.458.215-.683.654-.683.44 0 .655.225.655.684v1.079c0 .459-.215.684-.655.684zM28.02 35.682c.682 0 1.05-.355 1.05-1.016v-1.133c0-.661-.368-1.017-1.05-1.017-.68 0-1.048.356-1.048 1.017v1.133c0 .661.367 1.016 1.048 1.016zm0-.36c-.439 0-.654-.224-.654-.683v-1.08c0-.458.215-.683.654-.683.44 0 .655.225.655.684v1.079c0 .459-.215.684-.655.684zM32.05 35.682c.539 0 .852-.333.852-.967v-.494c0-.634-.313-.967-.851-.967a.862.862 0 0 0-.735.36v-1.268h-.395v3.282h.337l.013-.368c.197.292.444.422.78.422zm-.048-.346c-.292 0-.534-.193-.686-.526v-.684c.152-.332.39-.526.686-.526.318 0 .506.22.506.634v.468c0 .414-.188.634-.507.634zM33.53 36.447h.394v-1.124c.189.247.426.36.735.36.538 0 .852-.334.852-.968v-.494c0-.634-.314-.967-.852-.967-.336 0-.582.13-.78.423l-.013-.369h-.336v3.139zm1.08-1.11c-.296 0-.533-.194-.686-.527v-.684c.153-.332.39-.526.686-.526.318 0 .507.22.507.634v.468c0 .414-.189.634-.507.634zM17.453 50.38c.73 0 1.125-.31 1.125-.877 0-.383-.18-.639-.524-.76v-.01c.291-.112.439-.341.439-.674 0-.535-.381-.845-1.035-.845-.655 0-1.04.31-1.04.845 0 .333.148.562.434.675v.009c-.345.117-.524.377-.524.76 0 .566.395.877 1.125.877zm0-1.8c-.421 0-.645-.175-.645-.498 0-.333.237-.508.645-.508.417 0 .65.18.65.508 0 .323-.229.499-.65.499zm0 1.44c-.484 0-.73-.185-.73-.54 0-.355.246-.54.73-.54s.73.185.73.54c0 .355-.246.54-.73.54zM20.15 50.38c.68 0 1.048-.356 1.048-1.017V48.23c0-.661-.368-1.016-1.049-1.016-.681 0-1.049.355-1.049 1.016v1.133c0 .661.368 1.017 1.05 1.017zm0-.36c-.44 0-.655-.225-.655-.684v-1.079c0-.459.215-.683.654-.683.44 0 .655.224.655.683v1.08c0 .458-.216.683-.655.683zM22.845 50.38c.682 0 1.05-.356 1.05-1.017V48.23c0-.661-.368-1.016-1.05-1.016-.68 0-1.048.355-1.048 1.016v1.133c0 .661.367 1.017 1.048 1.017zm0-.36c-.439 0-.654-.225-.654-.684v-1.079c0-.459.215-.683.654-.683.44 0 .655.224.655.683v1.08c0 .458-.215.683-.655.683zM25.541 50.38c.682 0 1.05-.356 1.05-1.017V48.23c0-.661-.368-1.016-1.05-1.016-.68 0-1.048.355-1.048 1.016v1.133c0 .661.367 1.017 1.049 1.017zm0-.36c-.439 0-.654-.225-.654-.684v-1.079c0-.459.215-.683.654-.683.44 0 .655.224.655.683v1.08c0 .458-.215.683-.655.683zM29.572 50.38c.538 0 .851-.333.851-.967v-.495c0-.634-.313-.967-.851-.967a.863.863 0 0 0-.735.36v-1.268h-.395v3.283h.337l.013-.37c.197.293.444.424.78.424zm-.05-.347c-.29 0-.533-.193-.685-.526v-.683c.152-.333.39-.526.686-.526.318 0 .506.22.506.634v.467c0 .414-.188.634-.506.634zM31.05 51.144h.395V50.02c.189.247.426.36.735.36.538 0 .852-.333.852-.967v-.495c0-.634-.314-.967-.852-.967-.336 0-.582.13-.78.423l-.013-.369h-.336v3.139zm1.081-1.11c-.296 0-.533-.194-.686-.527v-.683c.153-.333.39-.526.686-.526.318 0 .507.22.507.634v.467c0 .414-.189.634-.507.634zM17.748 63.008c.69 0 1.05-.364 1.05-1.02 0-.639-.342-.976-.933-.976-.336 0-.6.108-.789.328v-.432c0-.472.224-.706.686-.706.376 0 .582.158.61.468h.385c-.023-.54-.372-.827-1-.827-.699 0-1.075.364-1.075 1.043v1.084c0 .683.385 1.038 1.066 1.038zm0-.36c-.439 0-.672-.224-.672-.687v-.104c.13-.324.372-.485.717-.485.404 0 .605.215.605.625 0 .422-.21.652-.65.652zM20.404 63.008c.681 0 1.049-.355 1.049-1.016V60.86c0-.661-.368-1.016-1.049-1.016-.681 0-1.049.355-1.049 1.016v1.133c0 .661.368 1.016 1.05 1.016zm0-.36c-.44 0-.654-.224-.654-.683v-1.08c0-.458.215-.683.654-.683.44 0 .654.225.654.684v1.08c0 .458-.215.683-.654.683zM23.1 63.008c.681 0 1.049-.355 1.049-1.016V60.86c0-.661-.367-1.016-1.049-1.016-.681 0-1.049.355-1.049 1.016v1.133c0 .661.368 1.016 1.05 1.016zm0-.36c-.439 0-.654-.224-.654-.683v-1.08c0-.458.215-.683.654-.683.44 0 .655.225.655.684v1.08c0 .458-.215.683-.655.683zM25.796 63.008c.682 0 1.05-.355 1.05-1.016V60.86c0-.661-.368-1.016-1.05-1.016-.68 0-1.048.355-1.048 1.016v1.133c0 .661.367 1.016 1.048 1.016zm0-.36c-.439 0-.654-.224-.654-.683v-1.08c0-.458.215-.683.654-.683.44 0 .655.225.655.684v1.08c0 .458-.215.683-.655.683zM29.827 63.008c.537 0 .851-.332.851-.966v-.495c0-.634-.314-.967-.851-.967a.863.863 0 0 0-.735.36v-1.268h-.395v3.283h.336l.014-.37c.197.293.444.423.78.423zm-.05-.346c-.291 0-.533-.193-.685-.526v-.684c.152-.332.39-.526.685-.526.319 0 .507.22.507.634v.468c0 .414-.188.634-.507.634zM31.306 63.773h.394v-1.124c.189.247.426.36.735.36.538 0 .852-.333.852-.967v-.495c0-.634-.314-.967-.852-.967-.336 0-.582.13-.78.423l-.013-.369h-.336v3.139zm1.08-1.11c-.296 0-.533-.194-.686-.527v-.684c.153-.332.39-.526.686-.526.318 0 .506.22.506.634v.468c0 .414-.188.634-.506.634zM17.759 74.053c.699 0 1.093-.341 1.093-1.034 0-.657-.358-1.016-.977-1.016-.273 0-.497.072-.676.216l.058-.904h1.456v-.373h-1.81l-.103 1.654h.363a.895.895 0 0 1 .623-.234c.43 0 .672.23.672.666 0 .445-.25.666-.704.666-.408 0-.654-.18-.667-.486H16.7c.01.526.381.845 1.058.845zM20.45 74.053c.682 0 1.05-.355 1.05-1.016v-1.133c0-.661-.368-1.016-1.05-1.016-.68 0-1.048.355-1.048 1.016v1.133c0 .661.367 1.016 1.049 1.016zm0-.36c-.439 0-.654-.224-.654-.683v-1.08c0-.458.215-.683.655-.683.439 0 .654.225.654.684v1.08c0 .458-.215.683-.654.683zM23.147 74.053c.68 0 1.048-.355 1.048-1.016v-1.133c0-.661-.367-1.016-1.048-1.016-.682 0-1.05.355-1.05 1.016v1.133c0 .661.368 1.016 1.05 1.016zm0-.36c-.44 0-.655-.224-.655-.683v-1.08c0-.458.215-.683.655-.683.439 0 .654.225.654.684v1.08c0 .458-.215.683-.654.683zM25.843 74.053c.681 0 1.049-.355 1.049-1.016v-1.133c0-.661-.368-1.016-1.05-1.016-.68 0-1.048.355-1.048 1.016v1.133c0 .661.368 1.016 1.049 1.016zm0-.36c-.44 0-.654-.224-.654-.683v-1.08c0-.458.215-.683.654-.683.439 0 .654.225.654.684v1.08c0 .458-.215.683-.654.683zM29.873 74.053c.538 0 .852-.332.852-.966v-.495c0-.634-.314-.967-.852-.967a.862.862 0 0 0-.735.36v-1.268h-.394v3.282h.336l.013-.368c.197.292.444.422.78.422zm-.05-.346c-.29 0-.533-.193-.685-.526v-.684c.152-.332.39-.526.686-.526.318 0 .506.22.506.634v.468c0 .414-.188.634-.506.634zM31.352 74.818h.395v-1.124c.188.247.425.36.735.36.538 0 .851-.333.851-.968v-.494c0-.634-.313-.967-.851-.967-.336 0-.583.13-.78.423l-.014-.369h-.336v3.139zm1.08-1.11c-.295 0-.533-.194-.685-.527v-.684c.152-.332.39-.526.685-.526.319 0 .507.22.507.634v.468c0 .414-.188.634-.507.634zM17.871 85.044h.395v-.701h.358v-.36h-.358v-1.997h-.448l-1.515 1.974v.383h1.568v.701zm-1.125-1.061l1.125-1.484v1.484h-1.125zM20.15 85.098c.682 0 1.05-.355 1.05-1.016v-1.133c0-.661-.368-1.016-1.05-1.016-.68 0-1.048.355-1.048 1.016v1.133c0 .661.367 1.016 1.049 1.016zm0-.36c-.438 0-.654-.224-.654-.683v-1.08c0-.458.216-.683.655-.683.439 0 .654.225.654.684v1.079c0 .459-.215.683-.654.683zM22.847 85.098c.681 0 1.049-.355 1.049-1.016v-1.133c0-.661-.368-1.016-1.05-1.016-.68 0-1.048.355-1.048 1.016v1.133c0 .661.368 1.016 1.049 1.016zm0-.36c-.44 0-.655-.224-.655-.683v-1.08c0-.458.216-.683.655-.683.44 0 .654.225.654.684v1.079c0 .459-.215.683-.654.683zM25.543 85.098c.681 0 1.049-.355 1.049-1.016v-1.133c0-.661-.368-1.016-1.049-1.016-.681 0-1.049.355-1.049 1.016v1.133c0 .661.368 1.016 1.049 1.016zm0-.36c-.44 0-.654-.224-.654-.683v-1.08c0-.458.215-.683.654-.683.44 0 .654.225.654.684v1.079c0 .459-.215.683-.654.683zM29.573 85.098c.538 0 .852-.332.852-.967v-.494c0-.634-.314-.967-.852-.967a.863.863 0 0 0-.735.36v-1.268h-.394v3.282h.336l.013-.368c.198.292.444.422.78.422zm-.049-.346c-.291 0-.533-.193-.686-.526v-.684c.153-.332.39-.526.686-.526.318 0 .506.22.506.634v.468c0 .414-.188.634-.506.634zM31.052 85.863h.395v-1.124c.188.247.426.36.735.36.538 0 .851-.334.851-.968v-.494c0-.634-.313-.967-.851-.967-.336 0-.583.13-.78.423l-.013-.37h-.337v3.14zm1.08-1.111c-.295 0-.533-.193-.685-.526v-.684c.152-.332.39-.526.686-.526.318 0 .506.22.506.634v.468c0 .414-.188.634-.506.634zM16.47 125.566h2.094v-.374H16.86c.017-.328.22-.526.78-.777.676-.306.932-.603.932-1.089 0-.535-.35-.872-1.013-.872-.663 0-1.044.328-1.044.931v.103h.385v-.063c0-.409.229-.611.654-.611.422 0 .623.202.623.521 0 .32-.188.522-.726.769-.712.328-.981.666-.981 1.232v.23zM20.216 125.62c.68 0 1.048-.356 1.048-1.017v-1.133c0-.661-.367-1.016-1.048-1.016-.682 0-1.05.355-1.05 1.016v1.133c0 .661.368 1.017 1.05 1.017zm0-.36c-.44 0-.655-.225-.655-.684v-1.079c0-.459.215-.683.655-.683.439 0 .654.224.654.683v1.079c0 .459-.215.684-.654.684zM22.912 125.62c.681 0 1.049-.356 1.049-1.017v-1.133c0-.661-.368-1.016-1.05-1.016-.68 0-1.048.355-1.048 1.016v1.133c0 .661.367 1.017 1.049 1.017zm0-.36c-.44 0-.655-.225-.655-.684v-1.079c0-.459.215-.683.655-.683.439 0 .654.224.654.683v1.079c0 .459-.215.684-.654.684zM25.608 125.62c.681 0 1.049-.356 1.049-1.017v-1.133c0-.661-.368-1.016-1.05-1.016-.68 0-1.048.355-1.048 1.016v1.133c0 .661.368 1.017 1.049 1.017zm0-.36c-.44 0-.655-.225-.655-.684v-1.079c0-.459.216-.683.655-.683.44 0 .654.224.654.683v1.079c0 .459-.215.684-.654.684zM29.638 125.62c.538 0 .852-.333.852-.967v-.495c0-.634-.314-.967-.852-.967a.863.863 0 0 0-.735.36v-1.268h-.394v3.283h.336l.013-.369c.197.292.444.423.78.423zm-.05-.347c-.29 0-.533-.193-.685-.526v-.683c.152-.333.39-.526.686-.526.318 0 .506.22.506.634v.467c0 .414-.188.634-.506.634zM31.117 126.384h.395v-1.124c.188.247.425.36.735.36.538 0 .851-.333.851-.967v-.495c0-.634-.313-.967-.851-.967-.336 0-.583.131-.78.423l-.014-.369h-.336v3.139zm1.08-1.111c-.295 0-.533-.193-.685-.526v-.683c.152-.333.39-.526.685-.526.319 0 .507.22.507.634v.467c0 .414-.188.634-.507.634zM17.074 137.673h1.891v-.373h-.748v-2.685h-.377c-.201.261-.47.378-.856.391v.351c.3-.009.587-.045.838-.22v2.163h-.748v.373zM20.563 137.727c.7 0 1.094-.342 1.094-1.034 0-.657-.358-1.017-.977-1.017-.273 0-.497.072-.677.216l.058-.904h1.457v-.373h-1.81l-.104 1.655h.363a.897.897 0 0 1 .623-.234c.43 0 .673.23.673.666 0 .445-.251.665-.704.665-.408 0-.654-.18-.668-.485h-.385c.009.526.38.845 1.057.845zM23.255 137.727c.681 0 1.049-.355 1.049-1.016v-1.133c0-.661-.368-1.017-1.049-1.017-.681 0-1.049.356-1.049 1.017v1.133c0 .661.368 1.016 1.05 1.016zm0-.36c-.44 0-.654-.225-.654-.683v-1.079c0-.459.215-.684.654-.684.44 0 .654.225.654.684v1.079c0 .458-.215.683-.654.683zM25.951 137.727c.681 0 1.049-.355 1.049-1.016v-1.133c0-.661-.367-1.017-1.049-1.017-.681 0-1.049.356-1.049 1.017v1.133c0 .661.368 1.016 1.05 1.016zm0-.36c-.439 0-.654-.225-.654-.683v-1.079c0-.459.215-.684.654-.684.44 0 .655.225.655.684v1.079c0 .458-.216.683-.655.683zM29.982 137.727c.537 0 .851-.333.851-.967v-.494c0-.634-.314-.967-.851-.967a.86.86 0 0 0-.735.36v-1.269h-.395v3.283h.336l.014-.369c.197.293.443.423.78.423zm-.05-.346c-.291 0-.533-.194-.685-.526v-.684c.152-.333.39-.526.685-.526.318 0 .507.22.507.634v.468c0 .413-.189.634-.507.634zM31.46 138.492h.395v-1.125a.86.86 0 0 0 .735.36c.538 0 .852-.333.852-.967v-.494c0-.634-.314-.967-.852-.967-.336 0-.583.13-.78.422l-.013-.368h-.336v3.139zm1.08-1.111c-.295 0-.532-.194-.685-.526v-.684c.152-.333.39-.526.686-.526.318 0 .506.22.506.634v.468c0 .413-.188.634-.506.634zM17.074 164.654h1.891v-.374h-.748v-2.684h-.377c-.201.26-.47.377-.856.391v.351c.3-.009.587-.045.838-.221v2.163h-.748v.374zM20.559 164.707c.681 0 1.049-.355 1.049-1.016v-1.133c0-.661-.368-1.016-1.05-1.016-.68 0-1.048.355-1.048 1.016v1.133c0 .661.368 1.016 1.049 1.016zm0-.359c-.44 0-.654-.225-.654-.684v-1.079c0-.459.215-.684.654-.684.44 0 .654.225.654.684v1.079c0 .459-.215.684-.654.684zM23.255 164.707c.681 0 1.049-.355 1.049-1.016v-1.133c0-.661-.368-1.016-1.049-1.016-.681 0-1.049.355-1.049 1.016v1.133c0 .661.368 1.016 1.05 1.016zm0-.359c-.44 0-.654-.225-.654-.684v-1.079c0-.459.215-.684.654-.684.44 0 .654.225.654.684v1.079c0 .459-.215.684-.654.684zM25.951 164.707c.681 0 1.049-.355 1.049-1.016v-1.133c0-.661-.367-1.016-1.049-1.016-.681 0-1.049.355-1.049 1.016v1.133c0 .661.368 1.016 1.05 1.016zm0-.359c-.439 0-.654-.225-.654-.684v-1.079c0-.459.215-.684.654-.684.44 0 .655.225.655.684v1.079c0 .459-.216.684-.655.684zM29.982 164.707c.537 0 .851-.332.851-.966v-.495c0-.634-.314-.967-.851-.967a.863.863 0 0 0-.735.36v-1.268h-.395v3.283h.336l.014-.369c.197.292.443.422.78.422zm-.05-.346c-.291 0-.533-.193-.685-.526v-.683c.152-.333.39-.527.685-.527.318 0 .507.221.507.634v.468c0 .414-.189.634-.507.634zM31.46 165.472h.395v-1.124a.862.862 0 0 0 .735.359c.538 0 .852-.332.852-.966v-.495c0-.634-.314-.967-.852-.967-.336 0-.583.131-.78.423l-.013-.369h-.336v3.139zm1.08-1.111c-.295 0-.532-.193-.685-.526v-.683c.152-.333.39-.527.686-.527.318 0 .506.221.506.634v.468c0 .414-.188.634-.506.634zM19.185 195.493c.699 0 1.093-.342 1.093-1.035 0-.656-.358-1.016-.977-1.016-.273 0-.497.072-.677.216l.059-.904h1.456v-.373h-1.81l-.104 1.655h.364a.892.892 0 0 1 .623-.234c.43 0 .672.229.672.665 0 .446-.251.666-.704.666-.408 0-.654-.18-.668-.486h-.385c.009.526.38.846 1.058.846zM21.876 195.493c.682 0 1.05-.356 1.05-1.017v-1.133c0-.661-.368-1.016-1.05-1.016-.68 0-1.049.355-1.049 1.016v1.133c0 .661.368 1.017 1.05 1.017zm0-.36c-.439 0-.654-.225-.654-.684v-1.079c0-.459.215-.683.654-.683.44 0 .655.224.655.683v1.079c0 .459-.215.684-.655.684zM24.573 195.493c.68 0 1.048-.356 1.048-1.017v-1.133c0-.661-.367-1.016-1.048-1.016-.682 0-1.05.355-1.05 1.016v1.133c0 .661.368 1.017 1.05 1.017zm0-.36c-.44 0-.655-.225-.655-.684v-1.079c0-.459.215-.683.655-.683.439 0 .654.224.654.683v1.079c0 .459-.215.684-.654.684zM28.603 195.493c.538 0 .851-.333.851-.967v-.495c0-.634-.313-.967-.851-.967a.863.863 0 0 0-.735.36v-1.268h-.395v3.283h.336l.014-.369c.197.292.444.423.78.423zm-.05-.347c-.29 0-.533-.193-.685-.526v-.683c.152-.333.39-.526.685-.526.319 0 .507.22.507.634v.467c0 .414-.188.634-.507.634zM30.082 196.257h.394v-1.124c.189.247.426.36.735.36.538 0 .852-.333.852-.967v-.495c0-.634-.314-.967-.852-.967-.336 0-.582.131-.78.423l-.013-.369h-.336v3.139zm1.08-1.111c-.296 0-.533-.193-.686-.526v-.683c.153-.333.39-.526.686-.526.318 0 .507.22.507.634v.467c0 .414-.189.634-.507.634zM17.878 101.751c.69 0 1.071-.293 1.071-.891 0-.387-.157-.634-.489-.746v-.009c.274-.117.413-.347.413-.68 0-.539-.363-.84-.99-.84-.655 0-1.032.324-1.032.886v.067h.381v-.04c0-.356.224-.553.637-.553.394 0 .614.18.614.517 0 .328-.21.494-.61.494h-.34v.36h.336c.47 0 .686.18.686.531 0 .373-.242.544-.677.544-.457 0-.686-.189-.686-.558v-.058h-.385v.112c0 .562.372.864 1.07.864zM20.56 101.751c.682 0 1.05-.356 1.05-1.017v-1.133c0-.661-.368-1.016-1.05-1.016-.68 0-1.048.355-1.048 1.016v1.133c0 .661.367 1.017 1.049 1.017zm0-.36c-.439 0-.654-.225-.654-.684v-1.079c0-.459.215-.683.655-.683.439 0 .654.224.654.683v1.079c0 .459-.215.684-.654.684zM23.257 101.751c.68 0 1.048-.356 1.048-1.017v-1.133c0-.661-.367-1.016-1.048-1.016-.682 0-1.05.355-1.05 1.016v1.133c0 .661.368 1.017 1.05 1.017zm0-.36c-.44 0-.655-.225-.655-.684v-1.079c0-.459.215-.683.655-.683.439 0 .654.224.654.683v1.079c0 .459-.215.684-.654.684zM25.953 101.751c.681 0 1.049-.356 1.049-1.017v-1.133c0-.661-.368-1.016-1.05-1.016-.68 0-1.048.355-1.048 1.016v1.133c0 .661.367 1.017 1.049 1.017zm0-.36c-.44 0-.655-.225-.655-.684v-1.079c0-.459.216-.683.655-.683.439 0 .654.224.654.683v1.079c0 .459-.215.684-.654.684zM29.983 101.751c.538 0 .852-.333.852-.967v-.495c0-.634-.314-.967-.852-.967a.862.862 0 0 0-.735.36v-1.268h-.394v3.283h.336l.013-.369c.197.292.444.423.78.423zm-.05-.347c-.29 0-.533-.193-.685-.526v-.683c.152-.333.39-.526.686-.526.318 0 .506.22.506.634v.467c0 .414-.188.634-.506.634zM31.462 102.515h.395v-1.124c.188.247.425.36.735.36.538 0 .851-.333.851-.967v-.495c0-.634-.313-.967-.851-.967-.337 0-.583.13-.78.423l-.014-.369h-.336v3.139zm1.08-1.111c-.296 0-.533-.193-.685-.526v-.683c.152-.333.39-.526.685-.526.319 0 .507.22.507.634v.467c0 .414-.188.634-.507.634z"/>
    <path fill="#003E6B" fill-rule="evenodd" d="M181 0H0v220h181V0zm-61 9H90v195h30V9z" clip-rule="evenodd" opacity=".4"/>
    <path stroke="#FAAC48" stroke-width="4" d="M90 11h30v191H90z"/>
</svg>
