<svg xmlns="http://www.w3.org/2000/svg" width="155" height="503" fill="none" viewBox="0 0 155 503">
    <mask id="a" width="86" height="503" x="69" y="0" maskUnits="userSpaceOnUse">
        <path fill="#C4C4C4" d="M69 0h86v503H69z"/>
    </mask>
    <g mask="url(#a)">
        <path fill="#fff" d="M333-85h-525v636h525V-85z"/>
        <path fill="#7CB4D0" d="M312.776-64.617h-482.551V524.88h482.551V-64.617z" opacity=".4"/>
        <path fill="#BCDEEA" d="M312.776-64.617h-482.551V524.88h482.551V-64.617z" opacity=".1"/>
        <path fill="#7CB4D0" d="M333-85h-525v636h525V-85z" opacity=".4"/>
        <path fill="#003E6B" d="M77 8h69v16H77z"/>
        <path fill="#fff" d="M88.276 20h1.044v-6.792L91.948 20h.78l2.616-6.768V20h1.08v-8.16h-1.608l-2.46 6.408-2.46-6.408h-1.62V20zm12.123.144c.876 0 1.548-.348 2.088-1.128l.036.984h.9v-6.192h-1.056v4.02c-.456.912-1.032 1.344-1.776 1.344s-1.104-.42-1.104-1.392v-3.972h-1.056v4.068c0 1.488.66 2.268 1.968 2.268zm5.019-.144h1.056v-8.76h-1.056V20zm4.967 0h.96v-.912h-.708c-.708 0-.888-.204-.888-1.008v-3.408h1.524v-.864h-1.524v-1.632h-.948l-.084 1.632h-1.092v.864h1.068v3.396c0 1.356.504 1.932 1.692 1.932zm2.122-7.308h1.152v-1.176h-1.152v1.176zm.048 7.308h1.056v-6.192h-1.056V20zm3.046 0h1.056v-3.996c.456-.96.972-1.368 1.632-1.368.648 0 1.008.396 1.008 1.224V20h1.056v-4.056c.456-.9.984-1.308 1.632-1.308.648 0 1.008.396 1.008 1.224V20h1.056v-4.224c0-1.368-.684-2.112-1.92-2.112-.792 0-1.428.312-1.944 1.08-.252-.708-.84-1.08-1.704-1.08-.84 0-1.452.348-1.944 1.116l-.036-.972h-.9V20zm12.724.144c1.488 0 2.412-.672 2.496-1.992h-1.02c-.072.672-.564 1.08-1.5 1.08-1.104 0-1.608-.552-1.608-1.764v-.276h4.176v-.9c0-1.704-.924-2.628-2.616-2.628-1.692 0-2.616.924-2.616 2.628v1.224c0 1.704.948 2.628 2.688 2.628zm-1.632-3.828c0-1.188.492-1.74 1.584-1.74 1.08 0 1.572.552 1.572 1.74h-3.156zm5.83 3.684h1.056v-3.564c.204-1.188.768-1.704 1.776-1.704h.312v-1.044h-.42c-.9 0-1.464.396-1.776 1.272l-.048-1.152h-.9V20z"/>
        <path fill="#003E6B" d="M154 149h69v16h-69zM154 470h69v16h-69zM77 101h69v16H77z"/>
        <path fill="#fff" d="M93.924 113h1.044v-6.576L98.952 113h1.056v-8.16h-1.044v6.204l-3.756-6.204h-1.284V113zm8.141-7.308h1.152v-1.176h-1.152v1.176zm.048 7.308h1.056v-6.192h-1.056V113zm5.315.144c1.56 0 2.424-.792 2.472-2.292h-1.02c-.072.996-.576 1.368-1.44 1.368-1.044 0-1.536-.54-1.536-1.728v-1.176c0-1.188.492-1.728 1.536-1.728.864 0 1.368.372 1.44 1.368h1.02c-.048-1.5-.912-2.292-2.472-2.292-1.68 0-2.58.912-2.58 2.628v1.224c0 1.716.9 2.628 2.58 2.628zm3.931-.144h1.056v-1.788l1.068-1.116 1.896 2.904h1.26l-2.424-3.672 2.376-2.52h-1.32l-2.856 3.048v-5.616h-1.056V113zm8.622.144c1.488 0 2.412-.672 2.496-1.992h-1.02c-.072.672-.564 1.08-1.5 1.08-1.104 0-1.608-.552-1.608-1.764v-.276h4.176v-.9c0-1.704-.924-2.628-2.616-2.628-1.692 0-2.616.924-2.616 2.628v1.224c0 1.704.948 2.628 2.688 2.628zm-1.632-3.828c0-1.188.492-1.74 1.584-1.74 1.08 0 1.572.552 1.572 1.74h-3.156zm7.81 3.828c.9 0 1.56-.348 2.088-1.128l.036.984h.9v-8.76h-1.056v3.384c-.504-.66-1.14-.96-1.968-.96-1.44 0-2.28.888-2.28 2.58v1.32c0 1.692.84 2.58 2.28 2.58zm.132-.924c-.852 0-1.356-.588-1.356-1.692v-1.248c0-1.104.504-1.692 1.356-1.692.792 0 1.428.516 1.836 1.404v1.824c-.408.888-1.044 1.404-1.836 1.404z"/>
        <path fill="#003E6B" d="M77 125h69v16H77z"/>
        <path fill="#fff" d="M82.745 137.144c1.908 0 2.868-.792 2.868-2.388 0-1.488-.744-2.16-2.712-2.412-1.38-.18-1.884-.564-1.884-1.38 0-.828.612-1.284 1.728-1.284 1.128 0 1.668.456 1.668 1.404h1.08c0-1.596-.912-2.388-2.712-2.388-1.836 0-2.832.816-2.832 2.376 0 1.404.696 2.04 2.568 2.292 1.5.204 2.028.612 2.028 1.488 0 .864-.6 1.308-1.788 1.308-1.236 0-1.872-.492-1.872-1.476h-1.08c0 1.644.996 2.46 2.94 2.46zm6.305 0c.876 0 1.548-.348 2.088-1.128l.036.984h.9v-6.192h-1.056v4.02c-.456.912-1.032 1.344-1.776 1.344s-1.104-.42-1.104-1.392v-3.972h-1.056v4.068c0 1.488.66 2.268 1.968 2.268zm5.018 2.04h1.056v-3c.504.66 1.14.96 1.968.96 1.44 0 2.28-.888 2.28-2.58v-1.32c0-1.692-.84-2.58-2.28-2.58-.9 0-1.56.348-2.088 1.128l-.036-.984h-.9v8.376zm2.892-2.964c-.792 0-1.428-.516-1.836-1.404v-1.824c.408-.888 1.044-1.404 1.836-1.404.852 0 1.356.588 1.356 1.692v1.248c0 1.104-.504 1.692-1.356 1.692zm6.469.924c1.488 0 2.412-.672 2.496-1.992h-1.02c-.072.672-.564 1.08-1.5 1.08-1.104 0-1.608-.552-1.608-1.764v-.276h4.176v-.9c0-1.704-.924-2.628-2.616-2.628-1.692 0-2.616.924-2.616 2.628v1.224c0 1.704.948 2.628 2.688 2.628zm-1.632-3.828c0-1.188.492-1.74 1.584-1.74 1.08 0 1.572.552 1.572 1.74h-3.156zm5.83 3.684h1.056v-3.564c.204-1.188.768-1.704 1.776-1.704h.312v-1.044h-.42c-.9 0-1.464.396-1.776 1.272l-.048-1.152h-.9V137zm6.545.144c1.56 0 2.424-.792 2.472-2.292h-1.02c-.072.996-.576 1.368-1.44 1.368-1.044 0-1.536-.54-1.536-1.728v-1.176c0-1.188.492-1.728 1.536-1.728.864 0 1.368.372 1.44 1.368h1.02c-.048-1.5-.912-2.292-2.472-2.292-1.68 0-2.58.912-2.58 2.628v1.224c0 1.716.9 2.628 2.58 2.628zm6.436 0c1.752 0 2.676-.936 2.676-2.736V133.4c0-1.8-.924-2.736-2.676-2.736-1.752 0-2.676.936-2.676 2.736v1.008c0 1.8.924 2.736 2.676 2.736zm0-.924c-1.092 0-1.62-.6-1.62-1.848v-.948c0-1.248.528-1.836 1.62-1.836s1.62.588 1.62 1.836v.948c0 1.248-.528 1.848-1.62 1.848zm4.303-6.528h1.152v-1.176h-1.152v1.176zm.048 7.308h1.056v-6.192h-1.056V137zm3.047 0h1.056v-8.76h-1.056V137zm5.423.144c1.488 0 2.412-.672 2.496-1.992h-1.02c-.072.672-.564 1.08-1.5 1.08-1.104 0-1.608-.552-1.608-1.764v-.276h4.176v-.9c0-1.704-.924-2.628-2.616-2.628-1.692 0-2.616.924-2.616 2.628v1.224c0 1.704.948 2.628 2.688 2.628zm-1.632-3.828c0-1.188.492-1.74 1.584-1.74 1.08 0 1.572.552 1.572 1.74h-3.156zm7.81 3.828c.9 0 1.56-.348 2.088-1.128l.036.984h.9v-8.76h-1.056v3.384c-.504-.66-1.14-.96-1.968-.96-1.44 0-2.28.888-2.28 2.58v1.32c0 1.692.84 2.58 2.28 2.58zm.132-.924c-.852 0-1.356-.588-1.356-1.692v-1.248c0-1.104.504-1.692 1.356-1.692.792 0 1.428.516 1.836 1.404v1.824c-.408.888-1.044 1.404-1.836 1.404z"/>
    </g>
    <mask id="b" width="60" height="503" x="0" y="0" maskUnits="userSpaceOnUse">
        <path fill="#C4C4C4" d="M0 0h60v503H0z"/>
    </mask>
    <g mask="url(#b)">
        <path fill="#003E6B" d="M-3.936 5.928h69v16h-69zM-3.936 47.928h69v16h-69zM-3.936 84.365h69v16h-69zM-3.936 116.365h69v16h-69zM-3.936 148.365h69v16h-69zM-3.936 196.365h69v16h-69zM-3.936 265.365h69v16h-69zM-3.936 300.365h69v16h-69zM-3.936 378.365h69v16h-69zM-3.936 467.365h69v16h-69z"/>
        <path fill="#fff" d="M2.276 18h5.486v-1.08H5.59V9.16H4.499c-.585.754-1.365 1.092-2.483 1.13v1.015c.87-.026 1.703-.13 2.43-.637v6.253h-2.17V18zM12.384 18.156c1.976 0 3.042-1.027 3.042-2.938v-3.276c0-1.911-1.066-2.938-3.042-2.938-1.976 0-3.042 1.027-3.042 2.938v3.276c0 1.91 1.066 2.938 3.042 2.938zm0-1.04c-1.274 0-1.898-.65-1.898-1.976v-3.12c0-1.326.624-1.976 1.898-1.976s1.898.65 1.898 1.976v3.12c0 1.326-.624 1.976-1.898 1.976zM23.632 18.156c1.976 0 3.042-1.027 3.042-2.938v-3.276c0-1.911-1.066-2.938-3.042-2.938-1.976 0-3.042 1.027-3.042 2.938v3.276c0 1.91 1.066 2.938 3.042 2.938zm0-1.04c-1.274 0-1.898-.65-1.898-1.976v-3.12c0-1.326.624-1.976 1.898-1.976s1.898.65 1.898 1.976v3.12c0 1.326-.624 1.976-1.898 1.976zM31.452 18.156c1.976 0 3.042-1.027 3.042-2.938v-3.276c0-1.911-1.066-2.938-3.042-2.938-1.976 0-3.042 1.027-3.042 2.938v3.276c0 1.91 1.066 2.938 3.042 2.938zm0-1.04c-1.274 0-1.898-.65-1.898-1.976v-3.12c0-1.326.624-1.976 1.898-1.976s1.898.65 1.898 1.976v3.12c0 1.326-.624 1.976-1.898 1.976zM39.273 18.156c1.976 0 3.042-1.027 3.042-2.938v-3.276c0-1.911-1.066-2.938-3.042-2.938-1.976 0-3.042 1.027-3.042 2.938v3.276c0 1.91 1.066 2.938 3.042 2.938zm0-1.04c-1.274 0-1.898-.65-1.898-1.976v-3.12c0-1.326.624-1.976 1.898-1.976s1.898.65 1.898 1.976v3.12c0 1.326-.624 1.976-1.898 1.976zM50.963 18.156c1.56 0 2.47-.962 2.47-2.795v-1.43c0-1.833-.91-2.795-2.47-2.795-.897 0-1.586.325-2.132 1.04V8.51h-1.144V18h.975l.039-1.066c.572.845 1.287 1.222 2.262 1.222zm-.143-1.001c-.845 0-1.547-.56-1.99-1.521v-1.976c.443-.962 1.132-1.521 1.99-1.521.923 0 1.469.637 1.469 1.833v1.352c0 1.196-.546 1.833-1.47 1.833zM55.253 20.366h1.144v-3.25c.546.715 1.235 1.04 2.132 1.04 1.56 0 2.47-.962 2.47-2.795v-1.43c0-1.833-.91-2.795-2.47-2.795-.975 0-1.69.377-2.262 1.222l-.039-1.066h-.975v9.074zm3.133-3.211c-.858 0-1.547-.56-1.989-1.521v-1.976c.442-.962 1.131-1.521 1.99-1.521.922 0 1.468.637 1.468 1.833v1.352c0 1.196-.546 1.833-1.469 1.833zM8.622 60.646c2.12 0 3.263-.897 3.263-2.535 0-1.105-.52-1.846-1.52-2.197v-.026c.844-.325 1.273-.988 1.273-1.95 0-1.547-1.105-2.444-3.003-2.444-1.898 0-3.016.897-3.016 2.444 0 .962.43 1.625 1.261 1.95v.026c-1 .338-1.52 1.092-1.52 2.197 0 1.638 1.143 2.535 3.262 2.535zm0-5.2c-1.222 0-1.872-.507-1.872-1.443 0-.962.69-1.469 1.872-1.469 1.21 0 1.885.52 1.885 1.469 0 .936-.663 1.443-1.885 1.443zm0 4.16c-1.404 0-2.119-.533-2.119-1.56 0-1.027.715-1.56 2.12-1.56 1.403 0 2.118.533 2.118 1.56 0 1.027-.715 1.56-2.119 1.56zM16.443 60.646c1.976 0 3.042-1.027 3.042-2.938v-3.276c0-1.911-1.066-2.938-3.042-2.938-1.976 0-3.042 1.027-3.042 2.938v3.276c0 1.911 1.066 2.938 3.042 2.938zm0-1.04c-1.274 0-1.898-.65-1.898-1.976v-3.12c0-1.326.624-1.976 1.898-1.976s1.898.65 1.898 1.976v3.12c0 1.326-.624 1.976-1.898 1.976zM24.263 60.646c1.976 0 3.042-1.027 3.042-2.938v-3.276c0-1.911-1.066-2.938-3.042-2.938-1.976 0-3.042 1.027-3.042 2.938v3.276c0 1.911 1.066 2.938 3.042 2.938zm0-1.04c-1.274 0-1.898-.65-1.898-1.976v-3.12c0-1.326.624-1.976 1.898-1.976s1.898.65 1.898 1.976v3.12c0 1.326-.624 1.976-1.898 1.976zM32.083 60.646c1.976 0 3.042-1.027 3.042-2.938v-3.276c0-1.911-1.066-2.938-3.042-2.938-1.976 0-3.042 1.027-3.042 2.938v3.276c0 1.911 1.066 2.938 3.042 2.938zm0-1.04c-1.274 0-1.898-.65-1.898-1.976v-3.12c0-1.326.624-1.976 1.898-1.976s1.898.65 1.898 1.976v3.12c0 1.326-.624 1.976-1.898 1.976zM43.773 60.646c1.56 0 2.47-.962 2.47-2.795v-1.43c0-1.833-.91-2.795-2.47-2.795-.897 0-1.586.325-2.132 1.04V51h-1.144v9.49h.975l.04-1.066c.571.845 1.286 1.222 2.261 1.222zm-.143-1.001c-.845 0-1.547-.559-1.989-1.521v-1.976c.442-.962 1.131-1.521 1.99-1.521.922 0 1.468.637 1.468 1.833v1.352c0 1.196-.546 1.833-1.469 1.833zM48.064 62.856h1.144v-3.25c.546.715 1.235 1.04 2.132 1.04 1.56 0 2.47-.962 2.47-2.795v-1.43c0-1.833-.91-2.795-2.47-2.795-.975 0-1.69.377-2.262 1.222l-.04-1.066h-.974v9.074zm3.133-3.211c-.858 0-1.547-.559-1.99-1.521v-1.976c.443-.962 1.132-1.521 1.99-1.521.923 0 1.469.637 1.469 1.833v1.352c0 1.196-.546 1.833-1.47 1.833zM9.479 97.156c2.002 0 3.042-1.053 3.042-2.951 0-1.846-.988-2.821-2.704-2.821-.975 0-1.742.312-2.288.949v-1.248c0-1.365.65-2.041 1.989-2.041 1.092 0 1.69.455 1.768 1.352h1.118c-.065-1.56-1.08-2.392-2.9-2.392-2.027 0-3.12 1.053-3.12 3.016v3.133c0 1.976 1.119 3.003 3.095 3.003zm0-1.04c-1.274 0-1.95-.65-1.95-1.99v-.298c.377-.936 1.079-1.404 2.08-1.404 1.17 0 1.755.624 1.755 1.807 0 1.222-.611 1.885-1.885 1.885zM17.182 97.156c1.976 0 3.042-1.027 3.042-2.938v-3.276c0-1.911-1.066-2.938-3.042-2.938-1.976 0-3.042 1.027-3.042 2.938v3.276c0 1.91 1.066 2.938 3.042 2.938zm0-1.04c-1.274 0-1.898-.65-1.898-1.976v-3.12c0-1.326.624-1.976 1.898-1.976s1.898.65 1.898 1.976v3.12c0 1.326-.624 1.976-1.898 1.976zM25.002 97.156c1.976 0 3.042-1.027 3.042-2.938v-3.276c0-1.911-1.066-2.938-3.042-2.938-1.976 0-3.042 1.027-3.042 2.938v3.276c0 1.91 1.066 2.938 3.042 2.938zm0-1.04c-1.274 0-1.898-.65-1.898-1.976v-3.12c0-1.326.624-1.976 1.898-1.976s1.898.65 1.898 1.976v3.12c0 1.326-.624 1.976-1.898 1.976zM32.823 97.156c1.976 0 3.042-1.027 3.042-2.938v-3.276c0-1.911-1.066-2.938-3.042-2.938-1.976 0-3.042 1.027-3.042 2.938v3.276c0 1.91 1.066 2.938 3.042 2.938zm0-1.04c-1.274 0-1.898-.65-1.898-1.976v-3.12c0-1.326.624-1.976 1.898-1.976s1.898.65 1.898 1.976v3.12c0 1.326-.624 1.976-1.898 1.976zM44.513 97.156c1.56 0 2.47-.962 2.47-2.795v-1.43c0-1.833-.91-2.795-2.47-2.795-.897 0-1.586.325-2.132 1.04V87.51h-1.144V97h.975l.039-1.066c.572.845 1.287 1.222 2.262 1.222zm-.143-1.001c-.845 0-1.547-.56-1.99-1.521v-1.976c.443-.962 1.132-1.521 1.99-1.521.923 0 1.469.637 1.469 1.833v1.352c0 1.196-.546 1.833-1.47 1.833zM48.803 99.366h1.144v-3.25c.546.715 1.235 1.04 2.132 1.04 1.56 0 2.47-.962 2.47-2.795v-1.43c0-1.833-.91-2.795-2.47-2.795-.975 0-1.69.377-2.262 1.222l-.039-1.066h-.975v9.074zm3.133-3.211c-.858 0-1.547-.56-1.989-1.521v-1.976c.442-.962 1.131-1.521 1.99-1.521.922 0 1.468.637 1.468 1.833v1.352c0 1.196-.546 1.833-1.469 1.833zM9.511 129.083c2.028 0 3.172-.988 3.172-2.99 0-1.898-1.04-2.938-2.834-2.938-.793 0-1.443.208-1.963.625l.17-2.613h4.224v-1.079H7.028l-.299 4.784h1.053a2.603 2.603 0 0 1 1.807-.677c1.248 0 1.95.664 1.95 1.925 0 1.287-.728 1.924-2.04 1.924-1.184 0-1.899-.52-1.938-1.404H6.443c.026 1.521 1.105 2.443 3.068 2.443zM17.319 129.083c1.976 0 3.042-1.027 3.042-2.938v-3.275c0-1.912-1.066-2.939-3.042-2.939-1.976 0-3.042 1.027-3.042 2.939v3.275c0 1.911 1.066 2.938 3.042 2.938zm0-1.039c-1.274 0-1.898-.651-1.898-1.977v-3.119c0-1.326.624-1.977 1.898-1.977s1.898.651 1.898 1.977v3.119c0 1.326-.624 1.977-1.898 1.977zM25.139 129.083c1.976 0 3.042-1.027 3.042-2.938v-3.275c0-1.912-1.066-2.939-3.042-2.939-1.976 0-3.042 1.027-3.042 2.939v3.275c0 1.911 1.066 2.938 3.042 2.938zm0-1.039c-1.274 0-1.898-.651-1.898-1.977v-3.119c0-1.326.624-1.977 1.898-1.977s1.898.651 1.898 1.977v3.119c0 1.326-.624 1.977-1.898 1.977zM32.96 129.083c1.975 0 3.041-1.027 3.041-2.938v-3.275c0-1.912-1.066-2.939-3.042-2.939-1.976 0-3.042 1.027-3.042 2.939v3.275c0 1.911 1.066 2.938 3.042 2.938zm0-1.039c-1.275 0-1.899-.651-1.899-1.977v-3.119c0-1.326.624-1.977 1.898-1.977s1.898.651 1.898 1.977v3.119c0 1.326-.624 1.977-1.898 1.977zM44.65 129.083c1.56 0 2.47-.961 2.47-2.794v-1.43c0-1.834-.91-2.795-2.47-2.795-.898 0-1.587.324-2.133 1.039v-3.665h-1.144v9.489h.975l.04-1.066c.571.846 1.286 1.222 2.261 1.222zm-.144-1c-.845 0-1.547-.559-1.989-1.521v-1.977c.442-.962 1.131-1.521 1.99-1.521.922 0 1.468.637 1.468 1.834v1.351c0 1.196-.546 1.834-1.469 1.834zM48.94 131.294h1.144v-3.25c.546.715 1.235 1.039 2.132 1.039 1.56 0 2.47-.961 2.47-2.794v-1.43c0-1.834-.91-2.795-2.47-2.795-.975 0-1.69.377-2.262 1.222l-.04-1.066h-.974v9.074zm3.133-3.211c-.858 0-1.547-.559-1.99-1.521v-1.977c.443-.962 1.132-1.521 1.99-1.521.923 0 1.469.637 1.469 1.834v1.351c0 1.196-.546 1.834-1.47 1.834zM9.831 160.855h1.144v-2.028h1.04v-1.04h-1.04v-5.772h-1.3l-4.394 5.707v1.105h4.55v2.028zm-3.263-3.068l3.263-4.29v4.29H6.568zM16.443 161.011c1.976 0 3.042-1.027 3.042-2.938v-3.276c0-1.911-1.066-2.938-3.042-2.938-1.976 0-3.042 1.027-3.042 2.938v3.276c0 1.911 1.066 2.938 3.042 2.938zm0-1.04c-1.274 0-1.898-.65-1.898-1.976v-3.12c0-1.326.624-1.976 1.898-1.976s1.898.65 1.898 1.976v3.12c0 1.326-.624 1.976-1.898 1.976zM24.263 161.011c1.976 0 3.042-1.027 3.042-2.938v-3.276c0-1.911-1.066-2.938-3.042-2.938-1.976 0-3.042 1.027-3.042 2.938v3.276c0 1.911 1.066 2.938 3.042 2.938zm0-1.04c-1.274 0-1.898-.65-1.898-1.976v-3.12c0-1.326.624-1.976 1.898-1.976s1.898.65 1.898 1.976v3.12c0 1.326-.624 1.976-1.898 1.976zM32.083 161.011c1.976 0 3.042-1.027 3.042-2.938v-3.276c0-1.911-1.066-2.938-3.042-2.938-1.976 0-3.042 1.027-3.042 2.938v3.276c0 1.911 1.066 2.938 3.042 2.938zm0-1.04c-1.274 0-1.898-.65-1.898-1.976v-3.12c0-1.326.624-1.976 1.898-1.976s1.898.65 1.898 1.976v3.12c0 1.326-.624 1.976-1.898 1.976zM43.773 161.011c1.56 0 2.47-.962 2.47-2.795v-1.43c0-1.833-.91-2.795-2.47-2.795-.897 0-1.586.325-2.132 1.04v-3.666h-1.144v9.49h.975l.04-1.066c.571.845 1.286 1.222 2.261 1.222zm-.143-1.001c-.845 0-1.547-.559-1.989-1.521v-1.976c.442-.962 1.131-1.521 1.99-1.521.922 0 1.468.637 1.468 1.833v1.352c0 1.196-.546 1.833-1.469 1.833zM48.064 163.221h1.144v-3.25c.546.715 1.235 1.04 2.132 1.04 1.56 0 2.47-.962 2.47-2.795v-1.43c0-1.833-.91-2.795-2.47-2.795-.975 0-1.69.377-2.262 1.222l-.04-1.066h-.974v9.074zm3.133-3.211c-.858 0-1.547-.559-1.99-1.521v-1.976c.443-.962 1.132-1.521 1.99-1.521.923 0 1.469.637 1.469 1.833v1.352c0 1.196-.546 1.833-1.47 1.833zM5.77 278h6.07v-1.079H6.9c.053-.949.638-1.521 2.263-2.249 1.963-.884 2.704-1.742 2.704-3.146 0-1.547-1.015-2.522-2.938-2.522-1.924 0-3.03.949-3.03 2.691v.299h1.119v-.182c0-1.183.663-1.768 1.898-1.768 1.221 0 1.806.585 1.806 1.508s-.545 1.508-2.105 2.223c-2.067.949-2.847 1.924-2.847 3.562V278zM16.632 278.156c1.976 0 3.042-1.027 3.042-2.938v-3.276c0-1.911-1.066-2.938-3.042-2.938-1.976 0-3.042 1.027-3.042 2.938v3.276c0 1.911 1.066 2.938 3.042 2.938zm0-1.04c-1.274 0-1.898-.65-1.898-1.976v-3.12c0-1.326.624-1.976 1.898-1.976s1.898.65 1.898 1.976v3.12c0 1.326-.624 1.976-1.898 1.976zM24.452 278.156c1.976 0 3.042-1.027 3.042-2.938v-3.276c0-1.911-1.066-2.938-3.042-2.938-1.976 0-3.042 1.027-3.042 2.938v3.276c0 1.911 1.066 2.938 3.042 2.938zm0-1.04c-1.274 0-1.898-.65-1.898-1.976v-3.12c0-1.326.624-1.976 1.898-1.976s1.898.65 1.898 1.976v3.12c0 1.326-.624 1.976-1.898 1.976zM32.273 278.156c1.975 0 3.041-1.027 3.041-2.938v-3.276c0-1.911-1.066-2.938-3.041-2.938-1.977 0-3.043 1.027-3.043 2.938v3.276c0 1.911 1.067 2.938 3.043 2.938zm0-1.04c-1.275 0-1.899-.65-1.899-1.976v-3.12c0-1.326.625-1.976 1.899-1.976 1.273 0 1.897.65 1.897 1.976v3.12c0 1.326-.623 1.976-1.898 1.976zM43.962 278.156c1.56 0 2.47-.962 2.47-2.795v-1.43c0-1.833-.91-2.795-2.47-2.795-.897 0-1.586.325-2.132 1.04v-3.666h-1.143V278h.974l.04-1.066c.572.845 1.286 1.222 2.261 1.222zm-.143-1.001c-.845 0-1.547-.559-1.989-1.521v-1.976c.443-.962 1.132-1.521 1.99-1.521.922 0 1.468.637 1.468 1.833v1.352c0 1.196-.545 1.833-1.468 1.833zM48.253 280.366h1.144v-3.25c.546.715 1.235 1.04 2.132 1.04 1.56 0 2.47-.962 2.47-2.795v-1.43c0-1.833-.91-2.795-2.47-2.795-.975 0-1.69.377-2.262 1.222l-.04-1.066h-.974v9.074zm3.133-3.211c-.858 0-1.547-.559-1.99-1.521v-1.976c.443-.962 1.132-1.521 1.99-1.521.923 0 1.469.637 1.469 1.833v1.352c0 1.196-.546 1.833-1.47 1.833zM7.524 313h5.486v-1.079h-2.171v-7.761H9.747c-.585.754-1.365 1.092-2.483 1.131v1.014c.87-.026 1.703-.13 2.43-.637v6.253h-2.17V313zM17.645 313.156c2.028 0 3.172-.988 3.172-2.99 0-1.898-1.04-2.938-2.834-2.938-.793 0-1.443.208-1.963.624l.169-2.613h4.225v-1.079h-5.252l-.299 4.784h1.053a2.602 2.602 0 0 1 1.807-.676c1.248 0 1.95.663 1.95 1.924 0 1.287-.728 1.924-2.041 1.924-1.183 0-1.898-.52-1.937-1.404h-1.118c.026 1.521 1.105 2.444 3.068 2.444zM25.452 313.156c1.976 0 3.042-1.027 3.042-2.938v-3.276c0-1.911-1.066-2.938-3.042-2.938-1.976 0-3.042 1.027-3.042 2.938v3.276c0 1.911 1.066 2.938 3.042 2.938zm0-1.04c-1.274 0-1.898-.65-1.898-1.976v-3.12c0-1.326.624-1.976 1.898-1.976s1.898.65 1.898 1.976v3.12c0 1.326-.624 1.976-1.898 1.976zM33.273 313.156c1.976 0 3.042-1.027 3.042-2.938v-3.276c0-1.911-1.066-2.938-3.042-2.938-1.976 0-3.042 1.027-3.042 2.938v3.276c0 1.911 1.066 2.938 3.042 2.938zm0-1.04c-1.274 0-1.898-.65-1.898-1.976v-3.12c0-1.326.624-1.976 1.898-1.976s1.898.65 1.898 1.976v3.12c0 1.326-.624 1.976-1.898 1.976zM44.963 313.156c1.56 0 2.47-.962 2.47-2.795v-1.43c0-1.833-.91-2.795-2.47-2.795-.897 0-1.586.325-2.132 1.04v-3.666h-1.144V313h.975l.039-1.066c.572.845 1.287 1.222 2.262 1.222zm-.143-1.001c-.845 0-1.547-.559-1.99-1.521v-1.976c.443-.962 1.132-1.521 1.99-1.521.923 0 1.469.637 1.469 1.833v1.352c0 1.196-.546 1.833-1.47 1.833zM49.253 315.366h1.144v-3.25c.546.715 1.235 1.04 2.132 1.04 1.56 0 2.47-.962 2.47-2.795v-1.43c0-1.833-.91-2.795-2.47-2.795-.975 0-1.69.377-2.262 1.222l-.039-1.066h-.975v9.074zm3.133-3.211c-.858 0-1.547-.559-1.989-1.521v-1.976c.442-.962 1.131-1.521 1.99-1.521.922 0 1.468.637 1.468 1.833v1.352c0 1.196-.546 1.833-1.469 1.833zM7.524 391h5.486v-1.079h-2.171v-7.761H9.747c-.585.754-1.365 1.092-2.483 1.131v1.014c.87-.026 1.703-.13 2.43-.637v6.253h-2.17V391zM17.632 391.156c1.976 0 3.042-1.027 3.042-2.938v-3.276c0-1.911-1.066-2.938-3.042-2.938-1.976 0-3.042 1.027-3.042 2.938v3.276c0 1.911 1.066 2.938 3.042 2.938zm0-1.04c-1.274 0-1.898-.65-1.898-1.976v-3.12c0-1.326.624-1.976 1.898-1.976s1.898.65 1.898 1.976v3.12c0 1.326-.624 1.976-1.898 1.976zM25.452 391.156c1.976 0 3.042-1.027 3.042-2.938v-3.276c0-1.911-1.066-2.938-3.042-2.938-1.976 0-3.042 1.027-3.042 2.938v3.276c0 1.911 1.066 2.938 3.042 2.938zm0-1.04c-1.274 0-1.898-.65-1.898-1.976v-3.12c0-1.326.624-1.976 1.898-1.976s1.898.65 1.898 1.976v3.12c0 1.326-.624 1.976-1.898 1.976zM33.273 391.156c1.976 0 3.042-1.027 3.042-2.938v-3.276c0-1.911-1.066-2.938-3.042-2.938-1.976 0-3.042 1.027-3.042 2.938v3.276c0 1.911 1.066 2.938 3.042 2.938zm0-1.04c-1.274 0-1.898-.65-1.898-1.976v-3.12c0-1.326.624-1.976 1.898-1.976s1.898.65 1.898 1.976v3.12c0 1.326-.624 1.976-1.898 1.976zM44.963 391.156c1.56 0 2.47-.962 2.47-2.795v-1.43c0-1.833-.91-2.795-2.47-2.795-.897 0-1.586.325-2.132 1.04v-3.666h-1.144V391h.975l.039-1.066c.572.845 1.287 1.222 2.262 1.222zm-.143-1.001c-.845 0-1.547-.559-1.99-1.521v-1.976c.443-.962 1.132-1.521 1.99-1.521.923 0 1.469.637 1.469 1.833v1.352c0 1.196-.546 1.833-1.47 1.833zM49.253 393.366h1.144v-3.25c.546.715 1.235 1.04 2.132 1.04 1.56 0 2.47-.962 2.47-2.795v-1.43c0-1.833-.91-2.795-2.47-2.795-.975 0-1.69.377-2.262 1.222l-.039-1.066h-.975v9.074zm3.133-3.211c-.858 0-1.547-.559-1.989-1.521v-1.976c.442-.962 1.131-1.521 1.99-1.521.922 0 1.468.637 1.468 1.833v1.352c0 1.196-.546 1.833-1.469 1.833zM13.644 480.156c2.028 0 3.172-.988 3.172-2.99 0-1.898-1.04-2.938-2.834-2.938-.793 0-1.443.208-1.963.624l.17-2.613h4.224v-1.079h-5.252l-.299 4.784h1.053a2.602 2.602 0 0 1 1.807-.676c1.248 0 1.95.663 1.95 1.924 0 1.287-.728 1.924-2.04 1.924-1.184 0-1.899-.52-1.938-1.404h-1.118c.026 1.521 1.105 2.444 3.068 2.444zM21.451 480.156c1.976 0 3.043-1.027 3.043-2.938v-3.276c0-1.911-1.067-2.938-3.043-2.938-1.976 0-3.041 1.027-3.041 2.938v3.276c0 1.911 1.066 2.938 3.041 2.938zm0-1.04c-1.274 0-1.898-.65-1.898-1.976v-3.12c0-1.326.624-1.976 1.898-1.976s1.898.65 1.898 1.976v3.12c0 1.326-.623 1.976-1.898 1.976zM29.272 480.156c1.976 0 3.042-1.027 3.042-2.938v-3.276c0-1.911-1.066-2.938-3.042-2.938-1.976 0-3.042 1.027-3.042 2.938v3.276c0 1.911 1.066 2.938 3.042 2.938zm0-1.04c-1.274 0-1.898-.65-1.898-1.976v-3.12c0-1.326.624-1.976 1.898-1.976s1.898.65 1.898 1.976v3.12c0 1.326-.624 1.976-1.898 1.976zM40.962 480.156c1.56 0 2.47-.962 2.47-2.795v-1.43c0-1.833-.91-2.795-2.47-2.795-.897 0-1.586.325-2.132 1.04v-3.666h-1.144V480h.975l.039-1.066c.572.845 1.287 1.222 2.262 1.222zm-.143-1.001c-.845 0-1.547-.559-1.99-1.521v-1.976c.443-.962 1.132-1.521 1.99-1.521.923 0 1.469.637 1.469 1.833v1.352c0 1.196-.546 1.833-1.47 1.833zM45.252 482.366h1.144v-3.25c.546.715 1.235 1.04 2.132 1.04 1.56 0 2.47-.962 2.47-2.795v-1.43c0-1.833-.91-2.795-2.47-2.795-.975 0-1.69.377-2.262 1.222l-.039-1.066h-.975v9.074zm3.133-3.211c-.858 0-1.547-.559-1.989-1.521v-1.976c.442-.962 1.131-1.521 1.99-1.521.922 0 1.468.637 1.468 1.833v1.352c0 1.196-.546 1.833-1.469 1.833zM9.851 209.156c2.002 0 3.107-.845 3.107-2.574 0-1.118-.455-1.833-1.417-2.158v-.026c.793-.338 1.196-1.001 1.196-1.963 0-1.56-1.053-2.431-2.873-2.431-1.898 0-2.99.936-2.99 2.561v.195H7.98v-.117c0-1.027.65-1.599 1.846-1.599 1.144 0 1.781.52 1.781 1.495 0 .949-.61 1.43-1.768 1.43H8.85v1.04h.975c1.365 0 1.99.52 1.99 1.534 0 1.079-.703 1.573-1.964 1.573-1.326 0-1.989-.546-1.989-1.612v-.169H6.744v.325c0 1.625 1.08 2.496 3.107 2.496zM17.633 209.156c1.976 0 3.041-1.027 3.041-2.938v-3.276c0-1.911-1.066-2.938-3.041-2.938-1.976 0-3.042 1.027-3.042 2.938v3.276c0 1.911 1.066 2.938 3.042 2.938zm0-1.04c-1.274 0-1.898-.65-1.898-1.976v-3.12c0-1.326.623-1.976 1.898-1.976 1.274 0 1.898.65 1.898 1.976v3.12c0 1.326-.624 1.976-1.898 1.976zM25.453 209.156c1.976 0 3.042-1.027 3.042-2.938v-3.276c0-1.911-1.066-2.938-3.042-2.938-1.976 0-3.042 1.027-3.042 2.938v3.276c0 1.911 1.066 2.938 3.042 2.938zm0-1.04c-1.274 0-1.898-.65-1.898-1.976v-3.12c0-1.326.624-1.976 1.898-1.976s1.898.65 1.898 1.976v3.12c0 1.326-.624 1.976-1.898 1.976zM33.273 209.156c1.976 0 3.042-1.027 3.042-2.938v-3.276c0-1.911-1.066-2.938-3.042-2.938-1.976 0-3.042 1.027-3.042 2.938v3.276c0 1.911 1.066 2.938 3.042 2.938zm0-1.04c-1.274 0-1.898-.65-1.898-1.976v-3.12c0-1.326.624-1.976 1.898-1.976s1.898.65 1.898 1.976v3.12c0 1.326-.624 1.976-1.898 1.976zM44.963 209.156c1.56 0 2.47-.962 2.47-2.795v-1.43c0-1.833-.91-2.795-2.47-2.795-.897 0-1.586.325-2.132 1.04v-3.666h-1.144V209h.975l.04-1.066c.571.845 1.286 1.222 2.261 1.222zm-.143-1.001c-.845 0-1.547-.559-1.989-1.521v-1.976c.442-.962 1.131-1.521 1.99-1.521.922 0 1.468.637 1.468 1.833v1.352c0 1.196-.546 1.833-1.469 1.833zM49.254 211.366h1.144v-3.25c.545.715 1.234 1.04 2.131 1.04 1.56 0 2.47-.962 2.47-2.795v-1.43c0-1.833-.91-2.795-2.47-2.795-.975 0-1.69.377-2.262 1.222l-.039-1.066h-.974v9.074zm3.133-3.211c-.858 0-1.547-.559-1.99-1.521v-1.976c.443-.962 1.132-1.521 1.99-1.521.922 0 1.468.637 1.468 1.833v1.352c0 1.196-.545 1.833-1.468 1.833z"/>
    </g>
</svg>
