<svg xmlns="http://www.w3.org/2000/svg" width="155" height="503" fill="none" viewBox="0 0 155 503">
    <mask id="a" width="86" height="503" x="69" y="0" maskUnits="userSpaceOnUse">
        <path fill="#C4C4C4" d="M69 0h86v503H69z"/>
    </mask>
    <g mask="url(#a)">
        <path fill="#fff" d="M256-85h-525v636h525V-85z"/>
        <path fill="#7CB4D0" d="M235.776-64.617h-482.551V524.88h482.551V-64.617z" opacity=".4"/>
        <path fill="#BCDEEA" d="M235.776-64.617h-482.551V524.88h482.551V-64.617z" opacity=".1"/>
        <path fill="#7CB4D0" d="M256-85h-525v636h525V-85z" opacity=".4"/>
        <path fill="#003E6B" d="M154 8h69v16h-69zM154 27h69v16h-69zM154 46h69v16h-69zM154 70h69v16h-69zM154 97h69v16h-69zM154 118h69v16h-69zM154 138h69v16h-69zM77 125h69v16H77z"/>
        <path fill="#fff" d="M93.224 137h1.056v-1.872h.96v-.96h-.96v-5.328h-1.2l-4.056 5.268v1.02h4.2V137zm-3.012-2.832l3.012-3.96v3.96h-3.012zM100.443 137h1.056v-1.872h.96v-.96h-.96v-5.328h-1.2l-4.056 5.268v1.02h4.2V137zm-3.012-2.832l3.012-3.96v3.96h-3.012zm8.983 2.976c1.872 0 2.88-.972 2.88-2.784v-2.892c0-1.824-1.032-2.772-2.856-2.772-1.848 0-2.808.972-2.808 2.724 0 1.704.912 2.604 2.496 2.604.9 0 1.608-.288 2.112-.876v1.152c0 1.26-.6 1.884-1.836 1.884-1.008 0-1.56-.42-1.632-1.248h-1.032c.06 1.44.996 2.208 2.676 2.208zm-.096-4.08c-1.08 0-1.62-.576-1.62-1.668 0-1.128.564-1.74 1.74-1.74 1.176 0 1.8.6 1.8 1.836v.276c-.348.864-.996 1.296-1.92 1.296zm7.458 4.08c1.872 0 2.928-.912 2.928-2.76 0-1.752-.96-2.712-2.616-2.712-.732 0-1.332.192-1.812.576l.156-2.412h3.9v-.996h-4.848l-.276 4.416h.972a2.402 2.402 0 0 1 1.668-.624c1.152 0 1.8.612 1.8 1.776 0 1.188-.672 1.776-1.884 1.776-1.092 0-1.752-.48-1.788-1.296h-1.032c.024 1.404 1.02 2.256 2.832 2.256zm10.779 0c1.44 0 2.28-.888 2.28-2.58v-1.32c0-1.692-.84-2.58-2.28-2.58-.828 0-1.464.3-1.968.96v-3.384h-1.056V137h.9l.036-.984c.528.78 1.188 1.128 2.088 1.128zm-.132-.924c-.78 0-1.428-.516-1.836-1.404v-1.824c.408-.888 1.044-1.404 1.836-1.404.852 0 1.356.588 1.356 1.692v1.248c0 1.104-.504 1.692-1.356 1.692zm4.093 2.964h1.056v-3c.504.66 1.14.96 1.968.96 1.44 0 2.28-.888 2.28-2.58v-1.32c0-1.692-.84-2.58-2.28-2.58-.9 0-1.56.348-2.088 1.128l-.036-.984h-.9v8.376zm2.892-2.964c-.792 0-1.428-.516-1.836-1.404v-1.824c.408-.888 1.044-1.404 1.836-1.404.852 0 1.356.588 1.356 1.692v1.248c0 1.104-.504 1.692-1.356 1.692z"/>
        <path fill="#003E6B" d="M77 470h69v16H77z"/>
        <path fill="#fff" d="M95.754 482.144c1.847 0 2.867-.78 2.867-2.376 0-1.032-.42-1.692-1.307-1.992v-.024c.732-.312 1.104-.924 1.104-1.812 0-1.44-.973-2.244-2.653-2.244-1.752 0-2.76.864-2.76 2.364v.18h1.02v-.108c0-.948.6-1.476 1.704-1.476 1.056 0 1.645.48 1.645 1.38 0 .876-.564 1.32-1.632 1.32h-.913v.96h.9c1.26 0 1.837.48 1.837 1.416 0 .996-.648 1.452-1.813 1.452-1.224 0-1.835-.504-1.835-1.488v-.156h-1.033v.3c0 1.5.996 2.304 2.868 2.304zm5.586-.144h1.128c.12-2.808 1.224-5.076 3.348-7.116v-1.044h-5.796v1.008h4.572c-2.016 1.932-3.132 4.356-3.252 7.152zm7.219 0h1.128c.12-2.808 1.224-5.076 3.348-7.116v-1.044h-5.796v1.008h4.572c-2.016 1.932-3.132 4.356-3.252 7.152zm12.387.144c1.44 0 2.28-.888 2.28-2.58v-1.32c0-1.692-.84-2.58-2.28-2.58-.828 0-1.464.3-1.968.96v-3.384h-1.056V482h.9l.036-.984c.528.78 1.188 1.128 2.088 1.128zm-.132-.924c-.78 0-1.428-.516-1.836-1.404v-1.824c.408-.888 1.044-1.404 1.836-1.404.852 0 1.356.588 1.356 1.692v1.248c0 1.104-.504 1.692-1.356 1.692zm4.092 2.964h1.056v-3c.504.66 1.14.96 1.968.96 1.44 0 2.28-.888 2.28-2.58v-1.32c0-1.692-.84-2.58-2.28-2.58-.9 0-1.56.348-2.088 1.128l-.036-.984h-.9v8.376zm2.892-2.964c-.792 0-1.428-.516-1.836-1.404v-1.824c.408-.888 1.044-1.404 1.836-1.404.852 0 1.356.588 1.356 1.692v1.248c0 1.104-.504 1.692-1.356 1.692z"/>
        <path fill="#003E6B" d="M154 469h69v16h-69zM154 380h69v16h-69zM154 301h69v16h-69z"/>
    </g>
    <mask id="b" width="60" height="503" x="0" y="0" maskUnits="userSpaceOnUse">
        <path fill="#C4C4C4" d="M0 0h60v503H0z"/>
    </mask>
    <g mask="url(#b)">
        <path fill="#003E6B" d="M-3.936 5.928h69v16h-69zM-3.936 47.928h69v16h-69zM-3.936 84.365h69v16h-69zM-3.936 116.365h69v16h-69zM-3.936 148.365h69v16h-69zM-3.936 196.365h69v16h-69zM-3.936 265.365h69v16h-69zM-3.936 300.365h69v16h-69zM-3.936 378.365h69v16h-69zM-3.936 467.365h69v16h-69z"/>
        <path fill="#fff" d="M2.276 18h5.486v-1.08H5.59V9.16H4.499c-.585.754-1.365 1.092-2.483 1.13v1.015c.87-.026 1.703-.13 2.43-.637v6.253h-2.17V18zM12.384 18.156c1.976 0 3.042-1.027 3.042-2.938v-3.276c0-1.911-1.066-2.938-3.042-2.938-1.976 0-3.042 1.027-3.042 2.938v3.276c0 1.91 1.066 2.938 3.042 2.938zm0-1.04c-1.274 0-1.898-.65-1.898-1.976v-3.12c0-1.326.624-1.976 1.898-1.976s1.898.65 1.898 1.976v3.12c0 1.326-.624 1.976-1.898 1.976zM23.632 18.156c1.976 0 3.042-1.027 3.042-2.938v-3.276c0-1.911-1.066-2.938-3.042-2.938-1.976 0-3.042 1.027-3.042 2.938v3.276c0 1.91 1.066 2.938 3.042 2.938zm0-1.04c-1.274 0-1.898-.65-1.898-1.976v-3.12c0-1.326.624-1.976 1.898-1.976s1.898.65 1.898 1.976v3.12c0 1.326-.624 1.976-1.898 1.976zM31.452 18.156c1.976 0 3.042-1.027 3.042-2.938v-3.276c0-1.911-1.066-2.938-3.042-2.938-1.976 0-3.042 1.027-3.042 2.938v3.276c0 1.91 1.066 2.938 3.042 2.938zm0-1.04c-1.274 0-1.898-.65-1.898-1.976v-3.12c0-1.326.624-1.976 1.898-1.976s1.898.65 1.898 1.976v3.12c0 1.326-.624 1.976-1.898 1.976zM39.273 18.156c1.976 0 3.042-1.027 3.042-2.938v-3.276c0-1.911-1.066-2.938-3.042-2.938-1.976 0-3.042 1.027-3.042 2.938v3.276c0 1.91 1.066 2.938 3.042 2.938zm0-1.04c-1.274 0-1.898-.65-1.898-1.976v-3.12c0-1.326.624-1.976 1.898-1.976s1.898.65 1.898 1.976v3.12c0 1.326-.624 1.976-1.898 1.976zM50.963 18.156c1.56 0 2.47-.962 2.47-2.795v-1.43c0-1.833-.91-2.795-2.47-2.795-.897 0-1.586.325-2.132 1.04V8.51h-1.144V18h.975l.039-1.066c.572.845 1.287 1.222 2.262 1.222zm-.143-1.001c-.845 0-1.547-.56-1.99-1.521v-1.976c.443-.962 1.132-1.521 1.99-1.521.923 0 1.469.637 1.469 1.833v1.352c0 1.196-.546 1.833-1.47 1.833zM55.253 20.366h1.144v-3.25c.546.715 1.235 1.04 2.132 1.04 1.56 0 2.47-.962 2.47-2.795v-1.43c0-1.833-.91-2.795-2.47-2.795-.975 0-1.69.377-2.262 1.222l-.039-1.066h-.975v9.074zm3.133-3.211c-.858 0-1.547-.56-1.989-1.521v-1.976c.442-.962 1.131-1.521 1.99-1.521.922 0 1.468.637 1.468 1.833v1.352c0 1.196-.546 1.833-1.469 1.833zM8.622 60.646c2.12 0 3.263-.897 3.263-2.535 0-1.105-.52-1.846-1.52-2.197v-.026c.844-.325 1.273-.988 1.273-1.95 0-1.547-1.105-2.444-3.003-2.444-1.898 0-3.016.897-3.016 2.444 0 .962.43 1.625 1.261 1.95v.026c-1 .338-1.52 1.092-1.52 2.197 0 1.638 1.143 2.535 3.262 2.535zm0-5.2c-1.222 0-1.872-.507-1.872-1.443 0-.962.69-1.469 1.872-1.469 1.21 0 1.885.52 1.885 1.469 0 .936-.663 1.443-1.885 1.443zm0 4.16c-1.404 0-2.119-.533-2.119-1.56 0-1.027.715-1.56 2.12-1.56 1.403 0 2.118.533 2.118 1.56 0 1.027-.715 1.56-2.119 1.56zM16.443 60.646c1.976 0 3.042-1.027 3.042-2.938v-3.276c0-1.911-1.066-2.938-3.042-2.938-1.976 0-3.042 1.027-3.042 2.938v3.276c0 1.911 1.066 2.938 3.042 2.938zm0-1.04c-1.274 0-1.898-.65-1.898-1.976v-3.12c0-1.326.624-1.976 1.898-1.976s1.898.65 1.898 1.976v3.12c0 1.326-.624 1.976-1.898 1.976zM24.263 60.646c1.976 0 3.042-1.027 3.042-2.938v-3.276c0-1.911-1.066-2.938-3.042-2.938-1.976 0-3.042 1.027-3.042 2.938v3.276c0 1.911 1.066 2.938 3.042 2.938zm0-1.04c-1.274 0-1.898-.65-1.898-1.976v-3.12c0-1.326.624-1.976 1.898-1.976s1.898.65 1.898 1.976v3.12c0 1.326-.624 1.976-1.898 1.976zM32.083 60.646c1.976 0 3.042-1.027 3.042-2.938v-3.276c0-1.911-1.066-2.938-3.042-2.938-1.976 0-3.042 1.027-3.042 2.938v3.276c0 1.911 1.066 2.938 3.042 2.938zm0-1.04c-1.274 0-1.898-.65-1.898-1.976v-3.12c0-1.326.624-1.976 1.898-1.976s1.898.65 1.898 1.976v3.12c0 1.326-.624 1.976-1.898 1.976zM43.773 60.646c1.56 0 2.47-.962 2.47-2.795v-1.43c0-1.833-.91-2.795-2.47-2.795-.897 0-1.586.325-2.132 1.04V51h-1.144v9.49h.975l.04-1.066c.571.845 1.286 1.222 2.261 1.222zm-.143-1.001c-.845 0-1.547-.559-1.989-1.521v-1.976c.442-.962 1.131-1.521 1.99-1.521.922 0 1.468.637 1.468 1.833v1.352c0 1.196-.546 1.833-1.469 1.833zM48.064 62.856h1.144v-3.25c.546.715 1.235 1.04 2.132 1.04 1.56 0 2.47-.962 2.47-2.795v-1.43c0-1.833-.91-2.795-2.47-2.795-.975 0-1.69.377-2.262 1.222l-.04-1.066h-.974v9.074zm3.133-3.211c-.858 0-1.547-.559-1.99-1.521v-1.976c.443-.962 1.132-1.521 1.99-1.521.923 0 1.469.637 1.469 1.833v1.352c0 1.196-.546 1.833-1.47 1.833zM9.479 97.156c2.002 0 3.042-1.053 3.042-2.951 0-1.846-.988-2.821-2.704-2.821-.975 0-1.742.312-2.288.949v-1.248c0-1.365.65-2.041 1.989-2.041 1.092 0 1.69.455 1.768 1.352h1.118c-.065-1.56-1.08-2.392-2.9-2.392-2.027 0-3.12 1.053-3.12 3.016v3.133c0 1.976 1.119 3.003 3.095 3.003zm0-1.04c-1.274 0-1.95-.65-1.95-1.99v-.298c.377-.936 1.079-1.404 2.08-1.404 1.17 0 1.755.624 1.755 1.807 0 1.222-.611 1.885-1.885 1.885zM17.182 97.156c1.976 0 3.042-1.027 3.042-2.938v-3.276c0-1.911-1.066-2.938-3.042-2.938-1.976 0-3.042 1.027-3.042 2.938v3.276c0 1.91 1.066 2.938 3.042 2.938zm0-1.04c-1.274 0-1.898-.65-1.898-1.976v-3.12c0-1.326.624-1.976 1.898-1.976s1.898.65 1.898 1.976v3.12c0 1.326-.624 1.976-1.898 1.976zM25.002 97.156c1.976 0 3.042-1.027 3.042-2.938v-3.276c0-1.911-1.066-2.938-3.042-2.938-1.976 0-3.042 1.027-3.042 2.938v3.276c0 1.91 1.066 2.938 3.042 2.938zm0-1.04c-1.274 0-1.898-.65-1.898-1.976v-3.12c0-1.326.624-1.976 1.898-1.976s1.898.65 1.898 1.976v3.12c0 1.326-.624 1.976-1.898 1.976zM32.823 97.156c1.976 0 3.042-1.027 3.042-2.938v-3.276c0-1.911-1.066-2.938-3.042-2.938-1.976 0-3.042 1.027-3.042 2.938v3.276c0 1.91 1.066 2.938 3.042 2.938zm0-1.04c-1.274 0-1.898-.65-1.898-1.976v-3.12c0-1.326.624-1.976 1.898-1.976s1.898.65 1.898 1.976v3.12c0 1.326-.624 1.976-1.898 1.976zM44.513 97.156c1.56 0 2.47-.962 2.47-2.795v-1.43c0-1.833-.91-2.795-2.47-2.795-.897 0-1.586.325-2.132 1.04V87.51h-1.144V97h.975l.039-1.066c.572.845 1.287 1.222 2.262 1.222zm-.143-1.001c-.845 0-1.547-.56-1.99-1.521v-1.976c.443-.962 1.132-1.521 1.99-1.521.923 0 1.469.637 1.469 1.833v1.352c0 1.196-.546 1.833-1.47 1.833zM48.803 99.366h1.144v-3.25c.546.715 1.235 1.04 2.132 1.04 1.56 0 2.47-.962 2.47-2.795v-1.43c0-1.833-.91-2.795-2.47-2.795-.975 0-1.69.377-2.262 1.222l-.039-1.066h-.975v9.074zm3.133-3.211c-.858 0-1.547-.56-1.989-1.521v-1.976c.442-.962 1.131-1.521 1.99-1.521.922 0 1.468.637 1.468 1.833v1.352c0 1.196-.546 1.833-1.469 1.833zM9.511 129.083c2.028 0 3.172-.988 3.172-2.99 0-1.898-1.04-2.938-2.834-2.938-.793 0-1.443.208-1.963.625l.17-2.613h4.224v-1.079H7.028l-.299 4.784h1.053a2.603 2.603 0 0 1 1.807-.677c1.248 0 1.95.664 1.95 1.925 0 1.287-.728 1.924-2.04 1.924-1.184 0-1.899-.52-1.938-1.404H6.443c.026 1.521 1.105 2.443 3.068 2.443zM17.319 129.083c1.976 0 3.042-1.027 3.042-2.938v-3.275c0-1.912-1.066-2.939-3.042-2.939-1.976 0-3.042 1.027-3.042 2.939v3.275c0 1.911 1.066 2.938 3.042 2.938zm0-1.039c-1.274 0-1.898-.651-1.898-1.977v-3.119c0-1.326.624-1.977 1.898-1.977s1.898.651 1.898 1.977v3.119c0 1.326-.624 1.977-1.898 1.977zM25.139 129.083c1.976 0 3.042-1.027 3.042-2.938v-3.275c0-1.912-1.066-2.939-3.042-2.939-1.976 0-3.042 1.027-3.042 2.939v3.275c0 1.911 1.066 2.938 3.042 2.938zm0-1.039c-1.274 0-1.898-.651-1.898-1.977v-3.119c0-1.326.624-1.977 1.898-1.977s1.898.651 1.898 1.977v3.119c0 1.326-.624 1.977-1.898 1.977zM32.96 129.083c1.975 0 3.041-1.027 3.041-2.938v-3.275c0-1.912-1.066-2.939-3.042-2.939-1.976 0-3.042 1.027-3.042 2.939v3.275c0 1.911 1.066 2.938 3.042 2.938zm0-1.039c-1.275 0-1.899-.651-1.899-1.977v-3.119c0-1.326.624-1.977 1.898-1.977s1.898.651 1.898 1.977v3.119c0 1.326-.624 1.977-1.898 1.977zM44.65 129.083c1.56 0 2.47-.961 2.47-2.794v-1.43c0-1.834-.91-2.795-2.47-2.795-.898 0-1.587.324-2.133 1.039v-3.665h-1.144v9.489h.975l.04-1.066c.571.846 1.286 1.222 2.261 1.222zm-.144-1c-.845 0-1.547-.559-1.989-1.521v-1.977c.442-.962 1.131-1.521 1.99-1.521.922 0 1.468.637 1.468 1.834v1.351c0 1.196-.546 1.834-1.469 1.834zM48.94 131.294h1.144v-3.25c.546.715 1.235 1.039 2.132 1.039 1.56 0 2.47-.961 2.47-2.794v-1.43c0-1.834-.91-2.795-2.47-2.795-.975 0-1.69.377-2.262 1.222l-.04-1.066h-.974v9.074zm3.133-3.211c-.858 0-1.547-.559-1.99-1.521v-1.977c.443-.962 1.132-1.521 1.99-1.521.923 0 1.469.637 1.469 1.834v1.351c0 1.196-.546 1.834-1.47 1.834zM9.831 160.855h1.144v-2.028h1.04v-1.04h-1.04v-5.772h-1.3l-4.394 5.707v1.105h4.55v2.028zm-3.263-3.068l3.263-4.29v4.29H6.568zM16.443 161.011c1.976 0 3.042-1.027 3.042-2.938v-3.276c0-1.911-1.066-2.938-3.042-2.938-1.976 0-3.042 1.027-3.042 2.938v3.276c0 1.911 1.066 2.938 3.042 2.938zm0-1.04c-1.274 0-1.898-.65-1.898-1.976v-3.12c0-1.326.624-1.976 1.898-1.976s1.898.65 1.898 1.976v3.12c0 1.326-.624 1.976-1.898 1.976zM24.263 161.011c1.976 0 3.042-1.027 3.042-2.938v-3.276c0-1.911-1.066-2.938-3.042-2.938-1.976 0-3.042 1.027-3.042 2.938v3.276c0 1.911 1.066 2.938 3.042 2.938zm0-1.04c-1.274 0-1.898-.65-1.898-1.976v-3.12c0-1.326.624-1.976 1.898-1.976s1.898.65 1.898 1.976v3.12c0 1.326-.624 1.976-1.898 1.976zM32.083 161.011c1.976 0 3.042-1.027 3.042-2.938v-3.276c0-1.911-1.066-2.938-3.042-2.938-1.976 0-3.042 1.027-3.042 2.938v3.276c0 1.911 1.066 2.938 3.042 2.938zm0-1.04c-1.274 0-1.898-.65-1.898-1.976v-3.12c0-1.326.624-1.976 1.898-1.976s1.898.65 1.898 1.976v3.12c0 1.326-.624 1.976-1.898 1.976zM43.773 161.011c1.56 0 2.47-.962 2.47-2.795v-1.43c0-1.833-.91-2.795-2.47-2.795-.897 0-1.586.325-2.132 1.04v-3.666h-1.144v9.49h.975l.04-1.066c.571.845 1.286 1.222 2.261 1.222zm-.143-1.001c-.845 0-1.547-.559-1.989-1.521v-1.976c.442-.962 1.131-1.521 1.99-1.521.922 0 1.468.637 1.468 1.833v1.352c0 1.196-.546 1.833-1.469 1.833zM48.064 163.221h1.144v-3.25c.546.715 1.235 1.04 2.132 1.04 1.56 0 2.47-.962 2.47-2.795v-1.43c0-1.833-.91-2.795-2.47-2.795-.975 0-1.69.377-2.262 1.222l-.04-1.066h-.974v9.074zm3.133-3.211c-.858 0-1.547-.559-1.99-1.521v-1.976c.443-.962 1.132-1.521 1.99-1.521.923 0 1.469.637 1.469 1.833v1.352c0 1.196-.546 1.833-1.47 1.833zM5.77 278h6.07v-1.079H6.9c.053-.949.638-1.521 2.263-2.249 1.963-.884 2.704-1.742 2.704-3.146 0-1.547-1.015-2.522-2.938-2.522-1.924 0-3.03.949-3.03 2.691v.299h1.119v-.182c0-1.183.663-1.768 1.898-1.768 1.221 0 1.806.585 1.806 1.508s-.545 1.508-2.105 2.223c-2.067.949-2.847 1.924-2.847 3.562V278zM16.632 278.156c1.976 0 3.042-1.027 3.042-2.938v-3.276c0-1.911-1.066-2.938-3.042-2.938-1.976 0-3.042 1.027-3.042 2.938v3.276c0 1.911 1.066 2.938 3.042 2.938zm0-1.04c-1.274 0-1.898-.65-1.898-1.976v-3.12c0-1.326.624-1.976 1.898-1.976s1.898.65 1.898 1.976v3.12c0 1.326-.624 1.976-1.898 1.976zM24.452 278.156c1.976 0 3.042-1.027 3.042-2.938v-3.276c0-1.911-1.066-2.938-3.042-2.938-1.976 0-3.042 1.027-3.042 2.938v3.276c0 1.911 1.066 2.938 3.042 2.938zm0-1.04c-1.274 0-1.898-.65-1.898-1.976v-3.12c0-1.326.624-1.976 1.898-1.976s1.898.65 1.898 1.976v3.12c0 1.326-.624 1.976-1.898 1.976zM32.273 278.156c1.975 0 3.041-1.027 3.041-2.938v-3.276c0-1.911-1.066-2.938-3.041-2.938-1.977 0-3.043 1.027-3.043 2.938v3.276c0 1.911 1.067 2.938 3.043 2.938zm0-1.04c-1.275 0-1.899-.65-1.899-1.976v-3.12c0-1.326.625-1.976 1.899-1.976 1.273 0 1.897.65 1.897 1.976v3.12c0 1.326-.623 1.976-1.898 1.976zM43.962 278.156c1.56 0 2.47-.962 2.47-2.795v-1.43c0-1.833-.91-2.795-2.47-2.795-.897 0-1.586.325-2.132 1.04v-3.666h-1.143V278h.974l.04-1.066c.572.845 1.286 1.222 2.261 1.222zm-.143-1.001c-.845 0-1.547-.559-1.989-1.521v-1.976c.443-.962 1.132-1.521 1.99-1.521.922 0 1.468.637 1.468 1.833v1.352c0 1.196-.545 1.833-1.468 1.833zM48.253 280.366h1.144v-3.25c.546.715 1.235 1.04 2.132 1.04 1.56 0 2.47-.962 2.47-2.795v-1.43c0-1.833-.91-2.795-2.47-2.795-.975 0-1.69.377-2.262 1.222l-.04-1.066h-.974v9.074zm3.133-3.211c-.858 0-1.547-.559-1.99-1.521v-1.976c.443-.962 1.132-1.521 1.99-1.521.923 0 1.469.637 1.469 1.833v1.352c0 1.196-.546 1.833-1.47 1.833zM7.524 313h5.486v-1.079h-2.171v-7.761H9.747c-.585.754-1.365 1.092-2.483 1.131v1.014c.87-.026 1.703-.13 2.43-.637v6.253h-2.17V313zM17.645 313.156c2.028 0 3.172-.988 3.172-2.99 0-1.898-1.04-2.938-2.834-2.938-.793 0-1.443.208-1.963.624l.169-2.613h4.225v-1.079h-5.252l-.299 4.784h1.053a2.602 2.602 0 0 1 1.807-.676c1.248 0 1.95.663 1.95 1.924 0 1.287-.728 1.924-2.041 1.924-1.183 0-1.898-.52-1.937-1.404h-1.118c.026 1.521 1.105 2.444 3.068 2.444zM25.452 313.156c1.976 0 3.042-1.027 3.042-2.938v-3.276c0-1.911-1.066-2.938-3.042-2.938-1.976 0-3.042 1.027-3.042 2.938v3.276c0 1.911 1.066 2.938 3.042 2.938zm0-1.04c-1.274 0-1.898-.65-1.898-1.976v-3.12c0-1.326.624-1.976 1.898-1.976s1.898.65 1.898 1.976v3.12c0 1.326-.624 1.976-1.898 1.976zM33.273 313.156c1.976 0 3.042-1.027 3.042-2.938v-3.276c0-1.911-1.066-2.938-3.042-2.938-1.976 0-3.042 1.027-3.042 2.938v3.276c0 1.911 1.066 2.938 3.042 2.938zm0-1.04c-1.274 0-1.898-.65-1.898-1.976v-3.12c0-1.326.624-1.976 1.898-1.976s1.898.65 1.898 1.976v3.12c0 1.326-.624 1.976-1.898 1.976zM44.963 313.156c1.56 0 2.47-.962 2.47-2.795v-1.43c0-1.833-.91-2.795-2.47-2.795-.897 0-1.586.325-2.132 1.04v-3.666h-1.144V313h.975l.039-1.066c.572.845 1.287 1.222 2.262 1.222zm-.143-1.001c-.845 0-1.547-.559-1.99-1.521v-1.976c.443-.962 1.132-1.521 1.99-1.521.923 0 1.469.637 1.469 1.833v1.352c0 1.196-.546 1.833-1.47 1.833zM49.253 315.366h1.144v-3.25c.546.715 1.235 1.04 2.132 1.04 1.56 0 2.47-.962 2.47-2.795v-1.43c0-1.833-.91-2.795-2.47-2.795-.975 0-1.69.377-2.262 1.222l-.039-1.066h-.975v9.074zm3.133-3.211c-.858 0-1.547-.559-1.989-1.521v-1.976c.442-.962 1.131-1.521 1.99-1.521.922 0 1.468.637 1.468 1.833v1.352c0 1.196-.546 1.833-1.469 1.833zM7.524 391h5.486v-1.079h-2.171v-7.761H9.747c-.585.754-1.365 1.092-2.483 1.131v1.014c.87-.026 1.703-.13 2.43-.637v6.253h-2.17V391zM17.632 391.156c1.976 0 3.042-1.027 3.042-2.938v-3.276c0-1.911-1.066-2.938-3.042-2.938-1.976 0-3.042 1.027-3.042 2.938v3.276c0 1.911 1.066 2.938 3.042 2.938zm0-1.04c-1.274 0-1.898-.65-1.898-1.976v-3.12c0-1.326.624-1.976 1.898-1.976s1.898.65 1.898 1.976v3.12c0 1.326-.624 1.976-1.898 1.976zM25.452 391.156c1.976 0 3.042-1.027 3.042-2.938v-3.276c0-1.911-1.066-2.938-3.042-2.938-1.976 0-3.042 1.027-3.042 2.938v3.276c0 1.911 1.066 2.938 3.042 2.938zm0-1.04c-1.274 0-1.898-.65-1.898-1.976v-3.12c0-1.326.624-1.976 1.898-1.976s1.898.65 1.898 1.976v3.12c0 1.326-.624 1.976-1.898 1.976zM33.273 391.156c1.976 0 3.042-1.027 3.042-2.938v-3.276c0-1.911-1.066-2.938-3.042-2.938-1.976 0-3.042 1.027-3.042 2.938v3.276c0 1.911 1.066 2.938 3.042 2.938zm0-1.04c-1.274 0-1.898-.65-1.898-1.976v-3.12c0-1.326.624-1.976 1.898-1.976s1.898.65 1.898 1.976v3.12c0 1.326-.624 1.976-1.898 1.976zM44.963 391.156c1.56 0 2.47-.962 2.47-2.795v-1.43c0-1.833-.91-2.795-2.47-2.795-.897 0-1.586.325-2.132 1.04v-3.666h-1.144V391h.975l.039-1.066c.572.845 1.287 1.222 2.262 1.222zm-.143-1.001c-.845 0-1.547-.559-1.99-1.521v-1.976c.443-.962 1.132-1.521 1.99-1.521.923 0 1.469.637 1.469 1.833v1.352c0 1.196-.546 1.833-1.47 1.833zM49.253 393.366h1.144v-3.25c.546.715 1.235 1.04 2.132 1.04 1.56 0 2.47-.962 2.47-2.795v-1.43c0-1.833-.91-2.795-2.47-2.795-.975 0-1.69.377-2.262 1.222l-.039-1.066h-.975v9.074zm3.133-3.211c-.858 0-1.547-.559-1.989-1.521v-1.976c.442-.962 1.131-1.521 1.99-1.521.922 0 1.468.637 1.468 1.833v1.352c0 1.196-.546 1.833-1.469 1.833zM13.644 480.156c2.028 0 3.172-.988 3.172-2.99 0-1.898-1.04-2.938-2.834-2.938-.793 0-1.443.208-1.963.624l.17-2.613h4.224v-1.079h-5.252l-.299 4.784h1.053a2.602 2.602 0 0 1 1.807-.676c1.248 0 1.95.663 1.95 1.924 0 1.287-.728 1.924-2.04 1.924-1.184 0-1.899-.52-1.938-1.404h-1.118c.026 1.521 1.105 2.444 3.068 2.444zM21.451 480.156c1.976 0 3.043-1.027 3.043-2.938v-3.276c0-1.911-1.067-2.938-3.043-2.938-1.976 0-3.041 1.027-3.041 2.938v3.276c0 1.911 1.066 2.938 3.041 2.938zm0-1.04c-1.274 0-1.898-.65-1.898-1.976v-3.12c0-1.326.624-1.976 1.898-1.976s1.898.65 1.898 1.976v3.12c0 1.326-.623 1.976-1.898 1.976zM29.272 480.156c1.976 0 3.042-1.027 3.042-2.938v-3.276c0-1.911-1.066-2.938-3.042-2.938-1.976 0-3.042 1.027-3.042 2.938v3.276c0 1.911 1.066 2.938 3.042 2.938zm0-1.04c-1.274 0-1.898-.65-1.898-1.976v-3.12c0-1.326.624-1.976 1.898-1.976s1.898.65 1.898 1.976v3.12c0 1.326-.624 1.976-1.898 1.976zM40.962 480.156c1.56 0 2.47-.962 2.47-2.795v-1.43c0-1.833-.91-2.795-2.47-2.795-.897 0-1.586.325-2.132 1.04v-3.666h-1.144V480h.975l.039-1.066c.572.845 1.287 1.222 2.262 1.222zm-.143-1.001c-.845 0-1.547-.559-1.99-1.521v-1.976c.443-.962 1.132-1.521 1.99-1.521.923 0 1.469.637 1.469 1.833v1.352c0 1.196-.546 1.833-1.47 1.833zM45.252 482.366h1.144v-3.25c.546.715 1.235 1.04 2.132 1.04 1.56 0 2.47-.962 2.47-2.795v-1.43c0-1.833-.91-2.795-2.47-2.795-.975 0-1.69.377-2.262 1.222l-.039-1.066h-.975v9.074zm3.133-3.211c-.858 0-1.547-.559-1.989-1.521v-1.976c.442-.962 1.131-1.521 1.99-1.521.922 0 1.468.637 1.468 1.833v1.352c0 1.196-.546 1.833-1.469 1.833zM9.851 209.156c2.002 0 3.107-.845 3.107-2.574 0-1.118-.455-1.833-1.417-2.158v-.026c.793-.338 1.196-1.001 1.196-1.963 0-1.56-1.053-2.431-2.873-2.431-1.898 0-2.99.936-2.99 2.561v.195H7.98v-.117c0-1.027.65-1.599 1.846-1.599 1.144 0 1.781.52 1.781 1.495 0 .949-.61 1.43-1.768 1.43H8.85v1.04h.975c1.365 0 1.99.52 1.99 1.534 0 1.079-.703 1.573-1.964 1.573-1.326 0-1.989-.546-1.989-1.612v-.169H6.744v.325c0 1.625 1.08 2.496 3.107 2.496zM17.633 209.156c1.976 0 3.041-1.027 3.041-2.938v-3.276c0-1.911-1.066-2.938-3.041-2.938-1.976 0-3.042 1.027-3.042 2.938v3.276c0 1.911 1.066 2.938 3.042 2.938zm0-1.04c-1.274 0-1.898-.65-1.898-1.976v-3.12c0-1.326.623-1.976 1.898-1.976 1.274 0 1.898.65 1.898 1.976v3.12c0 1.326-.624 1.976-1.898 1.976zM25.453 209.156c1.976 0 3.042-1.027 3.042-2.938v-3.276c0-1.911-1.066-2.938-3.042-2.938-1.976 0-3.042 1.027-3.042 2.938v3.276c0 1.911 1.066 2.938 3.042 2.938zm0-1.04c-1.274 0-1.898-.65-1.898-1.976v-3.12c0-1.326.624-1.976 1.898-1.976s1.898.65 1.898 1.976v3.12c0 1.326-.624 1.976-1.898 1.976zM33.273 209.156c1.976 0 3.042-1.027 3.042-2.938v-3.276c0-1.911-1.066-2.938-3.042-2.938-1.976 0-3.042 1.027-3.042 2.938v3.276c0 1.911 1.066 2.938 3.042 2.938zm0-1.04c-1.274 0-1.898-.65-1.898-1.976v-3.12c0-1.326.624-1.976 1.898-1.976s1.898.65 1.898 1.976v3.12c0 1.326-.624 1.976-1.898 1.976zM44.963 209.156c1.56 0 2.47-.962 2.47-2.795v-1.43c0-1.833-.91-2.795-2.47-2.795-.897 0-1.586.325-2.132 1.04v-3.666h-1.144V209h.975l.04-1.066c.571.845 1.286 1.222 2.261 1.222zm-.143-1.001c-.845 0-1.547-.559-1.989-1.521v-1.976c.442-.962 1.131-1.521 1.99-1.521.922 0 1.468.637 1.468 1.833v1.352c0 1.196-.546 1.833-1.469 1.833zM49.254 211.366h1.144v-3.25c.545.715 1.234 1.04 2.131 1.04 1.56 0 2.47-.962 2.47-2.795v-1.43c0-1.833-.91-2.795-2.47-2.795-.975 0-1.69.377-2.262 1.222l-.039-1.066h-.974v9.074zm3.133-3.211c-.858 0-1.547-.559-1.99-1.521v-1.976c.443-.962 1.132-1.521 1.99-1.521.922 0 1.468.637 1.468 1.833v1.352c0 1.196-.545 1.833-1.468 1.833z"/>
    </g>
</svg>
