<svg width="34" height="34" viewBox="0 0 34 34" fill="none" xmlns="http://www.w3.org/2000/svg">
<path d="M33.6399 16.1463L28.7827 11.2891C28.5425 11.0488 28.2578 10.9287 27.9289 10.9287C27.6 10.9287 27.3155 11.0488 27.0751 11.2891C26.835 11.5296 26.7146 11.8143 26.7146 12.1431V14.5719H19.4287V7.28597H21.8576C22.1865 7.28597 22.4712 7.16575 22.7114 6.92551C22.9516 6.68514 23.0717 6.40077 23.0717 6.07175C23.0717 5.74266 22.9516 5.45803 22.7114 5.21772L17.8541 0.360457C17.614 0.120152 17.3294 0 17.0003 0C16.6712 0 16.3868 0.120219 16.1463 0.360457L11.2892 5.21772C11.0488 5.45823 10.9288 5.74286 10.9288 6.07175C10.9288 6.40044 11.0488 6.68507 11.2892 6.92551C11.5297 7.16575 11.8141 7.28597 12.1432 7.28597H14.5718V14.5719H7.28597V12.1432C7.28597 11.8141 7.16575 11.5295 6.92538 11.2892C6.68487 11.0488 6.40024 10.9287 6.07142 10.9287C5.74266 10.9287 5.45803 11.0488 5.21766 11.2892L0.360457 16.1463C0.120219 16.3867 0 16.6712 0 17.0001C0 17.329 0.120219 17.6137 0.360457 17.8539L5.21766 22.7109C5.45803 22.951 5.74246 23.0718 6.07142 23.0718C6.40051 23.0718 6.68507 22.9511 6.92538 22.7109C7.16575 22.471 7.28597 22.1861 7.28597 21.8572V19.4283H14.5718V26.7142H12.1434C11.8143 26.7142 11.5296 26.8346 11.2893 27.0747C11.049 27.3151 10.9289 27.5996 10.9289 27.9284C10.9289 28.2573 11.049 28.542 11.2893 28.7827L16.1465 33.6395C16.3872 33.8797 16.6717 34 17.0006 34C17.3294 34 17.6144 33.8797 17.8543 33.6395L22.7114 28.7827C22.952 28.5421 23.0721 28.2573 23.0721 27.9284C23.0721 27.5996 22.952 27.3151 22.7114 27.0747C22.4712 26.8346 22.1865 26.7142 21.8576 26.7142H19.4292V19.4285H26.715V21.8576C26.715 22.1865 26.8351 22.4712 27.0752 22.7114C27.3158 22.9515 27.6005 23.0721 27.9294 23.0721C28.2579 23.0721 28.5425 22.9516 28.7831 22.7114L33.6402 17.8541C33.8806 17.6137 34.0007 17.329 34.0007 17.0001C34.0007 16.6712 33.8806 16.3867 33.6399 16.1463Z" fill="white"/>
</svg>
