<svg width="553" height="415" viewBox="0 0 553 415" fill="none" xmlns="http://www.w3.org/2000/svg">
<rect width="552.792" height="414.57" rx="5" fill="url(#paint0_linear)"/>
<path d="M465.947 12.666H92.9473V398.666H465.947V12.666Z" fill="white"/>
<path opacity="0.4" d="M451.58 25.0371H108.738V382.814H451.58V25.0371Z" fill="#7CB4D0"/>
<path opacity="0.1" d="M451.58 25.0371H108.738V382.814H451.58V25.0371Z" fill="#BCDEEA"/>
<path opacity="0.5" d="M108.738 25.0363L92.9473 12.666V398.666L108.738 382.813V25.0363Z" fill="#7CB4D0"/>
<path opacity="0.5" d="M451.58 382.813L465.948 398.666V12.666L451.58 25.0363V382.813Z" fill="#7CB4D0"/>
<path opacity="0.4" d="M465.947 12.666H92.9473V398.666H465.947V12.666Z" fill="#7CB4D0"/>
<path opacity="0.8" d="M451.579 382.693H108.738L92.9473 398.667H465.947L451.579 382.693Z" fill="#7CB4D0"/>
<path opacity="0.2" d="M129.624 61.6992L165.473 61.6992V43.0838H129.624V61.6992Z" fill="#3E6E7A"/>
<path opacity="0.2" d="M129.624 61.6992L165.473 61.6992V43.0838H129.624V61.6992Z" fill="#3E6E7A"/>
<path opacity="0.2" d="M123.7 59.625L168.369 59.625V40.8895H123.7V59.625Z" fill="#3E6E7A"/>
<path opacity="0.2" d="M165.5 61.6659L168.345 59.6242V40.8887L165.5 42.9304V61.6659Z" fill="#3E6E7A"/>
<path opacity="0.2" d="M129.793 42.9304L123.676 40.8887V59.6242L129.793 61.6659V42.9304Z" fill="#3E6E7A"/>
<path opacity="0.5" d="M123.676 57.582V59.5036L129.793 61.6654H165.5L168.345 59.5036V57.582H123.676Z" fill="white"/>
<path opacity="0.2" d="M184.753 61.6992L220.602 61.6992V43.0838H184.753V61.6992Z" fill="#3E6E7A"/>
<path opacity="0.2" d="M184.753 61.6992L220.602 61.6992V43.0838H184.753V61.6992Z" fill="#3E6E7A"/>
<path opacity="0.2" d="M178.688 59.625L223.357 59.625V40.8895H178.688V59.625Z" fill="#3E6E7A"/>
<path opacity="0.2" d="M220.553 61.6659L223.398 59.6242V40.8887L220.553 42.9304V61.6659Z" fill="#3E6E7A"/>
<path opacity="0.2" d="M184.705 42.9304L178.73 40.8887V59.6242L184.705 61.6659V42.9304Z" fill="#3E6E7A"/>
<path opacity="0.5" d="M178.73 57.582V59.5036L184.705 61.6654H220.554L223.399 59.5036V57.582H178.73Z" fill="white"/>
<path opacity="0.2" d="M239.739 61.6992L275.588 61.6992V43.0838H239.739V61.6992Z" fill="#3E6E7A"/>
<path opacity="0.2" d="M239.739 61.6992L275.588 61.6992V43.0838H239.739V61.6992Z" fill="#3E6E7A"/>
<path opacity="0.2" d="M233.675 59.625L278.344 59.625V40.8895H233.675V59.625Z" fill="#3E6E7A"/>
<path opacity="0.2" d="M275.607 61.6659L278.31 59.6242V40.8887L275.607 42.9304V61.6659Z" fill="#3E6E7A"/>
<path opacity="0.2" d="M239.76 42.9304L233.785 40.8887V59.6242L239.76 61.6659V42.9304Z" fill="#3E6E7A"/>
<path opacity="0.5" d="M233.783 57.582V59.5036L239.758 61.6654H275.607L278.31 59.5036V57.582H233.783Z" fill="white"/>
<path opacity="0.2" d="M437.497 41.9688H401.648V60.5842H437.497V41.9688Z" fill="#3E6E7A"/>
<path opacity="0.2" d="M437.497 41.9688H401.648V60.5842H437.497V41.9688Z" fill="#3E6E7A"/>
<path opacity="0.2" d="M443.472 39.9277H398.803V58.6633H443.472V39.9277Z" fill="#3E6E7A"/>
<path opacity="0.2" d="M401.648 60.5849L398.803 58.5432V39.9277L401.648 41.9694V60.5849Z" fill="#3E6E7A"/>
<path opacity="0.2" d="M437.355 41.9694L443.473 39.9277V58.5432L437.355 60.5849V41.9694Z" fill="#3E6E7A"/>
<path opacity="0.5" d="M443.472 56.502V58.5436L437.355 60.5853H401.648L398.803 58.5436V56.502H443.472Z" fill="white"/>
<path opacity="0.2" d="M382.443 41.9688H346.594V60.5842H382.443V41.9688Z" fill="#3E6E7A"/>
<path opacity="0.2" d="M382.443 41.9688H346.594V60.5842H382.443V41.9688Z" fill="#3E6E7A"/>
<path opacity="0.2" d="M388.417 39.9277H343.748V58.6633H388.417V39.9277Z" fill="#3E6E7A"/>
<path opacity="0.2" d="M346.593 60.5849L343.748 58.5432V39.9277L346.593 41.9694V60.5849Z" fill="#3E6E7A"/>
<path opacity="0.2" d="M382.441 41.9694L388.416 39.9277V58.5432L382.441 60.5849V41.9694Z" fill="#3E6E7A"/>
<path opacity="0.5" d="M388.417 56.502V58.5436L382.442 60.5853H346.593L343.748 58.5436V56.502H388.417Z" fill="white"/>
<path opacity="0.2" d="M327.39 41.9688H291.541V60.5842H327.39V41.9688Z" fill="#3E6E7A"/>
<path opacity="0.2" d="M327.39 41.9688H291.541V60.5842H327.39V41.9688Z" fill="#3E6E7A"/>
<path opacity="0.2" d="M333.507 39.9277H288.838V58.6633H333.507V39.9277Z" fill="#3E6E7A"/>
<path opacity="0.2" d="M291.541 60.5849L288.838 58.5432V39.9277L291.541 41.9694V60.5849Z" fill="#3E6E7A"/>
<path opacity="0.2" d="M327.391 41.9694L333.365 39.9277V58.5432L327.391 60.5849V41.9694Z" fill="#3E6E7A"/>
<path opacity="0.5" d="M333.365 56.502V58.5436L327.39 60.5853H291.541L288.838 58.5436V56.502H333.365Z" fill="white"/>
<rect x="123.947" y="359.666" width="45" height="10" fill="#003E6B"/>
<rect x="123.947" y="338.666" width="45" height="10" fill="#003E6B"/>
<rect x="123.947" y="318.666" width="45" height="9" fill="#003E6B"/>
<defs>
<linearGradient id="paint0_linear" x1="276.396" y1="0" x2="276.396" y2="414.57" gradientUnits="userSpaceOnUse">
<stop stop-color="#014C91"/>
<stop offset="1" stop-color="#003257"/>
</linearGradient>
</defs>
</svg>
