<svg version="1.1" id="Layer_1" xmlns="http://www.w3.org/2000/svg" xmlns:xlink="http://www.w3.org/1999/xlink" x="0px" y="0px"
	 width="100%" viewBox="0 0 908 918" enable-background="new 0 0 908 918" xml:space="preserve">
<path fill="#5AC3C8" opacity="1.000000" stroke="none" 
	d="
M177.048538,222.000000 
	C177.048553,210.333466 177.012589,199.166748 177.063049,188.000443 
	C177.090286,181.975388 178.100372,180.989899 184.003342,180.989700 
	C364.500702,180.983826 544.998047,180.984253 725.495422,180.989105 
	C731.667786,180.989273 731.999390,181.342453 732.000305,188.045227 
	C732.008179,249.544525 732.270813,311.046082 731.749207,372.540955 
	C731.659790,383.077148 735.396118,391.328674 740.344055,399.801575 
	C750.869873,417.826050 761.289307,435.914948 771.465332,454.137665 
	C772.401672,455.814484 772.015625,459.057068 770.995605,460.870758 
	C760.999451,478.645721 751.029114,496.448578 740.437317,513.870178 
	C734.573914,523.514343 731.689270,533.216064 731.780029,544.748413 
	C732.259827,605.743958 732.007385,666.745239 732.005920,727.744568 
	C732.005737,735.072205 731.997681,735.078735 724.501770,735.078796 
	C544.670471,735.079712 364.839203,735.079285 185.007935,735.078369 
	C177.245728,735.078369 177.053589,734.903442 177.052597,726.848511 
	C177.045105,665.849182 176.798706,604.847961 177.271759,543.852295 
	C177.360077,532.465454 174.540894,522.873535 168.714050,513.377380 
	C158.208282,496.255829 148.207825,478.817352 138.374802,461.298798 
	C137.192230,459.191895 137.404221,455.255707 138.593704,453.038574 
	C144.939651,441.209930 151.775238,429.642822 158.494644,418.015991 
	C163.723419,408.968414 169.292419,400.104248 174.163849,390.870361 
	C175.937637,387.508118 176.915833,383.315308 176.928696,379.496979 
	C177.104675,327.165100 177.048004,274.832458 177.048538,222.000000 
M489.841400,601.662964 
	C496.990021,615.969360 504.191437,630.249817 511.244812,644.603027 
	C512.740662,647.647034 514.662292,649.073914 518.192383,649.064148 
	C552.351562,648.969360 586.511169,649.023132 620.670593,648.969543 
	C622.323120,648.966980 623.974731,648.360107 626.053406,647.950623 
	C625.285156,646.183411 624.914490,645.089661 624.362793,644.096313 
	C600.365723,600.893372 576.362427,557.693848 552.323120,514.514343 
	C550.393921,511.049164 550.671448,509.204498 554.823181,507.387634 
	C590.262878,491.879059 612.602661,464.993988 621.640808,427.570709 
	C626.243530,408.512878 626.335388,389.000427 622.897400,369.583801 
	C618.868958,346.832581 609.899231,326.289215 594.308899,309.151794 
	C569.325867,281.689575 537.212891,269.338440 500.833862,268.966766 
	C436.354187,268.307861 371.862915,268.779358 307.376495,268.782684 
	C300.586700,268.783051 300.213104,269.119659 300.212646,275.751984 
	C300.203857,397.892944 300.204437,520.033936 300.210541,642.174866 
	C300.210846,648.430115 300.793854,649.006348 307.095032,649.008911 
	C335.589020,649.020203 364.083038,649.021301 392.577026,649.008362 
	C398.870880,649.005493 399.004211,648.857056 399.005188,642.563843 
	C399.011322,603.738708 399.068298,564.913269 398.926880,526.088684 
	C398.910583,521.625549 400.025421,519.870605 404.803467,519.982483 
	C417.460541,520.279053 430.133179,520.268372 442.791016,519.989197 
	C447.523895,519.884827 450.015320,521.761475 452.034027,525.854614 
	C464.414124,550.956726 476.993713,575.960327 489.841400,601.662964 
M620.416870,285.916870 
	C619.421143,284.304413 618.537720,282.595459 617.317810,281.175568 
	C617.117188,280.942047 614.870361,281.752106 614.580627,282.481598 
	C614.173950,283.505402 614.385925,285.781738 614.912170,285.979126 
	C616.447205,286.554871 618.269714,286.364410 620.416870,285.916870 
z"/>
<path fill="#2E3131" opacity="1.000000" stroke="none" 
	d="
M489.674133,601.329834 
	C476.993713,575.960327 464.414124,550.956726 452.034027,525.854614 
	C450.015320,521.761475 447.523895,519.884827 442.791016,519.989197 
	C430.133179,520.268372 417.460541,520.279053 404.803467,519.982483 
	C400.025421,519.870605 398.910583,521.625549 398.926880,526.088684 
	C399.068298,564.913269 399.011322,603.738708 399.005188,642.563843 
	C399.004211,648.857056 398.870880,649.005493 392.577026,649.008362 
	C364.083038,649.021301 335.589020,649.020203 307.095032,649.008911 
	C300.793854,649.006348 300.210846,648.430115 300.210541,642.174866 
	C300.204437,520.033936 300.203857,397.892944 300.212646,275.751984 
	C300.213104,269.119659 300.586700,268.783051 307.376495,268.782684 
	C371.862915,268.779358 436.354187,268.307861 500.833862,268.966766 
	C537.212891,269.338440 569.325867,281.689575 594.308899,309.151794 
	C609.899231,326.289215 618.868958,346.832581 622.897400,369.583801 
	C626.335388,389.000427 626.243530,408.512878 621.640808,427.570709 
	C612.602661,464.993988 590.262878,491.879059 554.823181,507.387634 
	C550.671448,509.204498 550.393921,511.049164 552.323120,514.514343 
	C576.362427,557.693848 600.365723,600.893372 624.362793,644.096313 
	C624.914490,645.089661 625.285156,646.183411 626.053406,647.950623 
	C623.974731,648.360107 622.323120,648.966980 620.670593,648.969543 
	C586.511169,649.023132 552.351562,648.969360 518.192383,649.064148 
	C514.662292,649.073914 512.740662,647.647034 511.244812,644.603027 
	C504.191437,630.249817 496.990021,615.969360 489.674133,601.329834 
M509.910522,425.459473 
	C530.651489,408.072876 528.574524,378.162201 510.247772,362.962250 
	C499.733826,354.242035 487.075317,351.468414 473.961365,351.238922 
	C450.819336,350.833984 427.664581,351.204803 404.516510,351.049622 
	C400.433014,351.022217 398.909515,352.261414 398.931305,356.439545 
	C399.061432,381.419922 399.058655,406.401581 398.937744,431.382019 
	C398.918121,435.425232 400.169769,436.963409 404.386383,436.934998 
	C427.700989,436.777802 451.019318,437.045807 474.331970,436.779968 
	C486.974457,436.635803 499.072876,434.007050 509.910522,425.459473 
z"/>
<path fill="#5AC3C8" opacity="1.000000" stroke="none" 
	d="
M620.198181,286.195587 
	C618.269714,286.364410 616.447205,286.554871 614.912170,285.979126 
	C614.385925,285.781738 614.173950,283.505402 614.580627,282.481598 
	C614.870361,281.752106 617.117188,280.942047 617.317810,281.175568 
	C618.537720,282.595459 619.421143,284.304413 620.198181,286.195587 
z"/>
<path fill="#5AC3C8" opacity="1.000000" stroke="none" 
	d="
M509.634857,425.686218 
	C499.072876,434.007050 486.974457,436.635803 474.331970,436.779968 
	C451.019318,437.045807 427.700989,436.777802 404.386383,436.934998 
	C400.169769,436.963409 398.918121,435.425232 398.937744,431.382019 
	C399.058655,406.401581 399.061432,381.419922 398.931305,356.439545 
	C398.909515,352.261414 400.433014,351.022217 404.516510,351.049622 
	C427.664581,351.204803 450.819336,350.833984 473.961365,351.238922 
	C487.075317,351.468414 499.733826,354.242035 510.247772,362.962250 
	C528.574524,378.162201 530.651489,408.072876 509.634857,425.686218 
z"/>

</svg>