<svg xmlns="http://www.w3.org/2000/svg" width="580" height="496" fill="none" viewBox="0 0 580 496">
    <rect width="580" height="496" fill="#003E6B" rx="5"/>
    <rect width="580" height="496" fill="url(#a)" rx="5"/>
    <path fill="#AACFE1" d="M341 73.008H61a5 5 0 0 0-5 5v340.727a5 5 0 0 0 5 5h280a5 5 0 0 0 5-5V78.009a5 5 0 0 0-5-5z"/>
    <g fill="#80A5B7" opacity=".5">
        <path d="M74.288 106.27h78.379V90.797H74.288v15.473zM163.117 106.27h78.378V90.797h-78.378v15.473zM251.946 106.27h78.378V90.797h-78.378v15.473z"/>
    </g>
    <rect width="290" height="47" x="56" y="433" fill="#fff" fill-opacity=".1" rx="5"/>
    <rect width="289" height="46" x="56.5" y="433.5" stroke="#fff" stroke-opacity=".4" rx="4.5"/>
    <path fill="#fff" d="M104.656 462h1.62v-4.734h2.988c2.862 0 4.086-1.116 4.086-3.744s-1.224-3.762-4.086-3.762h-4.608V462zm1.62-6.21v-4.554h2.88c1.89 0 2.574.648 2.574 2.286s-.684 2.268-2.574 2.268h-2.88zm12.891 6.426c2.628 0 4.014-1.404 4.014-4.104V456.6c0-2.7-1.386-4.104-4.014-4.104s-4.014 1.404-4.014 4.104v1.512c0 2.7 1.386 4.104 4.014 4.104zm0-1.386c-1.638 0-2.43-.9-2.43-2.772v-1.422c0-1.872.792-2.754 2.43-2.754 1.638 0 2.43.882 2.43 2.754v1.422c0 1.872-.792 2.772-2.43 2.772zm9.567 1.386c2.448 0 3.708-.972 3.708-2.844 0-1.764-.936-2.556-3.42-2.826-1.71-.18-2.34-.522-2.34-1.368 0-.846.72-1.332 2.016-1.332 1.332 0 1.998.522 1.998 1.512h1.548c0-1.872-1.224-2.862-3.528-2.862-2.304 0-3.582 1.008-3.582 2.808 0 1.656.9 2.376 3.33 2.664 1.8.216 2.43.612 2.43 1.53 0 .882-.72 1.368-2.16 1.368-1.548 0-2.304-.54-2.304-1.602h-1.512c0 1.962 1.26 2.952 3.816 2.952zm5.87-11.178h1.728v-1.764h-1.728v1.764zm.072 10.962h1.584v-9.288h-1.584V462zm7.45 0h1.44v-1.368h-1.062c-1.062 0-1.332-.306-1.332-1.512v-5.112h2.286v-1.296h-2.286v-2.448h-1.422l-.126 2.448h-1.638v1.296h1.602v5.094c0 2.034.756 2.898 2.538 2.898zm3.183-10.962h1.728v-1.764h-1.728v1.764zm.072 10.962h1.584v-9.288h-1.584V462zm6.532 0h1.71l3.258-9.288h-1.638l-2.448 7.308-2.448-7.308h-1.692l3.258 9.288zm10.092.216c2.232 0 3.618-1.008 3.744-2.988h-1.53c-.108 1.008-.846 1.62-2.25 1.62-1.656 0-2.412-.828-2.412-2.646v-.414h6.264v-1.35c0-2.556-1.386-3.942-3.924-3.942-2.538 0-3.924 1.386-3.924 3.942v1.836c0 2.556 1.422 3.942 4.032 3.942zm-2.448-5.742c0-1.782.738-2.61 2.376-2.61 1.62 0 2.358.828 2.358 2.61h-4.734zm21.802 5.742c2.232 0 3.618-1.008 3.744-2.988h-1.53c-.108 1.008-.846 1.62-2.25 1.62-1.656 0-2.412-.828-2.412-2.646v-.414h6.264v-1.35c0-2.556-1.386-3.942-3.924-3.942-2.538 0-3.924 1.386-3.924 3.942v1.836c0 2.556 1.422 3.942 4.032 3.942zm-2.448-5.742c0-1.782.738-2.61 2.376-2.61 1.62 0 2.358.828 2.358 2.61h-4.734zm8.745 5.526h1.584v-13.14h-1.584V462zm8.134.216c2.232 0 3.618-1.008 3.744-2.988h-1.53c-.108 1.008-.846 1.62-2.25 1.62-1.656 0-2.412-.828-2.412-2.646v-.414h6.264v-1.35c0-2.556-1.386-3.942-3.924-3.942-2.538 0-3.924 1.386-3.924 3.942v1.836c0 2.556 1.422 3.942 4.032 3.942zm-2.448-5.742c0-1.782.738-2.61 2.376-2.61 1.62 0 2.358.828 2.358 2.61h-4.734zm12.165 5.742c2.34 0 3.636-1.188 3.708-3.438h-1.53c-.108 1.494-.864 2.052-2.16 2.052-1.566 0-2.304-.81-2.304-2.592v-1.764c0-1.782.738-2.592 2.304-2.592 1.296 0 2.052.558 2.16 2.052h1.53c-.072-2.25-1.368-3.438-3.708-3.438-2.52 0-3.87 1.368-3.87 3.942v1.836c0 2.574 1.35 3.942 3.87 3.942zm8.9-.216h1.44v-1.368h-1.062c-1.062 0-1.332-.306-1.332-1.512v-5.112h2.286v-1.296h-2.286v-2.448h-1.422l-.126 2.448h-1.638v1.296h1.602v5.094c0 2.034.756 2.898 2.538 2.898zm3.255 0h1.584v-5.346c.306-1.782 1.152-2.556 2.664-2.556h.468v-1.566h-.63c-1.35 0-2.196.594-2.664 1.908l-.072-1.728h-1.35V462zm9.962.216c2.628 0 4.014-1.404 4.014-4.104V456.6c0-2.7-1.386-4.104-4.014-4.104s-4.014 1.404-4.014 4.104v1.512c0 2.7 1.386 4.104 4.014 4.104zm0-1.386c-1.638 0-2.43-.9-2.43-2.772v-1.422c0-1.872.792-2.754 2.43-2.754 1.638 0 2.43.882 2.43 2.754v1.422c0 1.872-.792 2.772-2.43 2.772zm9.478 1.386c1.35 0 2.34-.522 3.132-1.692l.054 1.476h1.35v-13.14h-1.584v5.076c-.756-.99-1.71-1.44-2.952-1.44-2.16 0-3.42 1.332-3.42 3.87v1.98c0 2.538 1.26 3.87 3.42 3.87zm.198-1.386c-1.278 0-2.034-.882-2.034-2.538v-1.872c0-1.656.756-2.538 2.034-2.538 1.188 0 2.142.774 2.754 2.106v2.736c-.612 1.332-1.566 2.106-2.754 2.106zm10.891 1.386c2.232 0 3.618-1.008 3.744-2.988h-1.53c-.108 1.008-.846 1.62-2.25 1.62-1.656 0-2.412-.828-2.412-2.646v-.414h6.264v-1.35c0-2.556-1.386-3.942-3.924-3.942-2.538 0-3.924 1.386-3.924 3.942v1.836c0 2.556 1.422 3.942 4.032 3.942zm-2.448-5.742c0-1.782.738-2.61 2.376-2.61 1.62 0 2.358.828 2.358 2.61h-4.734z"/>
    <circle cx="79.547" cy="456.632" r="13.633" fill="#A00000"/>
    <path fill="#fff" d="M78.258 461.788h2.42v-3.887h3.668v-2.339h-3.669v-3.887h-2.419v3.887H74.59v2.339h3.668v3.887z"/>
    <rect width="290" height="47" x="56" y="16" fill="#fff" fill-opacity=".1" rx="5"/>
    <rect width="289" height="46" x="56.5" y="16.5" stroke="#fff" stroke-opacity=".4" rx="4.5"/>
    <path fill="#fff" d="M104.656 45h1.566v-9.864L112.198 45h1.584V32.76h-1.566v9.306l-5.634-9.306h-1.926V45zm15.847.216c2.232 0 3.618-1.008 3.744-2.988h-1.53c-.108 1.008-.846 1.62-2.25 1.62-1.656 0-2.412-.828-2.412-2.646v-.414h6.264v-1.35c0-2.556-1.386-3.942-3.924-3.942-2.538 0-3.924 1.386-3.924 3.942v1.836c0 2.556 1.422 3.942 4.032 3.942zm-2.448-5.742c0-1.782.738-2.61 2.376-2.61 1.62 0 2.358.828 2.358 2.61h-4.734zm12.273 9.018c2.646 0 3.96-1.224 3.96-3.69v-9.09h-1.35l-.072 1.44c-.774-1.134-1.764-1.656-3.096-1.656-2.16 0-3.42 1.332-3.42 3.87v1.458c0 2.538 1.26 3.87 3.42 3.87 1.242 0 2.178-.45 2.934-1.422v1.53c0 1.62-.756 2.322-2.412 2.322-1.296 0-2.178-.432-2.268-1.512h-1.476c.126 1.908 1.422 2.88 3.78 2.88zm-.36-5.184c-1.278 0-2.034-.882-2.034-2.538v-1.35c0-1.656.756-2.538 2.034-2.538 1.17 0 2.124.756 2.736 2.07v2.286c-.612 1.314-1.566 2.07-2.736 2.07zm9.703 1.908c1.35 0 2.394-.522 3.15-1.476l.054 1.26h1.35v-6.066c0-2.304-1.188-3.438-3.636-3.438-2.322 0-3.582 1.026-3.744 3.042h1.548c.054-1.134.828-1.674 2.142-1.674 1.44 0 2.106.666 2.106 2.106v.504h-2.232c-2.61 0-3.834 1.044-3.834 2.898 0 1.818 1.188 2.844 3.096 2.844zm.234-1.368c-1.17 0-1.746-.54-1.746-1.512 0-1.044.684-1.548 2.304-1.548h2.178v1.314c-.558 1.134-1.494 1.746-2.736 1.746zM149.772 45h1.44v-1.368h-1.062c-1.062 0-1.332-.306-1.332-1.512v-5.112h2.286v-1.296h-2.286v-2.448h-1.422l-.126 2.448h-1.638v1.296h1.602v5.094c0 2.034.756 2.898 2.538 2.898zm3.183-10.962h1.728v-1.764h-1.728v1.764zM153.027 45h1.584v-9.288h-1.584V45zm6.533 0h1.71l3.258-9.288h-1.638l-2.448 7.308-2.448-7.308h-1.692L159.56 45zm10.092.216c2.232 0 3.618-1.008 3.744-2.988h-1.53c-.108 1.008-.846 1.62-2.25 1.62-1.656 0-2.412-.828-2.412-2.646v-.414h6.264v-1.35c0-2.556-1.386-3.942-3.924-3.942-2.538 0-3.924 1.386-3.924 3.942v1.836c0 2.556 1.422 3.942 4.032 3.942zm-2.448-5.742c0-1.782.738-2.61 2.376-2.61 1.62 0 2.358.828 2.358 2.61h-4.734zm21.801 5.742c2.232 0 3.618-1.008 3.744-2.988h-1.53c-.108 1.008-.846 1.62-2.25 1.62-1.656 0-2.412-.828-2.412-2.646v-.414h6.264v-1.35c0-2.556-1.386-3.942-3.924-3.942-2.538 0-3.924 1.386-3.924 3.942v1.836c0 2.556 1.422 3.942 4.032 3.942zm-2.448-5.742c0-1.782.738-2.61 2.376-2.61 1.62 0 2.358.828 2.358 2.61h-4.734zM195.303 45h1.584V31.86h-1.584V45zm8.134.216c2.232 0 3.618-1.008 3.744-2.988h-1.53c-.108 1.008-.846 1.62-2.25 1.62-1.656 0-2.412-.828-2.412-2.646v-.414h6.264v-1.35c0-2.556-1.386-3.942-3.924-3.942-2.538 0-3.924 1.386-3.924 3.942v1.836c0 2.556 1.422 3.942 4.032 3.942zm-2.448-5.742c0-1.782.738-2.61 2.376-2.61 1.62 0 2.358.828 2.358 2.61h-4.734zm12.165 5.742c2.34 0 3.636-1.188 3.708-3.438h-1.53c-.108 1.494-.864 2.052-2.16 2.052-1.566 0-2.304-.81-2.304-2.592v-1.764c0-1.782.738-2.592 2.304-2.592 1.296 0 2.052.558 2.16 2.052h1.53c-.072-2.25-1.368-3.438-3.708-3.438-2.52 0-3.87 1.368-3.87 3.942v1.836c0 2.574 1.35 3.942 3.87 3.942zm8.9-.216h1.44v-1.368h-1.062c-1.062 0-1.332-.306-1.332-1.512v-5.112h2.286v-1.296H221.1v-2.448h-1.422l-.126 2.448h-1.638v1.296h1.602v5.094c0 2.034.756 2.898 2.538 2.898zm3.254 0h1.584v-5.346c.306-1.782 1.152-2.556 2.664-2.556h.468v-1.566h-.63c-1.35 0-2.196.594-2.664 1.908l-.072-1.728h-1.35V45zm9.962.216c2.628 0 4.014-1.404 4.014-4.104V39.6c0-2.7-1.386-4.104-4.014-4.104s-4.014 1.404-4.014 4.104v1.512c0 2.7 1.386 4.104 4.014 4.104zm0-1.386c-1.638 0-2.43-.9-2.43-2.772v-1.422c0-1.872.792-2.754 2.43-2.754 1.638 0 2.43.882 2.43 2.754v1.422c0 1.872-.792 2.772-2.43 2.772zm9.479 1.386c1.35 0 2.34-.522 3.132-1.692l.054 1.476h1.35V31.86h-1.584v5.076c-.756-.99-1.71-1.44-2.952-1.44-2.16 0-3.42 1.332-3.42 3.87v1.98c0 2.538 1.26 3.87 3.42 3.87zm.198-1.386c-1.278 0-2.034-.882-2.034-2.538V39.42c0-1.656.756-2.538 2.034-2.538 1.188 0 2.142.774 2.754 2.106v2.736c-.612 1.332-1.566 2.106-2.754 2.106zm10.89 1.386c2.232 0 3.618-1.008 3.744-2.988h-1.53c-.108 1.008-.846 1.62-2.25 1.62-1.656 0-2.412-.828-2.412-2.646v-.414h6.264v-1.35c0-2.556-1.386-3.942-3.924-3.942-2.538 0-3.924 1.386-3.924 3.942v1.836c0 2.556 1.422 3.942 4.032 3.942zm-2.448-5.742c0-1.782.738-2.61 2.376-2.61 1.62 0 2.358.828 2.358 2.61h-4.734z"/>
    <circle cx="79.547" cy="39.547" r="13.633" fill="#333"/>
    <path fill="#fff" d="M78.258 40.985h2.42v-.169h3.668v-2.34h-3.669v-.168h-2.419v.168H74.59v2.34h3.668v.169zM390.422 131h7.524v-1.494h-5.904V118.76h-1.62V131zm12.093.216c1.35 0 2.394-.522 3.15-1.476l.054 1.26h1.35v-6.066c0-2.304-1.188-3.438-3.636-3.438-2.322 0-3.582 1.026-3.744 3.042h1.548c.054-1.134.828-1.674 2.142-1.674 1.44 0 2.106.666 2.106 2.106v.504h-2.232c-2.61 0-3.834 1.044-3.834 2.898 0 1.818 1.188 2.844 3.096 2.844zm.234-1.368c-1.17 0-1.746-.54-1.746-1.512 0-1.044.684-1.548 2.304-1.548h2.178v1.314c-.558 1.134-1.494 1.746-2.736 1.746zm7.11 1.152h1.584v-5.346c.306-1.782 1.152-2.556 2.664-2.556h.468v-1.566h-.63c-1.35 0-2.196.594-2.664 1.908l-.072-1.728h-1.35V131zm9.926 3.492c2.646 0 3.96-1.224 3.96-3.69v-9.09h-1.35l-.072 1.44c-.774-1.134-1.764-1.656-3.096-1.656-2.16 0-3.42 1.332-3.42 3.87v1.458c0 2.538 1.26 3.87 3.42 3.87 1.242 0 2.178-.45 2.934-1.422v1.53c0 1.62-.756 2.322-2.412 2.322-1.296 0-2.178-.432-2.268-1.512h-1.476c.126 1.908 1.422 2.88 3.78 2.88zm-.36-5.184c-1.278 0-2.034-.882-2.034-2.538v-1.35c0-1.656.756-2.538 2.034-2.538 1.17 0 2.124.756 2.736 2.07v2.286c-.612 1.314-1.566 2.07-2.736 2.07zm10.873 1.908c2.232 0 3.618-1.008 3.744-2.988h-1.53c-.108 1.008-.846 1.62-2.25 1.62-1.656 0-2.412-.828-2.412-2.646v-.414h6.264v-1.35c0-2.556-1.386-3.942-3.924-3.942-2.538 0-3.924 1.386-3.924 3.942v1.836c0 2.556 1.422 3.942 4.032 3.942zm-2.448-5.742c0-1.782.738-2.61 2.376-2.61 1.62 0 2.358.828 2.358 2.61h-4.734zM441.504 131h4.212c3.204 0 4.644-1.494 4.644-4.752v-2.736c0-3.258-1.44-4.752-4.644-4.752h-4.212V131zm1.62-1.476v-9.288h2.394c2.304 0 3.222.936 3.222 3.294v2.7c0 2.358-.918 3.294-3.222 3.294h-2.394zM453.14 131h1.566v-9.864l5.976 9.864h1.584v-12.24H460.7v9.306l-5.634-9.306h-1.926V131zm10.952 0h1.674l1.116-3.132h4.932L472.93 131h1.728l-4.464-12.24h-1.638L464.092 131zm3.312-4.608l1.944-5.562 1.944 5.562h-3.888zM481.5 131h1.584v-7.992h2.412v-1.296h-2.412v-1.008c0-1.116.36-1.512 1.332-1.512h1.152v-1.332h-1.494c-1.728 0-2.574.954-2.574 2.898v.954h-1.692v1.296h1.692V131zm5.703 0h1.584v-5.346c.306-1.782 1.152-2.556 2.664-2.556h.468v-1.566h-.63c-1.35 0-2.196.594-2.664 1.908l-.072-1.728h-1.35V131zm8.757.216c1.35 0 2.394-.522 3.15-1.476l.054 1.26h1.35v-6.066c0-2.304-1.188-3.438-3.636-3.438-2.322 0-3.582 1.026-3.744 3.042h1.548c.054-1.134.828-1.674 2.142-1.674 1.44 0 2.106.666 2.106 2.106v.504h-2.232c-2.61 0-3.834 1.044-3.834 2.898 0 1.818 1.188 2.844 3.096 2.844zm.234-1.368c-1.17 0-1.746-.54-1.746-1.512 0-1.044.684-1.548 2.304-1.548h2.178v1.314c-.558 1.134-1.494 1.746-2.736 1.746zm10.621 4.644c2.646 0 3.96-1.224 3.96-3.69v-9.09h-1.35l-.072 1.44c-.774-1.134-1.764-1.656-3.096-1.656-2.16 0-3.42 1.332-3.42 3.87v1.458c0 2.538 1.26 3.87 3.42 3.87 1.242 0 2.178-.45 2.934-1.422v1.53c0 1.62-.756 2.322-2.412 2.322-1.296 0-2.178-.432-2.268-1.512h-1.476c.126 1.908 1.422 2.88 3.78 2.88zm-.36-5.184c-1.278 0-2.034-.882-2.034-2.538v-1.35c0-1.656.756-2.538 2.034-2.538 1.17 0 2.124.756 2.736 2.07v2.286c-.612 1.314-1.566 2.07-2.736 2.07zm7.309 1.692h1.584v-5.994c.684-1.44 1.458-2.052 2.448-2.052.972 0 1.512.594 1.512 1.836V131h1.584v-6.084c.684-1.35 1.476-1.962 2.448-1.962s1.512.594 1.512 1.836V131h1.584v-6.336c0-2.052-1.026-3.168-2.88-3.168-1.188 0-2.142.468-2.916 1.62-.378-1.062-1.26-1.62-2.556-1.62-1.26 0-2.178.522-2.916 1.674l-.054-1.458h-1.35V131zm19.085.216c2.232 0 3.618-1.008 3.744-2.988h-1.53c-.108 1.008-.846 1.62-2.25 1.62-1.656 0-2.412-.828-2.412-2.646v-.414h6.264v-1.35c0-2.556-1.386-3.942-3.924-3.942-2.538 0-3.924 1.386-3.924 3.942v1.836c0 2.556 1.422 3.942 4.032 3.942zm-2.448-5.742c0-1.782.738-2.61 2.376-2.61 1.62 0 2.358.828 2.358 2.61h-4.734zm8.745 5.526h1.584v-6.03c.666-1.368 1.512-2.016 2.61-2.016 1.098 0 1.638.63 1.638 2.088V131h1.584v-6.102c0-2.232-.972-3.402-2.916-3.402-1.296 0-2.286.522-3.096 1.674l-.054-1.458h-1.35V131zm13.093 0h1.44v-1.368h-1.062c-1.062 0-1.332-.306-1.332-1.512v-5.112h2.286v-1.296h-2.286v-2.448h-1.422l-.126 2.448h-1.638v1.296h1.602v5.094c0 2.034.756 2.898 2.538 2.898zM370.435 240h1.566v-10.188L375.943 240h1.17l3.924-10.152V240h1.62v-12.24h-2.412l-3.69 9.612-3.69-9.612h-2.43V240zm18.941.216c2.232 0 3.618-1.008 3.744-2.988h-1.53c-.108 1.008-.846 1.62-2.25 1.62-1.656 0-2.412-.828-2.412-2.646v-.414h6.264v-1.35c0-2.556-1.386-3.942-3.924-3.942-2.538 0-3.924 1.386-3.924 3.942v1.836c0 2.556 1.422 3.942 4.032 3.942zm-2.448-5.742c0-1.782.738-2.61 2.376-2.61 1.62 0 2.358.828 2.358 2.61h-4.734zm11.715 5.742c1.35 0 2.34-.522 3.132-1.692l.054 1.476h1.35v-13.14h-1.584v5.076c-.756-.99-1.71-1.44-2.952-1.44-2.16 0-3.42 1.332-3.42 3.87v1.98c0 2.538 1.26 3.87 3.42 3.87zm.198-1.386c-1.278 0-2.034-.882-2.034-2.538v-1.872c0-1.656.756-2.538 2.034-2.538 1.188 0 2.142.774 2.754 2.106v2.736c-.612 1.332-1.566 2.106-2.754 2.106zm7.255-9.792h1.728v-1.764h-1.728v1.764zm.072 10.962h1.584v-9.288h-1.584V240zm7.378.216c1.314 0 2.322-.522 3.132-1.692l.054 1.476h1.35v-9.288h-1.584v6.03c-.684 1.368-1.548 2.016-2.664 2.016s-1.656-.63-1.656-2.088v-5.958h-1.584v6.102c0 2.232.99 3.402 2.952 3.402zm7.528-.216h1.584v-5.994c.684-1.44 1.458-2.052 2.448-2.052.972 0 1.512.594 1.512 1.836V240h1.584v-6.084c.684-1.35 1.476-1.962 2.448-1.962s1.512.594 1.512 1.836V240h1.584v-6.336c0-2.052-1.026-3.168-2.88-3.168-1.188 0-2.142.468-2.916 1.62-.378-1.062-1.26-1.62-2.556-1.62-1.26 0-2.178.522-2.916 1.674l-.054-1.458h-1.35V240zm20.43 0h4.212c3.204 0 4.644-1.494 4.644-4.752v-2.736c0-3.258-1.44-4.752-4.644-4.752h-4.212V240zm1.62-1.476v-9.288h2.394c2.304 0 3.222.936 3.222 3.294v2.7c0 2.358-.918 3.294-3.222 3.294h-2.394zM453.14 240h1.566v-9.864l5.976 9.864h1.584v-12.24H460.7v9.306l-5.634-9.306h-1.926V240zm10.952 0h1.674l1.116-3.132h4.932L472.93 240h1.728l-4.464-12.24h-1.638L464.092 240zm3.312-4.608l1.944-5.562 1.944 5.562h-3.888zM481.5 240h1.584v-7.992h2.412v-1.296h-2.412v-1.008c0-1.116.36-1.512 1.332-1.512h1.152v-1.332h-1.494c-1.728 0-2.574.954-2.574 2.898v.954h-1.692v1.296h1.692V240zm5.703 0h1.584v-5.346c.306-1.782 1.152-2.556 2.664-2.556h.468v-1.566h-.63c-1.35 0-2.196.594-2.664 1.908l-.072-1.728h-1.35V240zm8.757.216c1.35 0 2.394-.522 3.15-1.476l.054 1.26h1.35v-6.066c0-2.304-1.188-3.438-3.636-3.438-2.322 0-3.582 1.026-3.744 3.042h1.548c.054-1.134.828-1.674 2.142-1.674 1.44 0 2.106.666 2.106 2.106v.504h-2.232c-2.61 0-3.834 1.044-3.834 2.898 0 1.818 1.188 2.844 3.096 2.844zm.234-1.368c-1.17 0-1.746-.54-1.746-1.512 0-1.044.684-1.548 2.304-1.548h2.178v1.314c-.558 1.134-1.494 1.746-2.736 1.746zm10.621 4.644c2.646 0 3.96-1.224 3.96-3.69v-9.09h-1.35l-.072 1.44c-.774-1.134-1.764-1.656-3.096-1.656-2.16 0-3.42 1.332-3.42 3.87v1.458c0 2.538 1.26 3.87 3.42 3.87 1.242 0 2.178-.45 2.934-1.422v1.53c0 1.62-.756 2.322-2.412 2.322-1.296 0-2.178-.432-2.268-1.512h-1.476c.126 1.908 1.422 2.88 3.78 2.88zm-.36-5.184c-1.278 0-2.034-.882-2.034-2.538v-1.35c0-1.656.756-2.538 2.034-2.538 1.17 0 2.124.756 2.736 2.07v2.286c-.612 1.314-1.566 2.07-2.736 2.07zm7.309 1.692h1.584v-5.994c.684-1.44 1.458-2.052 2.448-2.052.972 0 1.512.594 1.512 1.836V240h1.584v-6.084c.684-1.35 1.476-1.962 2.448-1.962s1.512.594 1.512 1.836V240h1.584v-6.336c0-2.052-1.026-3.168-2.88-3.168-1.188 0-2.142.468-2.916 1.62-.378-1.062-1.26-1.62-2.556-1.62-1.26 0-2.178.522-2.916 1.674l-.054-1.458h-1.35V240zm19.085.216c2.232 0 3.618-1.008 3.744-2.988h-1.53c-.108 1.008-.846 1.62-2.25 1.62-1.656 0-2.412-.828-2.412-2.646v-.414h6.264v-1.35c0-2.556-1.386-3.942-3.924-3.942-2.538 0-3.924 1.386-3.924 3.942v1.836c0 2.556 1.422 3.942 4.032 3.942zm-2.448-5.742c0-1.782.738-2.61 2.376-2.61 1.62 0 2.358.828 2.358 2.61h-4.734zm8.745 5.526h1.584v-6.03c.666-1.368 1.512-2.016 2.61-2.016 1.098 0 1.638.63 1.638 2.088V240h1.584v-6.102c0-2.232-.972-3.402-2.916-3.402-1.296 0-2.286.522-3.096 1.674l-.054-1.458h-1.35V240zm13.093 0h1.44v-1.368h-1.062c-1.062 0-1.332-.306-1.332-1.512v-5.112h2.286v-1.296h-2.286v-2.448h-1.422l-.126 2.448h-1.638v1.296h1.602v5.094c0 2.034.756 2.898 2.538 2.898zM395.581 376.216c2.862 0 4.302-1.188 4.302-3.582 0-2.232-1.116-3.24-4.068-3.618-2.07-.27-2.826-.846-2.826-2.07 0-1.242.918-1.926 2.592-1.926 1.692 0 2.502.684 2.502 2.106h1.62c0-2.394-1.368-3.582-4.068-3.582-2.754 0-4.248 1.224-4.248 3.564 0 2.106 1.044 3.06 3.852 3.438 2.25.306 3.042.918 3.042 2.232 0 1.296-.9 1.962-2.682 1.962-1.854 0-2.808-.738-2.808-2.214h-1.62c0 2.466 1.494 3.69 4.41 3.69zm6.614-.216h1.584v-5.994c.684-1.44 1.458-2.052 2.448-2.052.972 0 1.512.594 1.512 1.836V376h1.584v-6.084c.684-1.35 1.476-1.962 2.448-1.962s1.512.594 1.512 1.836V376h1.584v-6.336c0-2.052-1.026-3.168-2.88-3.168-1.188 0-2.142.468-2.916 1.62-.378-1.062-1.26-1.62-2.556-1.62-1.26 0-2.178.522-2.916 1.674l-.054-1.458h-1.35V376zm17.916.216c1.35 0 2.394-.522 3.15-1.476l.054 1.26h1.35v-6.066c0-2.304-1.188-3.438-3.636-3.438-2.322 0-3.582 1.026-3.744 3.042h1.548c.054-1.134.828-1.674 2.142-1.674 1.44 0 2.106.666 2.106 2.106v.504h-2.232c-2.61 0-3.834 1.044-3.834 2.898 0 1.818 1.188 2.844 3.096 2.844zm.234-1.368c-1.17 0-1.746-.54-1.746-1.512 0-1.044.684-1.548 2.304-1.548h2.178v1.314c-.558 1.134-1.494 1.746-2.736 1.746zm7.11 1.152h1.584v-13.14h-1.584V376zm4.57 0h1.584v-13.14h-1.584V376zm9.479 0h4.212c3.204 0 4.644-1.494 4.644-4.752v-2.736c0-3.258-1.44-4.752-4.644-4.752h-4.212V376zm1.62-1.476v-9.288h2.394c2.304 0 3.222.936 3.222 3.294v2.7c0 2.358-.918 3.294-3.222 3.294h-2.394zM453.14 376h1.566v-9.864l5.976 9.864h1.584v-12.24H460.7v9.306l-5.634-9.306h-1.926V376zm10.952 0h1.674l1.116-3.132h4.932L472.93 376h1.728l-4.464-12.24h-1.638L464.092 376zm3.312-4.608l1.944-5.562 1.944 5.562h-3.888zM481.5 376h1.584v-7.992h2.412v-1.296h-2.412v-1.008c0-1.116.36-1.512 1.332-1.512h1.152v-1.332h-1.494c-1.728 0-2.574.954-2.574 2.898v.954h-1.692v1.296h1.692V376zm5.703 0h1.584v-5.346c.306-1.782 1.152-2.556 2.664-2.556h.468v-1.566h-.63c-1.35 0-2.196.594-2.664 1.908l-.072-1.728h-1.35V376zm8.757.216c1.35 0 2.394-.522 3.15-1.476l.054 1.26h1.35v-6.066c0-2.304-1.188-3.438-3.636-3.438-2.322 0-3.582 1.026-3.744 3.042h1.548c.054-1.134.828-1.674 2.142-1.674 1.44 0 2.106.666 2.106 2.106v.504h-2.232c-2.61 0-3.834 1.044-3.834 2.898 0 1.818 1.188 2.844 3.096 2.844zm.234-1.368c-1.17 0-1.746-.54-1.746-1.512 0-1.044.684-1.548 2.304-1.548h2.178v1.314c-.558 1.134-1.494 1.746-2.736 1.746zm10.621 4.644c2.646 0 3.96-1.224 3.96-3.69v-9.09h-1.35l-.072 1.44c-.774-1.134-1.764-1.656-3.096-1.656-2.16 0-3.42 1.332-3.42 3.87v1.458c0 2.538 1.26 3.87 3.42 3.87 1.242 0 2.178-.45 2.934-1.422v1.53c0 1.62-.756 2.322-2.412 2.322-1.296 0-2.178-.432-2.268-1.512h-1.476c.126 1.908 1.422 2.88 3.78 2.88zm-.36-5.184c-1.278 0-2.034-.882-2.034-2.538v-1.35c0-1.656.756-2.538 2.034-2.538 1.17 0 2.124.756 2.736 2.07v2.286c-.612 1.314-1.566 2.07-2.736 2.07zm7.309 1.692h1.584v-5.994c.684-1.44 1.458-2.052 2.448-2.052.972 0 1.512.594 1.512 1.836V376h1.584v-6.084c.684-1.35 1.476-1.962 2.448-1.962s1.512.594 1.512 1.836V376h1.584v-6.336c0-2.052-1.026-3.168-2.88-3.168-1.188 0-2.142.468-2.916 1.62-.378-1.062-1.26-1.62-2.556-1.62-1.26 0-2.178.522-2.916 1.674l-.054-1.458h-1.35V376zm19.085.216c2.232 0 3.618-1.008 3.744-2.988h-1.53c-.108 1.008-.846 1.62-2.25 1.62-1.656 0-2.412-.828-2.412-2.646v-.414h6.264v-1.35c0-2.556-1.386-3.942-3.924-3.942-2.538 0-3.924 1.386-3.924 3.942v1.836c0 2.556 1.422 3.942 4.032 3.942zm-2.448-5.742c0-1.782.738-2.61 2.376-2.61 1.62 0 2.358.828 2.358 2.61h-4.734zm8.745 5.526h1.584v-6.03c.666-1.368 1.512-2.016 2.61-2.016 1.098 0 1.638.63 1.638 2.088V376h1.584v-6.102c0-2.232-.972-3.402-2.916-3.402-1.296 0-2.286.522-3.096 1.674l-.054-1.458h-1.35V376zm13.093 0h1.44v-1.368h-1.062c-1.062 0-1.332-.306-1.332-1.512v-5.112h2.286v-1.296h-2.286v-2.448h-1.422l-.126 2.448h-1.638v1.296h1.602v5.094c0 2.034.756 2.898 2.538 2.898z"/>
    <path stroke="#fff" stroke-width="2" d="M241 386h312M241 248h313M241 140h313"/>
    <path fill="#C4C4C4" fill-opacity=".01" d="M163 132h73v16h-73z" filter="url(#b)"/>
    <path fill="#C4C4C4" fill-opacity=".01" d="M163 228h73v37h-73z" filter="url(#c)"/>
    <path fill="#C4C4C4" fill-opacity=".01" d="M163 377h73v17h-73z" filter="url(#d)"/>
    <path fill="#fff" d="M28.94 425.061a1.502 1.502 0 0 0 2.12 0l9.547-9.546a1.5 1.5 0 0 0-2.122-2.122L30 421.879l-8.485-8.486a1.501 1.501 0 0 0-2.122 2.122l9.546 9.546zM28.5 74v350h3V74h-3z"/>
    <defs>
        <filter id="b" width="81" height="24" x="159" y="128" color-interpolation-filters="sRGB" filterUnits="userSpaceOnUse">
            <feFlood flood-opacity="0" result="BackgroundImageFix"/>
            <feColorMatrix in="SourceAlpha" values="0 0 0 0 0 0 0 0 0 0 0 0 0 0 0 0 0 0 127 0"/>
            <feOffset/>
            <feGaussianBlur stdDeviation="2"/>
            <feColorMatrix values="0 0 0 0 0 0 0 0 0 0.682353 0 0 0 0 0.937255 0 0 0 1 0"/>
            <feBlend in2="BackgroundImageFix" result="effect1_dropShadow"/>
            <feBlend in="SourceGraphic" in2="effect1_dropShadow" result="shape"/>
        </filter>
        <filter id="c" width="81" height="45" x="159" y="224" color-interpolation-filters="sRGB" filterUnits="userSpaceOnUse">
            <feFlood flood-opacity="0" result="BackgroundImageFix"/>
            <feColorMatrix in="SourceAlpha" values="0 0 0 0 0 0 0 0 0 0 0 0 0 0 0 0 0 0 127 0"/>
            <feOffset/>
            <feGaussianBlur stdDeviation="2"/>
            <feColorMatrix values="0 0 0 0 0 0 0 0 0 0.682353 0 0 0 0 0.937255 0 0 0 1 0"/>
            <feBlend in2="BackgroundImageFix" result="effect1_dropShadow"/>
            <feBlend in="SourceGraphic" in2="effect1_dropShadow" result="shape"/>
        </filter>
        <filter id="d" width="81" height="25" x="159" y="373" color-interpolation-filters="sRGB" filterUnits="userSpaceOnUse">
            <feFlood flood-opacity="0" result="BackgroundImageFix"/>
            <feColorMatrix in="SourceAlpha" values="0 0 0 0 0 0 0 0 0 0 0 0 0 0 0 0 0 0 127 0"/>
            <feOffset/>
            <feGaussianBlur stdDeviation="2"/>
            <feColorMatrix values="0 0 0 0 0 0 0 0 0 0.682353 0 0 0 0 0.937255 0 0 0 1 0"/>
            <feBlend in2="BackgroundImageFix" result="effect1_dropShadow"/>
            <feBlend in="SourceGraphic" in2="effect1_dropShadow" result="shape"/>
        </filter>
        <linearGradient id="a" x1="50" x2="290" y1="13" y2="496" gradientUnits="userSpaceOnUse">
            <stop stop-color="#0052A2"/>
            <stop offset="1" stop-color="#003E6B"/>
        </linearGradient>
    </defs>
</svg>
