<svg width="589" height="218" viewBox="0 0 589 218" fill="none" xmlns="http://www.w3.org/2000/svg">
<rect y="0.171143" width="589" height="217" rx="5" fill="url(#paint0_linear)"/>
<path d="M95.094 72.3271C96.953 72.3271 98.084 71.3651 98.435 69.3891L98.63 68.2841C98.682 67.9851 98.708 67.7771 98.708 67.5301C98.708 66.0741 97.85 65.3071 96.186 65.3071C94.327 65.3071 93.196 66.2691 92.845 68.2451L92.65 69.3501C92.598 69.6491 92.572 69.8571 92.572 70.1041C92.572 71.5601 93.43 72.3271 95.094 72.3271ZM95.159 71.3261C94.21 71.3261 93.729 70.8971 93.729 70.0001C93.729 69.7921 93.755 69.5841 93.794 69.3631L93.976 68.3231C94.21 66.9971 94.899 66.3081 96.121 66.3081C97.07 66.3081 97.551 66.7371 97.551 67.6341C97.551 67.8421 97.525 68.0501 97.486 68.2711L97.304 69.3111C97.07 70.6371 96.381 71.3261 95.159 71.3261ZM99.7684 72.1711H100.912L101.601 68.2581C102.056 67.0231 102.784 66.4641 103.863 66.4641H104.175L104.37 65.3331H103.876C102.914 65.3331 102.251 65.7361 101.77 66.6461L101.926 65.4631H100.951L99.7684 72.1711ZM105.767 64.2541H107.015L107.236 62.9801H105.988L105.767 64.2541ZM104.428 72.1711H105.572L106.755 65.4631H105.611L104.428 72.1711ZM94.275 93.3271C95.159 93.3271 95.952 93.0281 96.654 92.3001L96.537 93.1711H97.512L98.279 88.8291C98.318 88.5951 98.331 88.3611 98.331 88.1921C98.331 86.9701 97.616 86.3071 96.004 86.3071C94.392 86.3071 93.365 86.9701 93.001 88.5041H94.119C94.288 87.7111 94.951 87.2951 95.913 87.2951C96.771 87.2951 97.174 87.6201 97.174 88.3481C97.174 88.4781 97.161 88.6601 97.135 88.8161L97.07 89.1801H95.393C93.495 89.1801 92.286 89.9991 92.286 91.5461C92.286 92.7551 93.04 93.3271 94.275 93.3271ZM94.483 92.3391C93.755 92.3391 93.43 92.0661 93.43 91.4811C93.43 90.5841 94.158 90.1291 95.328 90.1291H96.901L96.745 91.0131C96.186 91.8711 95.432 92.3391 94.483 92.3391ZM99.5145 93.1711H100.659L101.348 89.2581C101.803 88.0231 102.531 87.4641 103.61 87.4641H103.922L104.117 86.3331H103.623C102.661 86.3331 101.998 86.7361 101.517 87.6461L101.673 86.4631H100.698L99.5145 93.1711ZM105.891 93.3271C106.775 93.3271 107.568 93.0281 108.27 92.3001L108.153 93.1711H109.128L109.895 88.8291C109.934 88.5951 109.947 88.3611 109.947 88.1921C109.947 86.9701 109.232 86.3071 107.62 86.3071C106.008 86.3071 104.981 86.9701 104.617 88.5041H105.735C105.904 87.7111 106.567 87.2951 107.529 87.2951C108.387 87.2951 108.79 87.6201 108.79 88.3481C108.79 88.4781 108.777 88.6601 108.751 88.8161L108.686 89.1801H107.009C105.111 89.1801 103.902 89.9991 103.902 91.5461C103.902 92.7551 104.656 93.3271 105.891 93.3271ZM106.099 92.3391C105.371 92.3391 105.046 92.0661 105.046 91.4811C105.046 90.5841 105.774 90.1291 106.944 90.1291H108.517L108.361 91.0131C107.802 91.8711 107.048 92.3391 106.099 92.3391ZM114.225 93.3271C116.266 93.3271 117.462 92.3391 117.904 90.2721H116.747C116.448 91.5981 115.655 92.2611 114.277 92.2611C113.107 92.2611 112.548 91.7801 112.548 90.6621C112.548 90.4151 112.574 90.1161 112.626 89.8171L112.99 87.7501C113.289 86.0341 114.095 85.2411 115.603 85.2411C116.773 85.2411 117.332 85.7091 117.332 86.7491C117.332 86.9051 117.319 87.0741 117.293 87.2431H118.437C118.476 87.0091 118.489 86.8011 118.489 86.5411C118.489 84.9941 117.54 84.1751 115.681 84.1751C113.445 84.1751 112.249 85.3581 111.846 87.6331L111.469 89.7651C111.404 90.1291 111.365 90.4541 111.365 90.7921C111.365 92.4561 112.314 93.3271 114.225 93.3271ZM92.065 116.537H93.209L93.794 113.222C94.223 113.976 94.873 114.327 95.809 114.327C97.395 114.327 98.383 113.339 98.695 111.558L98.942 110.141C98.994 109.868 99.02 109.608 99.02 109.361C99.02 108.061 98.292 107.307 96.914 107.307C95.978 107.307 95.211 107.658 94.509 108.464L94.652 107.463H93.677L92.065 116.537ZM95.731 113.326C94.886 113.326 94.314 112.793 94.041 111.844L94.392 109.868C95.029 108.88 95.835 108.308 96.693 108.308C97.46 108.308 97.863 108.763 97.863 109.53C97.863 109.725 97.837 109.92 97.798 110.128L97.564 111.454C97.356 112.624 96.706 113.326 95.731 113.326ZM100.177 114.171H103.895C105.975 114.171 107.184 113.131 107.184 111.337C107.184 110.388 106.846 109.829 106.04 109.569V109.543C107.067 109.179 107.587 108.412 107.587 107.268C107.587 105.903 106.846 105.331 105.104 105.331H101.737L100.177 114.171ZM102.231 109.127L102.725 106.397H104.896C106.027 106.397 106.417 106.67 106.417 107.463C106.417 108.529 105.702 109.127 104.376 109.127H102.231ZM101.529 113.105L102.049 110.193H104.259C105.585 110.193 106.027 110.479 106.027 111.324C106.027 112.455 105.221 113.105 103.843 113.105H101.529ZM107.376 114.171H108.624L109.833 111.909H113.382L113.798 114.171H115.007L113.33 105.331H112.147L107.376 114.171ZM110.392 110.843L112.498 106.826L113.2 110.843H110.392ZM116.326 114.171H119.433C121.773 114.171 122.904 113.144 123.32 110.791L123.671 108.802C123.736 108.425 123.775 108.087 123.775 107.749C123.775 106.085 122.787 105.331 120.876 105.331H117.886L116.326 114.171ZM117.678 113.105L118.874 106.397H120.642C122.007 106.397 122.592 106.839 122.592 107.944C122.592 108.178 122.566 108.451 122.514 108.75L122.163 110.739C121.877 112.364 121.058 113.105 119.407 113.105H117.678ZM92.494 135.171H93.638L94.327 131.258C94.782 130.023 95.51 129.464 96.589 129.464H96.901L97.096 128.333H96.602C95.64 128.333 94.977 128.736 94.496 129.646L94.652 128.463H93.677L92.494 135.171ZM97.4652 135.171H98.6092L99.6232 129.399H101.365L101.521 128.463H99.7922L99.9222 127.735C100.065 126.916 100.403 126.643 101.092 126.643H101.898L102.067 125.681H100.949C99.7012 125.681 99.0252 126.305 98.7782 127.735L98.6482 128.463H97.4132L97.2572 129.399H98.4792L97.4652 135.171ZM101.155 137.537H102.299L102.884 134.222C103.313 134.976 103.963 135.327 104.899 135.327C106.485 135.327 107.473 134.339 107.785 132.558L108.032 131.141C108.084 130.868 108.11 130.608 108.11 130.361C108.11 129.061 107.382 128.307 106.004 128.307C105.068 128.307 104.301 128.658 103.599 129.464L103.742 128.463H102.767L101.155 137.537ZM104.821 134.326C103.976 134.326 103.404 133.793 103.131 132.844L103.482 130.868C104.119 129.88 104.925 129.308 105.783 129.308C106.55 129.308 106.953 129.763 106.953 130.53C106.953 130.725 106.927 130.92 106.888 131.128L106.654 132.454C106.446 133.624 105.796 134.326 104.821 134.326ZM94.275 156.327C95.159 156.327 95.952 156.028 96.654 155.3L96.537 156.171H97.512L98.279 151.829C98.318 151.595 98.331 151.361 98.331 151.192C98.331 149.97 97.616 149.307 96.004 149.307C94.392 149.307 93.365 149.97 93.001 151.504H94.119C94.288 150.711 94.951 150.295 95.913 150.295C96.771 150.295 97.174 150.62 97.174 151.348C97.174 151.478 97.161 151.66 97.135 151.816L97.07 152.18H95.393C93.495 152.18 92.286 152.999 92.286 154.546C92.286 155.755 93.04 156.327 94.275 156.327ZM94.483 155.339C93.755 155.339 93.43 155.066 93.43 154.481C93.43 153.584 94.158 153.129 95.328 153.129H96.901L96.745 154.013C96.186 154.871 95.432 155.339 94.483 155.339ZM99.5145 156.171H100.659L101.426 151.855C102.102 150.828 102.752 150.36 103.48 150.36C104.052 150.36 104.351 150.633 104.351 151.231C104.351 151.361 104.338 151.517 104.312 151.673L103.519 156.171H104.663L105.43 151.803C106.106 150.828 106.769 150.36 107.497 150.36C108.056 150.36 108.355 150.633 108.355 151.231C108.355 151.361 108.342 151.517 108.316 151.673L107.523 156.171H108.667L109.473 151.608C109.512 151.387 109.512 151.192 109.512 151.036C109.512 149.905 108.888 149.307 107.718 149.307C106.886 149.307 106.158 149.619 105.469 150.451C105.287 149.723 104.715 149.307 103.766 149.307C102.895 149.307 102.193 149.658 101.543 150.451L101.673 149.463H100.698L99.5145 156.171ZM110.295 158.537H111.439L112.024 155.222C112.453 155.976 113.103 156.327 114.039 156.327C115.625 156.327 116.613 155.339 116.925 153.558L117.172 152.141C117.224 151.868 117.25 151.608 117.25 151.361C117.25 150.061 116.522 149.307 115.144 149.307C114.208 149.307 113.441 149.658 112.739 150.464L112.882 149.463H111.907L110.295 158.537ZM113.961 155.326C113.116 155.326 112.544 154.793 112.271 153.844L112.622 151.868C113.259 150.88 114.065 150.308 114.923 150.308C115.69 150.308 116.093 150.763 116.093 151.53C116.093 151.725 116.067 151.92 116.028 152.128L115.794 153.454C115.586 154.624 114.936 155.326 113.961 155.326ZM118.408 156.171H119.578L120.215 152.583H122.23L123.699 156.171H124.96L123.452 152.492C124.986 152.193 125.805 151.14 125.805 149.463C125.805 147.929 125.116 147.331 123.309 147.331H119.968L118.408 156.171ZM120.397 151.517L120.956 148.397H123.088C124.271 148.397 124.635 148.683 124.635 149.554C124.635 150.802 123.894 151.517 122.49 151.517H120.397Z" fill="white"/>
<rect x="71" y="61.1711" width="13" height="13" rx="6.5" fill="#333332"/>
<rect x="71" y="82.1711" width="13" height="13" rx="6.5" fill="#1399F1"/>
<rect x="71" y="103.171" width="13" height="13" rx="6.5" fill="#008D36"/>
<rect x="71" y="124.171" width="13" height="13" rx="6.5" fill="#E52826"/>
<rect x="71" y="145.171" width="13" height="13" rx="6.5" fill="#66A1DB"/>
<path d="M373.686 65.4272H378.214C380.614 65.4272 381.718 64.4672 381.718 62.4192C381.718 60.9792 381.174 60.1312 379.926 59.7472V59.7152C380.918 59.3472 381.35 58.5792 381.35 57.3632C381.35 55.4272 380.23 54.5472 377.894 54.5472H373.686V65.4272ZM375.126 59.2192V55.8592H377.782C379.302 55.8592 379.926 56.3392 379.926 57.5552C379.926 58.7552 379.318 59.2192 377.798 59.2192H375.126ZM375.126 64.1152V60.5312H377.83C379.606 60.5312 380.278 61.0272 380.278 62.3232C380.278 63.5872 379.638 64.1152 378.006 64.1152H375.126ZM386.185 65.6192C387.385 65.6192 388.313 65.1552 388.985 64.3072L389.033 65.4272H390.233V60.0352C390.233 57.9872 389.177 56.9792 387.001 56.9792C384.937 56.9792 383.817 57.8912 383.673 59.6832H385.049C385.097 58.6752 385.785 58.1952 386.953 58.1952C388.233 58.1952 388.825 58.7872 388.825 60.0672V60.5152H386.841C384.521 60.5152 383.433 61.4432 383.433 63.0912C383.433 64.7072 384.489 65.6192 386.185 65.6192ZM386.393 64.4032C385.353 64.4032 384.841 63.9232 384.841 63.0592C384.841 62.1312 385.449 61.6832 386.889 61.6832H388.825V62.8512C388.329 63.8592 387.497 64.4032 386.393 64.4032ZM392.713 65.4272H394.121V60.0992C394.729 58.8192 395.417 58.2752 396.297 58.2752C397.161 58.2752 397.641 58.8032 397.641 59.9072V65.4272H399.049V60.0192C399.657 58.8192 400.361 58.2752 401.225 58.2752C402.089 58.2752 402.569 58.8032 402.569 59.9072V65.4272H403.977V59.7952C403.977 57.9712 403.065 56.9792 401.417 56.9792C400.361 56.9792 399.513 57.3952 398.825 58.4192C398.489 57.4752 397.705 56.9792 396.553 56.9792C395.433 56.9792 394.617 57.4432 393.961 58.4672L393.913 57.1712H392.713V65.4272ZM406.654 65.4272H408.094V60.5312H413.358V65.4272H414.798V54.5472H413.358V59.1872H408.094V54.5472H406.654V65.4272ZM417.748 65.4272H419.188V54.5472H417.748V65.4272Z" fill="white"/>
<path d="M407.301 117.339H408.709L409.429 113.259C409.957 114.187 410.757 114.619 411.909 114.619C413.861 114.619 415.077 113.403 415.461 111.211L415.765 109.467C415.829 109.131 415.861 108.811 415.861 108.507C415.861 106.907 414.965 105.979 413.269 105.979C412.117 105.979 411.173 106.411 410.309 107.403L410.485 106.171H409.285L407.301 117.339ZM411.813 113.387C410.773 113.387 410.069 112.731 409.733 111.563L410.165 109.131C410.949 107.915 411.941 107.211 412.997 107.211C413.941 107.211 414.437 107.771 414.437 108.715C414.437 108.955 414.405 109.195 414.357 109.451L414.069 111.083C413.813 112.523 413.013 113.387 411.813 113.387ZM417.286 114.427H421.862C424.422 114.427 425.91 113.147 425.91 110.939C425.91 109.771 425.494 109.083 424.502 108.763V108.731C425.766 108.283 426.406 107.339 426.406 105.931C426.406 104.251 425.494 103.547 423.35 103.547H419.206L417.286 114.427ZM419.814 108.219L420.422 104.859H423.094C424.486 104.859 424.966 105.195 424.966 106.171C424.966 107.483 424.086 108.219 422.454 108.219H419.814ZM418.95 113.115L419.59 109.531H422.31C423.942 109.531 424.486 109.883 424.486 110.923C424.486 112.315 423.494 113.115 421.798 113.115H418.95ZM426.145 114.427H427.681L429.169 111.643H433.537L434.049 114.427H435.537L433.473 103.547H432.017L426.145 114.427ZM429.857 110.331L432.449 105.387L433.313 110.331H429.857ZM437.161 114.427H440.985C443.865 114.427 445.257 113.163 445.769 110.267L446.201 107.819C446.281 107.355 446.329 106.939 446.329 106.523C446.329 104.475 445.113 103.547 442.761 103.547H439.081L437.161 114.427ZM438.825 113.115L440.297 104.859H442.473C444.153 104.859 444.873 105.403 444.873 106.763C444.873 107.051 444.841 107.387 444.777 107.755L444.345 110.203C443.993 112.203 442.985 113.115 440.953 113.115H438.825ZM447.296 110.427H452.128L452.368 109.035H447.536L447.296 110.427ZM453.314 114.427H454.722L455.57 109.611C456.13 108.091 457.026 107.403 458.354 107.403H458.738L458.978 106.011H458.37C457.186 106.011 456.37 106.507 455.778 107.627L455.97 106.171H454.77L453.314 114.427ZM459.432 114.427H460.84L462.088 107.323H464.232L464.424 106.171H462.296L462.456 105.275C462.632 104.267 463.048 103.931 463.896 103.931H464.888L465.096 102.747H463.72C462.184 102.747 461.352 103.515 461.048 105.275L460.888 106.171H459.368L459.176 107.323H460.68L459.432 114.427ZM463.973 117.339H465.381L466.101 113.259C466.629 114.187 467.429 114.619 468.581 114.619C470.533 114.619 471.749 113.403 472.133 111.211L472.437 109.467C472.501 109.131 472.533 108.811 472.533 108.507C472.533 106.907 471.637 105.979 469.941 105.979C468.789 105.979 467.845 106.411 466.981 107.403L467.157 106.171H465.957L463.973 117.339ZM468.485 113.387C467.445 113.387 466.741 112.731 466.405 111.563L466.837 109.131C467.621 107.915 468.613 107.211 469.669 107.211C470.613 107.211 471.109 107.771 471.109 108.715C471.109 108.955 471.077 109.195 471.029 109.451L470.741 111.083C470.485 112.523 469.685 113.387 468.485 113.387ZM421.28 134.619C423.888 134.619 425.296 133.515 425.296 131.499C425.296 130.139 424.656 129.227 423.424 128.795V128.763C424.464 128.363 424.992 127.547 424.992 126.363C424.992 124.459 423.632 123.355 421.296 123.355C418.96 123.355 417.584 124.459 417.584 126.363C417.584 127.547 418.112 128.363 419.136 128.763V128.795C417.904 129.211 417.264 130.139 417.264 131.499C417.264 133.515 418.672 134.619 421.28 134.619ZM421.28 128.219C419.776 128.219 418.976 127.595 418.976 126.443C418.976 125.259 419.824 124.635 421.28 124.635C422.768 124.635 423.6 125.275 423.6 126.443C423.6 127.595 422.784 128.219 421.28 128.219ZM421.28 133.339C419.552 133.339 418.672 132.683 418.672 131.419C418.672 130.155 419.552 129.499 421.28 129.499C423.008 129.499 423.888 130.155 423.888 131.419C423.888 132.683 423.008 133.339 421.28 133.339ZM430.905 134.619C433.337 134.619 434.649 133.355 434.649 131.003V126.971C434.649 124.619 433.337 123.355 430.905 123.355C428.473 123.355 427.161 124.619 427.161 126.971V131.003C427.161 133.355 428.473 134.619 430.905 134.619ZM430.905 133.339C429.337 133.339 428.569 132.539 428.569 130.907V127.067C428.569 125.435 429.337 124.635 430.905 124.635C432.473 124.635 433.241 125.435 433.241 127.067V130.907C433.241 132.539 432.473 133.339 430.905 133.339ZM438.402 134.427H439.906C440.066 130.683 441.538 127.659 444.37 124.939V123.547H436.642V124.891H442.738C440.05 127.467 438.562 130.699 438.402 134.427ZM450.699 134.619C452.619 134.619 453.739 133.435 453.739 131.179V129.419C453.739 127.163 452.619 125.979 450.699 125.979C449.595 125.979 448.747 126.379 448.075 127.259V122.747H446.667V134.427H447.867L447.915 133.115C448.619 134.155 449.499 134.619 450.699 134.619ZM450.523 133.387C449.483 133.387 448.619 132.699 448.075 131.515V129.083C448.619 127.899 449.467 127.211 450.523 127.211C451.659 127.211 452.331 127.995 452.331 129.467V131.131C452.331 132.603 451.659 133.387 450.523 133.387ZM455.979 137.339H457.387V133.339C458.059 134.219 458.907 134.619 460.011 134.619C461.931 134.619 463.051 133.435 463.051 131.179V129.419C463.051 127.163 461.931 125.979 460.011 125.979C458.811 125.979 457.931 126.443 457.227 127.483L457.179 126.171H455.979V137.339ZM459.835 133.387C458.779 133.387 457.931 132.699 457.387 131.515V129.083C457.931 127.899 458.779 127.211 459.835 127.211C460.971 127.211 461.643 127.995 461.643 129.467V131.131C461.643 132.603 460.971 133.387 459.835 133.387Z" fill="white"/>
<path d="M373.686 173.427H375.126V168.531H380.39V173.427H381.83V162.547H380.39V167.187H375.126V162.547H373.686V173.427ZM384.571 163.683H386.107V162.115H384.571V163.683ZM384.635 173.427H386.043V165.171H384.635V173.427ZM388.698 173.427H390.106V168.067C390.698 166.851 391.45 166.275 392.426 166.275C393.402 166.275 393.882 166.835 393.882 168.131V173.427H395.29V168.003C395.29 166.019 394.426 164.979 392.698 164.979C391.546 164.979 390.666 165.443 389.946 166.467L389.898 165.171H388.698V173.427ZM400.447 173.619C401.647 173.619 402.527 173.155 403.231 172.115L403.279 173.427H404.479V161.747H403.071V166.259C402.399 165.379 401.551 164.979 400.447 164.979C398.527 164.979 397.407 166.163 397.407 168.419V170.179C397.407 172.435 398.527 173.619 400.447 173.619ZM400.623 172.387C399.487 172.387 398.815 171.603 398.815 170.131V168.467C398.815 166.995 399.487 166.211 400.623 166.211C401.679 166.211 402.527 166.899 403.071 168.083V170.515C402.527 171.699 401.679 172.387 400.623 172.387ZM407.279 173.427H408.719V162.547H407.279V173.427ZM411.67 173.427H413.11V162.547H411.67V173.427ZM416.061 173.427H417.501V162.547H416.061V173.427Z" fill="white"/>
<path d="M232.831 106.703H235.495V102.671C236.125 103.337 236.917 103.643 237.925 103.643C240.067 103.643 241.273 102.311 241.273 99.7732V97.6672C241.273 95.1292 240.067 93.8152 237.925 93.8152C236.737 93.8152 235.873 94.2292 235.171 95.1652L235.099 94.0312H232.831V106.703ZM237.313 101.483C236.467 101.483 235.873 100.997 235.495 100.043V97.3972C235.873 96.4612 236.467 95.9752 237.295 95.9752C238.159 95.9752 238.609 96.4792 238.609 97.6852V99.7732C238.609 100.997 238.159 101.483 237.313 101.483ZM242.139 103.427H244.875L245.649 100.961H249.501L250.275 103.427H253.137L249.033 91.1872H246.243L242.139 103.427ZM246.315 98.7112L247.575 94.2472L248.835 98.7112H246.315ZM254.527 103.427H257.227V98.9092H258.685L261.115 103.427H264.193L261.547 98.6572C263.077 98.2072 263.725 97.0552 263.725 95.0572C263.725 92.3212 262.537 91.1872 259.531 91.1872H254.527V103.427ZM257.227 96.6052V93.4912H259.243C260.557 93.4912 261.025 93.9412 261.025 95.0572C261.025 96.1552 260.557 96.6052 259.243 96.6052H257.227ZM264.604 103.427H267.34L268.114 100.961H271.966L272.74 103.427H275.602L271.498 91.1872H268.708L264.604 103.427ZM268.78 98.7112L270.04 94.2472L271.3 98.7112H268.78ZM276.06 99.2332H281.766V96.9292H276.06V99.2332ZM283.707 103.427H286.407V98.9092H287.865L290.295 103.427H293.373L290.727 98.6572C292.257 98.2072 292.905 97.0552 292.905 95.0572C292.905 92.3212 291.717 91.1872 288.711 91.1872H283.707V103.427ZM286.407 96.6052V93.4912H288.423C289.737 93.4912 290.205 93.9412 290.205 95.0572C290.205 96.1552 289.737 96.6052 288.423 96.6052H286.407ZM234.028 125.643C237.07 125.643 238.6 124.239 238.6 121.377C238.6 118.731 237.286 117.309 234.856 117.309C233.92 117.309 233.128 117.525 232.48 118.029L232.642 115.473H238.042V113.187H230.428L229.978 120.243H232.3C232.75 119.793 233.344 119.505 234.118 119.505C235.306 119.505 235.936 120.171 235.936 121.449C235.936 122.727 235.306 123.393 234.01 123.393C232.894 123.393 232.228 122.889 232.174 122.007H229.618C229.636 124.419 231.184 125.643 234.028 125.643ZM244.787 125.643C247.775 125.643 249.287 124.455 249.287 122.007C249.287 120.531 248.729 119.559 247.469 119.073V119.037C248.513 118.551 248.999 117.669 248.999 116.391C248.999 114.159 247.523 112.971 244.787 112.971C241.961 112.971 240.485 114.249 240.485 116.661V117.039H243.023V116.805C243.023 115.779 243.599 115.221 244.733 115.221C245.813 115.221 246.371 115.707 246.371 116.697C246.371 117.723 245.777 118.137 244.517 118.137H243.401V120.369H244.571C246.011 120.369 246.623 120.837 246.623 121.881C246.623 122.943 245.957 123.393 244.787 123.393C243.491 123.393 242.879 122.853 242.879 121.773V121.485H240.305V122.115C240.305 124.455 241.817 125.643 244.787 125.643ZM255.492 125.643C258.39 125.643 259.92 124.221 259.92 121.521V117.093C259.92 114.375 258.39 112.971 255.492 112.971C252.594 112.971 251.064 114.375 251.064 117.093V121.521C251.064 124.221 252.594 125.643 255.492 125.643ZM255.492 123.393C254.25 123.393 253.728 122.799 253.728 121.413V117.201C253.728 115.815 254.25 115.221 255.492 115.221C256.734 115.221 257.256 115.815 257.256 117.201V121.413C257.256 122.799 256.734 123.393 255.492 123.393ZM261.714 125.427H270.588V123.141H264.396C264.558 122.403 265.188 121.935 266.844 121.197C269.526 119.991 270.588 118.695 270.588 116.661C270.588 114.321 269.094 112.971 266.25 112.971C263.442 112.971 261.912 114.303 261.912 116.841V117.417H264.432V117.075C264.432 115.815 265.026 115.221 266.232 115.221C267.402 115.221 267.942 115.797 267.942 116.679C267.942 117.705 267.33 118.317 265.494 119.181C262.758 120.459 261.714 121.845 261.714 124.167V125.427ZM282.143 125.643C284.285 125.643 285.491 124.329 285.491 121.791V119.685C285.491 117.147 284.285 115.815 282.143 115.815C281.135 115.815 280.343 116.121 279.713 116.787V112.287H277.049V125.427H279.317L279.389 124.293C280.091 125.229 280.955 125.643 282.143 125.643ZM281.513 123.483C280.685 123.483 280.091 122.997 279.713 122.061V119.415C280.091 118.461 280.685 117.975 281.531 117.975C282.377 117.975 282.827 118.461 282.827 119.685V121.773C282.827 122.979 282.377 123.483 281.513 123.483ZM287.473 128.703H290.137V124.671C290.767 125.337 291.559 125.643 292.567 125.643C294.709 125.643 295.915 124.311 295.915 121.773V119.667C295.915 117.129 294.709 115.815 292.567 115.815C291.379 115.815 290.515 116.229 289.813 117.165L289.741 116.031H287.473V128.703ZM291.955 123.483C291.109 123.483 290.515 122.997 290.137 122.043V119.397C290.515 118.461 291.109 117.975 291.937 117.975C292.801 117.975 293.251 118.479 293.251 119.685V121.773C293.251 122.997 292.801 123.483 291.955 123.483Z" fill="white"/>
<circle cx="262.524" cy="107.749" r="70" transform="rotate(-36.7409 262.524 107.749)" stroke="#C5C5C5" stroke-width="9.5"/>
<path d="M194.572 125.076C188.992 103.172 194.182 78.8687 210.503 60.7156" stroke="#333332" stroke-width="10" stroke-miterlimit="10"/>
<path d="M277.136 175.933C248.737 182.037 218.704 169.946 202.993 144.517" stroke="#66A1DB" stroke-width="10" stroke-miterlimit="10"/>
<path d="M237.117 42.3982C258.607 34.1279 283.683 36.5387 303.55 51.1112C305.51 52.5491 307.312 54.0454 309.095 55.6453" stroke="#1399F1" stroke-width="10" stroke-miterlimit="10"/>
<path d="M332.407 100.705C334.346 120.225 327.983 140.046 314.548 154.872" stroke="#E52826" stroke-width="10" stroke-miterlimit="10"/>
<path d="M322.569 71.4913C327.44 79.473 330.501 88.0111 331.888 96.6948" stroke="#008D36" stroke-width="10" stroke-miterlimit="10"/>
<path d="M322.844 155.068L314.894 147.902C314.894 147.902 312.086 151.228 310.82 152.456L318.638 159.649C318.638 159.649 320.932 157.382 322.844 155.068Z" fill="white"/>
<path d="M317.53 150.289L313.688 146.851C313.688 146.851 310.848 150.088 309.582 151.315L313.324 154.87C313.324 154.87 315.46 152.842 317.53 150.289Z" fill="white"/>
<path d="M318.214 154.927L333.714 169.213L363.585 169.213" stroke="white" stroke-width="4.1336" stroke-miterlimit="10" stroke-linecap="round" stroke-linejoin="round"/>
<path d="M326.78 66.5083L317.507 72.2719C317.507 72.2719 319.864 75.8298 320.659 77.4899L329.998 71.8898C330.034 71.8415 328.865 69.6721 326.78 66.5083Z" fill="white"/>
<path d="M320.793 70.2072L316.438 72.9413C316.438 72.9413 318.704 76.4687 319.541 78.1228L324.005 75.5464C324.005 75.5464 321.746 71.456 320.793 70.2072Z" fill="white"/>
<path d="M326.214 70.4275L345.085 59.4275L363.585 59.4275" stroke="white" stroke-width="4.1336" stroke-miterlimit="10" stroke-linecap="round" stroke-linejoin="round"/>
<path fill-rule="evenodd" clip-rule="evenodd" d="M439.585 59.4272C440.138 59.4272 440.585 59.875 440.585 60.4272V62.3737H438.585V61.4272H437.657V59.4272H439.585ZM430.907 59.4272H434.764V61.4272H430.907V59.4272ZM426.085 59.4272H428.014V61.4272H426.085V59.4272ZM440.585 65.2933V69.1862H438.585V65.2933H440.585ZM440.585 72.1058V75.9987H438.585V72.1058H440.585ZM440.585 78.9183V82.8112H438.585V78.9183H440.585ZM440.585 85.7308V89.6237H438.585V85.7308H440.585ZM440.585 92.5433V96.4362H438.585V92.5433H440.585ZM440.585 140.231V144.124H438.585V140.231H440.585ZM440.585 147.043V150.936H438.585V147.043H440.585ZM440.585 153.856V157.749H438.585V153.856H440.585ZM440.585 160.668V164.561H438.585V160.668H440.585ZM440.585 167.481V169.427C440.585 169.98 440.138 170.427 439.585 170.427H437.657V168.427H438.585V167.481H440.585ZM434.764 170.427H430.907V168.427H434.764V170.427ZM428.014 170.427H426.085V168.427H428.014V170.427Z" fill="#FAAC48"/>
<defs>
<linearGradient id="paint0_linear" x1="294.5" y1="0.171143" x2="294.5" y2="217.171" gradientUnits="userSpaceOnUse">
<stop stop-color="#014C91"/>
<stop offset="1" stop-color="#003257"/>
</linearGradient>
</defs>
</svg>
