<svg width="100" height="112" viewBox="0 0 100 112" fill="none" xmlns="http://www.w3.org/2000/svg">
  <circle cx="50" cy="50" r="40" stroke="#173461" stroke-width="3" fill="#3A71CE" />

<path fill-rule="evenodd" clip-rule="evenodd" d="M37.4142 41.5858C38.1953 42.3668 38.1953 43.6332 37.4142 44.4142L27.8284 54L37.4142 63.5858C38.1953 64.3668 38.1953 65.6332 37.4142 66.4142C36.6332 67.1953 35.3668 67.1953 34.5858 66.4142L23.5858 55.4142C22.8047 54.6332 22.8047 53.3668 23.5858 52.5858L34.5858 41.5858C35.3668 40.8047 36.6332 40.8047 37.4142 41.5858Z" fill="#003E6B"/>
<mask id="path-4-inside-1" fill="white">
<path fill-rule="evenodd" clip-rule="evenodd" d="M24.9985 51.173C24.999 51.1725 24.9995 51.172 24.9999 51.1716L34.5857 41.5858C35.3668 40.8047 36.6331 40.8047 37.4141 41.5858C38.1952 42.3668 38.1952 43.6332 37.4141 44.4142C37.4143 44.414 37.4139 44.4144 37.4141 44.4142L27.8284 54L37.4125 63.5841"/>
</mask>
<path d="M26.4126 49.7586C25.6315 48.9776 24.3651 48.9778 23.5842 49.7589C22.8032 50.54 22.8033 51.8064 23.5845 52.5873L26.4126 49.7586ZM35.9984 64.9985C36.7796 65.7795 38.0459 65.7793 38.8269 64.9982C39.6078 64.217 39.6077 62.9507 38.8265 62.1698L35.9984 64.9985ZM38.8265 62.1698L26.4126 49.7586L23.5845 52.5873L35.9984 64.9985L38.8265 62.1698ZM24.9999 51.1716L22.1715 48.3431L22.1708 48.3439L24.9999 51.1716ZM22.1687 48.346C20.6074 49.9089 20.6087 52.4416 22.1716 54.0028C23.7345 55.5641 26.2671 55.5628 27.8284 53.9999L22.1687 48.346ZM34.5857 41.5858L31.7573 38.7574L31.7573 38.7574L34.5857 41.5858ZM27.8284 54L24.9999 51.1716C23.4378 52.7337 23.4378 55.2663 24.9999 56.8284L27.8284 54ZM34.5841 66.4126C36.1461 67.9747 38.6788 67.9747 40.2409 66.4126C41.803 64.8505 41.803 62.3178 40.2409 60.7557L34.5841 66.4126ZM22.1708 48.3439C22.1701 48.3446 22.1694 48.3453 22.1687 48.346L27.8284 53.9999C27.8286 53.9997 27.8289 53.9995 27.8291 53.9993L22.1708 48.3439ZM31.7573 38.7574L22.1715 48.3431L27.8284 54L37.4141 44.4142L31.7573 38.7574ZM37.4141 44.4142C36.6331 45.1953 35.3668 45.1953 34.5857 44.4142L40.2426 38.7574C37.8994 36.4142 34.1004 36.4142 31.7573 38.7574L37.4141 44.4142ZM34.5857 44.4142C33.8047 43.6332 33.8047 42.3668 34.5857 41.5858L40.2426 47.2426C42.5857 44.8995 42.5857 41.1005 40.2426 38.7574L34.5857 44.4142ZM34.5857 41.5858C34.5857 41.5858 34.5852 41.5863 34.5846 41.5869C34.5845 41.587 34.5841 41.5874 34.5837 41.5878C34.5836 41.5879 34.5821 41.5894 34.5803 41.5912C34.5797 41.5918 34.5787 41.5929 34.5773 41.5942C34.5767 41.5949 34.5757 41.5959 34.5745 41.5971C34.5734 41.5982 34.5714 41.6002 34.5689 41.6027C34.5677 41.6039 34.565 41.6066 34.5635 41.6081C34.5614 41.6103 34.5564 41.6154 34.5534 41.6185C34.5486 41.6234 34.5353 41.6371 34.5268 41.646C34.5065 41.6673 34.3803 41.8073 34.2791 41.93C34.6158 47.2725 40.0561 47.4176 40.1454 47.3366C40.1646 47.3185 40.1919 47.2924 40.2001 47.2845C40.2048 47.28 40.2123 47.2726 40.2152 47.2697C40.2173 47.2677 40.2208 47.2642 40.2223 47.2627C40.2254 47.2597 40.2279 47.2572 40.2291 47.256C40.2305 47.2546 40.2317 47.2535 40.2324 47.2528C40.2339 47.2513 40.2351 47.2501 40.2356 47.2495C40.2369 47.2483 40.2378 47.2474 40.2382 47.247C40.239 47.2462 40.2397 47.2455 40.2399 47.2453C40.2402 47.245 40.2404 47.2448 40.2405 47.2447C40.2408 47.2444 40.241 47.2442 40.2411 47.2441C40.2414 47.2438 40.2416 47.2436 40.2417 47.2435C40.2418 47.2434 40.242 47.2432 40.2423 47.2429C40.2424 47.2428 40.2426 47.2426 40.2429 47.2423C40.243 47.2422 40.2432 47.242 40.2435 47.2417C40.2437 47.2415 40.2444 47.2408 40.2452 47.24C40.2456 47.2396 40.2465 47.2387 40.2477 47.2375C40.2483 47.2369 40.2495 47.2357 40.2509 47.2343C40.2516 47.2335 40.2528 47.2324 40.2541 47.231C40.2553 47.2298 40.2577 47.2274 40.2607 47.2244C40.2621 47.2229 40.2655 47.2195 40.2674 47.2175C40.2702 47.2147 40.2773 47.2075 40.2815 47.2031C40.289 47.1955 40.3128 47.1706 40.3291 47.1534C40.3935 47.0832 40.3421 41.6889 35.0414 41.194C34.8661 41.3308 34.6744 41.4998 34.6504 41.5225C34.6408 41.5317 34.6261 41.5459 34.621 41.5509C34.6178 41.5541 34.6124 41.5594 34.6102 41.5615C34.6086 41.5631 34.6058 41.5658 34.6046 41.567C34.602 41.5696 34.5999 41.5716 34.5988 41.5727C34.5976 41.5739 34.5966 41.575 34.5959 41.5756C34.5946 41.577 34.5935 41.578 34.5929 41.5786C34.591 41.5805 34.5895 41.582 34.5895 41.582C34.589 41.5825 34.5887 41.5828 34.5885 41.583C34.5879 41.5836 34.5875 41.584 34.5874 41.5841L40.2408 47.2444C40.2408 47.2444 40.2407 47.2445 40.2406 47.2446C40.2405 47.2447 40.2402 47.245 40.2399 47.2453C40.2397 47.2455 40.2394 47.2458 40.2389 47.2463C40.2389 47.2463 40.2373 47.2479 40.2355 47.2497C40.2349 47.2503 40.2338 47.2513 40.2325 47.2527C40.2318 47.2534 40.2308 47.2544 40.2296 47.2556C40.2285 47.2567 40.2264 47.2587 40.2238 47.2613C40.2226 47.2625 40.2198 47.2652 40.2182 47.2668C40.216 47.269 40.2106 47.2742 40.2074 47.2774C40.2023 47.2824 40.1876 47.2966 40.178 47.3058C40.154 47.3285 39.9623 47.4975 39.787 47.6343C34.4863 47.1394 34.4349 41.7451 34.4993 41.6749C34.5156 41.6577 34.5394 41.6329 34.5469 41.6252C34.5511 41.6208 34.5582 41.6136 34.5609 41.6108C34.5629 41.6088 34.5663 41.6054 34.5677 41.6039C34.5707 41.6009 34.5731 41.5985 34.5743 41.5973C34.5756 41.5959 34.5768 41.5948 34.5775 41.594C34.5789 41.5926 34.5801 41.5914 34.5807 41.5908C34.5819 41.5896 34.5828 41.5887 34.5832 41.5883C34.584 41.5875 34.5847 41.5868 34.5849 41.5866C34.5851 41.5864 34.5854 41.5861 34.5855 41.586C34.5858 41.5857 34.586 41.5855 34.5861 41.5854C34.5863 41.5852 34.5865 41.585 34.5866 41.5849C34.5867 41.5848 34.5869 41.5846 34.5871 41.5844C34.5872 41.5843 34.5874 41.5841 34.5876 41.5839C34.5878 41.5837 34.588 41.5835 34.5883 41.5832C34.5885 41.583 34.5891 41.5824 34.59 41.5815C34.5903 41.5812 34.5913 41.5802 34.5925 41.579C34.5931 41.5784 34.5943 41.5772 34.5957 41.5758C34.5965 41.575 34.5976 41.5739 34.599 41.5725C34.6003 41.5713 34.6027 41.5689 34.6058 41.5658C34.6073 41.5643 34.6109 41.5608 34.6129 41.5588C34.6159 41.556 34.6234 41.5486 34.628 41.5441C34.6363 41.5361 34.6636 41.51 34.6827 41.492C34.7721 41.411 40.2124 41.556 40.5491 46.8986C40.4478 47.0213 40.3217 47.1613 40.3014 47.1826C40.2929 47.1914 40.2795 47.2052 40.2748 47.21C40.2718 47.2131 40.2667 47.2183 40.2646 47.2204C40.2631 47.2219 40.2604 47.2247 40.2593 47.2258C40.2568 47.2284 40.2548 47.2304 40.2537 47.2315C40.2525 47.2327 40.2515 47.2337 40.2508 47.2344C40.2495 47.2357 40.2485 47.2367 40.2479 47.2373C40.246 47.2392 40.2445 47.2407 40.2445 47.2407C40.244 47.2412 40.2437 47.2415 40.2435 47.2417C40.2432 47.242 40.2429 47.2423 40.2428 47.2424C40.2427 47.2425 40.2426 47.2426 40.2426 47.2426L34.5857 41.5858ZM30.6568 56.8284L40.2426 47.2426L34.5857 41.5858L24.9999 51.1716L30.6568 56.8284ZM24.9999 56.8284L34.5841 66.4126L40.2409 60.7557L30.6568 51.1716L24.9999 56.8284Z" fill="#003E6B" mask="url(#path-4-inside-1)"/>

<path fill-rule="evenodd" clip-rule="evenodd" d="M24.9985 51.173C24.999 51.1725 24.9995 51.172 24.9999 51.1716L34.5857 41.5858C35.3668 40.8047 36.6331 40.8047 37.4141 41.5858C38.1952 42.3668 38.1952 43.6332 37.4141 44.4142C37.4143 44.414 37.4139 44.4144 37.4141 44.4142L27.8284 54L37.4125 63.5841" fill="#003E6B"/>
<path d="M26.4126 49.7586C25.6315 48.9776 24.3651 48.9778 23.5842 49.7589C22.8032 50.54 22.8033 51.8064 23.5845 52.5873L26.4126 49.7586ZM35.9984 64.9985C36.7796 65.7795 38.0459 65.7793 38.8269 64.9982C39.6078 64.217 39.6077 62.9507 38.8265 62.1698L35.9984 64.9985ZM38.8265 62.1698L26.4126 49.7586L23.5845 52.5873L35.9984 64.9985L38.8265 62.1698ZM24.9999 51.1716L22.1715 48.3431L22.1708 48.3439L24.9999 51.1716ZM22.1687 48.346C20.6074 49.9089 20.6087 52.4416 22.1716 54.0028C23.7345 55.5641 26.2671 55.5628 27.8284 53.9999L22.1687 48.346ZM34.5857 41.5858L31.7573 38.7574L31.7573 38.7574L34.5857 41.5858ZM27.8284 54L24.9999 51.1716C23.4378 52.7337 23.4378 55.2663 24.9999 56.8284L27.8284 54ZM34.5841 66.4126C36.1461 67.9747 38.6788 67.9747 40.2409 66.4126C41.803 64.8505 41.803 62.3178 40.2409 60.7557L34.5841 66.4126ZM22.1708 48.3439C22.1701 48.3446 22.1694 48.3453 22.1687 48.346L27.8284 53.9999C27.8286 53.9997 27.8289 53.9995 27.8291 53.9993L22.1708 48.3439ZM31.7573 38.7574L22.1715 48.3431L27.8284 54L37.4141 44.4142L31.7573 38.7574ZM37.4141 44.4142C36.6331 45.1953 35.3668 45.1953 34.5857 44.4142L40.2426 38.7574C37.8994 36.4142 34.1004 36.4142 31.7573 38.7574L37.4141 44.4142ZM34.5857 44.4142C33.8047 43.6332 33.8047 42.3668 34.5857 41.5858L40.2426 47.2426C42.5857 44.8995 42.5857 41.1005 40.2426 38.7574L34.5857 44.4142ZM34.5857 41.5858C34.5857 41.5858 34.5852 41.5863 34.5846 41.5869C34.5845 41.587 34.5841 41.5874 34.5837 41.5878C34.5836 41.5879 34.5821 41.5894 34.5803 41.5912C34.5797 41.5918 34.5787 41.5929 34.5773 41.5942C34.5767 41.5949 34.5757 41.5959 34.5745 41.5971C34.5734 41.5982 34.5714 41.6002 34.5689 41.6027C34.5677 41.6039 34.565 41.6066 34.5635 41.6081C34.5614 41.6103 34.5564 41.6154 34.5534 41.6185C34.5486 41.6234 34.5353 41.6371 34.5268 41.646C34.5065 41.6673 34.3803 41.8073 34.2791 41.93C34.6158 47.2725 40.0561 47.4176 40.1454 47.3366C40.1646 47.3185 40.1919 47.2924 40.2001 47.2845C40.2048 47.28 40.2123 47.2726 40.2152 47.2697C40.2173 47.2677 40.2208 47.2642 40.2223 47.2627C40.2254 47.2597 40.2279 47.2572 40.2291 47.256C40.2305 47.2546 40.2317 47.2535 40.2324 47.2528C40.2339 47.2513 40.2351 47.2501 40.2356 47.2495C40.2369 47.2483 40.2378 47.2474 40.2382 47.247C40.239 47.2462 40.2397 47.2455 40.2399 47.2453C40.2402 47.245 40.2404 47.2448 40.2405 47.2447C40.2408 47.2444 40.241 47.2442 40.2411 47.2441C40.2414 47.2438 40.2416 47.2436 40.2417 47.2435C40.2418 47.2434 40.242 47.2432 40.2423 47.2429C40.2424 47.2428 40.2426 47.2426 40.2429 47.2423C40.243 47.2422 40.2432 47.242 40.2435 47.2417C40.2437 47.2415 40.2444 47.2408 40.2452 47.24C40.2456 47.2396 40.2465 47.2387 40.2477 47.2375C40.2483 47.2369 40.2495 47.2357 40.2509 47.2343C40.2516 47.2335 40.2528 47.2324 40.2541 47.231C40.2553 47.2298 40.2577 47.2274 40.2607 47.2244C40.2621 47.2229 40.2655 47.2195 40.2674 47.2175C40.2702 47.2147 40.2773 47.2075 40.2815 47.2031C40.289 47.1955 40.3128 47.1706 40.3291 47.1534C40.3935 47.0832 40.3421 41.6889 35.0414 41.194C34.8661 41.3308 34.6744 41.4998 34.6504 41.5225C34.6408 41.5317 34.6261 41.5459 34.621 41.5509C34.6178 41.5541 34.6124 41.5594 34.6102 41.5615C34.6086 41.5631 34.6058 41.5658 34.6046 41.567C34.602 41.5696 34.5999 41.5716 34.5988 41.5727C34.5976 41.5739 34.5966 41.575 34.5959 41.5756C34.5946 41.577 34.5935 41.578 34.5929 41.5786C34.591 41.5805 34.5895 41.582 34.5895 41.582C34.589 41.5825 34.5887 41.5828 34.5885 41.583C34.5879 41.5836 34.5875 41.584 34.5874 41.5841L40.2408 47.2444C40.2408 47.2444 40.2407 47.2445 40.2406 47.2446C40.2405 47.2447 40.2402 47.245 40.2399 47.2453C40.2397 47.2455 40.2394 47.2458 40.2389 47.2463C40.2389 47.2463 40.2373 47.2479 40.2355 47.2497C40.2349 47.2503 40.2338 47.2513 40.2325 47.2527C40.2318 47.2534 40.2308 47.2544 40.2296 47.2556C40.2285 47.2567 40.2264 47.2587 40.2238 47.2613C40.2226 47.2625 40.2198 47.2652 40.2182 47.2668C40.216 47.269 40.2106 47.2742 40.2074 47.2774C40.2023 47.2824 40.1876 47.2966 40.178 47.3058C40.154 47.3285 39.9623 47.4975 39.787 47.6343C34.4863 47.1394 34.4349 41.7451 34.4993 41.6749C34.5156 41.6577 34.5394 41.6329 34.5469 41.6252C34.5511 41.6208 34.5582 41.6136 34.5609 41.6108C34.5629 41.6088 34.5663 41.6054 34.5677 41.6039C34.5707 41.6009 34.5731 41.5985 34.5743 41.5973C34.5756 41.5959 34.5768 41.5948 34.5775 41.594C34.5789 41.5926 34.5801 41.5914 34.5807 41.5908C34.5819 41.5896 34.5828 41.5887 34.5832 41.5883C34.584 41.5875 34.5847 41.5868 34.5849 41.5866C34.5851 41.5864 34.5854 41.5861 34.5855 41.586C34.5858 41.5857 34.586 41.5855 34.5861 41.5854C34.5863 41.5852 34.5865 41.585 34.5866 41.5849C34.5867 41.5848 34.5869 41.5846 34.5871 41.5844C34.5872 41.5843 34.5874 41.5841 34.5876 41.5839C34.5878 41.5837 34.588 41.5835 34.5883 41.5832C34.5885 41.583 34.5891 41.5824 34.59 41.5815C34.5903 41.5812 34.5913 41.5802 34.5925 41.579C34.5931 41.5784 34.5943 41.5772 34.5957 41.5758C34.5965 41.575 34.5976 41.5739 34.599 41.5725C34.6003 41.5713 34.6027 41.5689 34.6058 41.5658C34.6073 41.5643 34.6109 41.5608 34.6129 41.5588C34.6159 41.556 34.6234 41.5486 34.628 41.5441C34.6363 41.5361 34.6636 41.51 34.6827 41.492C34.7721 41.411 40.2124 41.556 40.5491 46.8986C40.4478 47.0213 40.3217 47.1613 40.3014 47.1826C40.2929 47.1914 40.2795 47.2052 40.2748 47.21C40.2718 47.2131 40.2667 47.2183 40.2646 47.2204C40.2631 47.2219 40.2604 47.2247 40.2593 47.2258C40.2568 47.2284 40.2548 47.2304 40.2537 47.2315C40.2525 47.2327 40.2515 47.2337 40.2508 47.2344C40.2495 47.2357 40.2485 47.2367 40.2479 47.2373C40.246 47.2392 40.2445 47.2407 40.2445 47.2407C40.244 47.2412 40.2437 47.2415 40.2435 47.2417C40.2432 47.242 40.2429 47.2423 40.2428 47.2424C40.2427 47.2425 40.2426 47.2426 40.2426 47.2426L34.5857 41.5858ZM30.6568 56.8284L40.2426 47.2426L34.5857 41.5858L24.9999 51.1716L30.6568 56.8284ZM24.9999 56.8284L34.5841 66.4126L40.2409 60.7557L30.6568 51.1716L24.9999 56.8284Z" fill="#003E6B" mask="url(#path-4-inside-1)"/>
<defs>
<filter id="filter0_d" x="0.430664" y="0" width="99.1384" height="112" filterUnits="userSpaceOnUse" color-interpolation-filters="sRGB">
<feFlood flood-opacity="0" result="BackgroundImageFix"/>
<feColorMatrix in="SourceAlpha" type="matrix" values="0 0 0 0 0 0 0 0 0 0 0 0 0 0 0 0 0 0 127 0"/>
<feOffset dy="2"/>
<feGaussianBlur stdDeviation="3"/>
<feColorMatrix type="matrix" values="0 0 0 0 0 0 0 0 0 0 0 0 0 0 0 0 0 0 0.25 0"/>
<feBlend mode="normal" in2="BackgroundImageFix" result="effect1_dropShadow"/>
<feBlend mode="normal" in="SourceGraphic" in2="effect1_dropShadow" result="shape"/>
</filter>
</defs>
</svg>
