<svg version="1.1" id="Layer_1" xmlns="http://www.w3.org/2000/svg" xmlns:xlink="http://www.w3.org/1999/xlink" x="0px" y="0px"
	 width="100%" viewBox="0 0 685 523" enable-background="new 0 0 685 523" xml:space="preserve">


<path fill="#F92B7C" opacity="1.000000" stroke="none" 
	d="
M364.000000,50.813538 
	C394.328186,50.813622 424.157104,50.917912 453.983704,50.702274 
	C458.470428,50.669834 460.846802,52.230412 463.003540,55.984589 
	C489.342560,101.831436 515.818359,147.599731 542.273376,193.379883 
	C551.833130,209.922943 561.349121,226.492447 571.074890,242.937622 
	C573.357422,246.797180 573.580139,249.897995 571.224426,253.956161 
	C539.425049,308.737366 507.794281,363.616455 476.125122,418.473206 
	C471.472229,426.532898 466.697449,434.527069 462.262787,442.705383 
	C460.526276,445.907806 458.434082,446.982605 454.793365,446.967743 
	C419.799988,446.824921 384.805817,446.882599 349.811859,446.882660 
	C311.818420,446.882721 273.824951,446.854767 235.831696,446.931641 
	C232.545731,446.938293 230.414581,446.217163 228.601227,443.060425 
	C199.616058,392.602631 170.478363,342.232483 141.373856,291.843292 
	C133.807602,278.743622 126.320755,265.596771 118.599930,252.588821 
	C116.933456,249.781189 116.894760,247.659073 118.529037,244.843552 
	C141.395981,205.448563 164.161438,165.994659 186.948273,126.553192 
	C200.086716,103.812012 213.366180,81.150124 226.245529,58.263107 
	C229.263397,52.900261 232.504684,50.576576 239.023865,50.632561 
	C280.513367,50.988838 322.007446,50.813759 364.000000,50.813538 
M212.826035,198.293610 
	C210.584015,206.457474 207.624527,214.501892 206.241745,222.808792 
	C202.828064,243.316086 203.068710,263.828735 207.690735,284.251617 
	C214.380661,313.811554 228.797607,338.744781 252.199142,358.024536 
	C289.028870,388.367340 331.891327,396.855835 377.913483,389.414551 
	C418.372986,382.872650 448.241272,360.134857 468.134369,324.334961 
	C471.259644,318.710632 471.048248,318.163666 465.282867,315.422821 
	C448.322845,307.360260 431.330017,299.365997 414.413666,291.212921 
	C411.435120,289.777374 410.063049,289.957397 408.313629,293.213043 
	C383.600067,339.204926 325.236908,339.736542 295.331787,304.405304 
	C279.940918,286.221802 274.366852,264.803162 276.684143,241.167847 
	C278.845001,219.128098 287.623688,200.503265 304.996460,186.486511 
	C321.261078,173.363861 339.959351,168.347336 360.604828,171.834259 
	C382.486877,175.530029 398.118683,188.083954 408.532867,207.335648 
	C410.055847,210.151062 411.415131,210.463730 413.970825,209.233948 
	C431.495331,200.801361 448.999115,192.323181 466.615265,184.085724 
	C470.339386,182.344284 470.679688,180.370926 468.904114,177.095016 
	C454.732910,150.949356 434.873230,130.667389 407.158325,119.216560 
	C374.976868,105.920273 341.764465,104.987518 308.309845,113.714348 
	C262.583038,125.642448 230.383331,153.230148 212.826035,198.293610 
z"/>
<path fill="#312F30" opacity="1.000000" stroke="none" 
	d="
M212.919815,197.915222 
	C230.383331,153.230148 262.583038,125.642448 308.309845,113.714348 
	C341.764465,104.987518 374.976868,105.920273 407.158325,119.216560 
	C434.873230,130.667389 454.732910,150.949356 468.904114,177.095016 
	C470.679688,180.370926 470.339386,182.344284 466.615265,184.085724 
	C448.999115,192.323181 431.495331,200.801361 413.970825,209.233948 
	C411.415131,210.463730 410.055847,210.151062 408.532867,207.335648 
	C398.118683,188.083954 382.486877,175.530029 360.604828,171.834259 
	C339.959351,168.347336 321.261078,173.363861 304.996460,186.486511 
	C287.623688,200.503265 278.845001,219.128098 276.684143,241.167847 
	C274.366852,264.803162 279.940918,286.221802 295.331787,304.405304 
	C325.236908,339.736542 383.600067,339.204926 408.313629,293.213043 
	C410.063049,289.957397 411.435120,289.777374 414.413666,291.212921 
	C431.330017,299.365997 448.322845,307.360260 465.282867,315.422821 
	C471.048248,318.163666 471.259644,318.710632 468.134369,324.334961 
	C448.241272,360.134857 418.372986,382.872650 377.913483,389.414551 
	C331.891327,396.855835 289.028870,388.367340 252.199142,358.024536 
	C228.797607,338.744781 214.380661,313.811554 207.690735,284.251617 
	C203.068710,263.828735 202.828064,243.316086 206.241745,222.808792 
	C207.624527,214.501892 210.584015,206.457474 212.919815,197.915222 
z"/>
</svg>