<svg width="553" height="416" viewBox="0 0 553 416" fill="none" xmlns="http://www.w3.org/2000/svg">
<rect y="0.890625" width="552.792" height="414.57" rx="5" fill="url(#paint0_linear)"/>
<path d="M465.947 15.1758H92.9473V401.176H465.947V15.1758Z" fill="white"/>
<path opacity="0.4" d="M451.58 27.5469H108.738V385.324H451.58V27.5469Z" fill="#7CB4D0"/>
<path opacity="0.1" d="M451.58 27.5469H108.738V385.324H451.58V27.5469Z" fill="#BCDEEA"/>
<path opacity="0.5" d="M108.738 27.546L92.9473 15.1758V401.176L108.738 385.323V27.546Z" fill="#7CB4D0"/>
<path opacity="0.5" d="M451.58 385.323L465.948 401.176V15.1758L451.58 27.546V385.323Z" fill="#7CB4D0"/>
<path opacity="0.4" d="M465.947 15.1758H92.9473V401.176H465.947V15.1758Z" fill="#7CB4D0"/>
<path opacity="0.8" d="M451.579 385.203H108.738L92.9473 401.176H465.947L451.579 385.203Z" fill="#7CB4D0"/>
<path opacity="0.2" d="M181.303 62.6895L220.609 62.6895V44.074H181.303V62.6895Z" fill="#3E6E7A"/>
<path opacity="0.2" d="M181.303 62.6895L220.609 62.6895V44.074H181.303V62.6895Z" fill="#3E6E7A"/>
<path opacity="0.2" d="M174.652 60.6152L223.629 60.6152V41.8797H174.652V60.6152Z" fill="#3E6E7A"/>
<path opacity="0.2" d="M220.555 62.6561L223.674 60.6144V41.8789L220.555 43.9206V62.6561Z" fill="#3E6E7A"/>
<path opacity="0.2" d="M181.25 43.9206L174.699 41.8789V60.6144L181.25 62.6561V43.9206Z" fill="#3E6E7A"/>
<path opacity="0.5" d="M174.697 58.5723V60.4939L181.248 62.6556H220.555L223.674 60.4939V58.5723H174.697Z" fill="white"/>
<path opacity="0.2" d="M126.596 62.6895L165.902 62.6895V44.074H126.596V62.6895Z" fill="#3E6E7A"/>
<path opacity="0.2" d="M126.596 62.6895L165.902 62.6895V44.074H126.596V62.6895Z" fill="#3E6E7A"/>
<path opacity="0.2" d="M119.945 60.6152L168.922 60.6152V41.8797H119.945V60.6152Z" fill="#3E6E7A"/>
<path opacity="0.2" d="M165.848 62.6561L168.967 60.6144V41.8789L165.848 43.9206V62.6561Z" fill="#3E6E7A"/>
<path opacity="0.2" d="M126.543 43.9206L119.992 41.8789V60.6144L126.543 62.6561V43.9206Z" fill="#3E6E7A"/>
<path opacity="0.5" d="M119.99 58.5723V60.4939L126.541 62.6556H165.848L168.967 60.4939V58.5723H119.99Z" fill="white"/>
<path opacity="0.2" d="M236.016 62.6895L275.359 62.6895V44.074H236.016V62.6895Z" fill="#3E6E7A"/>
<path opacity="0.2" d="M236.016 62.6895L275.359 62.6895V44.074H236.016V62.6895Z" fill="#3E6E7A"/>
<path opacity="0.2" d="M229.36 60.6152L278.383 60.6152V41.8797H229.36V60.6152Z" fill="#3E6E7A"/>
<path opacity="0.2" d="M275.379 62.6561L278.345 60.6144V41.8789L275.379 43.9206V62.6561Z" fill="#3E6E7A"/>
<path opacity="0.2" d="M236.04 43.9206L229.482 41.8789V60.6144L236.04 62.6561V43.9206Z" fill="#3E6E7A"/>
<path opacity="0.5" d="M229.479 58.5723V60.4939L236.036 62.6556H275.379L278.345 60.4939V58.5723H229.479Z" fill="white"/>
<path opacity="0.2" d="M435.945 43.9199H396.602V62.5354H435.945V43.9199Z" fill="#3E6E7A"/>
<path opacity="0.2" d="M435.945 43.9199H396.602V62.5354H435.945V43.9199Z" fill="#3E6E7A"/>
<path opacity="0.2" d="M442.501 41.8789H393.479V60.6144H442.501V41.8789Z" fill="#3E6E7A"/>
<path opacity="0.2" d="M396.601 62.536L393.479 60.4943V41.8789L396.601 43.9206V62.536Z" fill="#3E6E7A"/>
<path opacity="0.2" d="M435.787 43.9206L442.5 41.8789V60.4943L435.787 62.536V43.9206Z" fill="#3E6E7A"/>
<path opacity="0.5" d="M442.501 58.4531V60.4948L435.788 62.5365H396.601L393.479 60.4948V58.4531H442.501Z" fill="white"/>
<path opacity="0.2" d="M381.237 43.9199H341.895V62.5354H381.237V43.9199Z" fill="#3E6E7A"/>
<path opacity="0.2" d="M381.237 43.9199H341.895V62.5354H381.237V43.9199Z" fill="#3E6E7A"/>
<path opacity="0.2" d="M387.794 41.8789H338.771V60.6144H387.794V41.8789Z" fill="#3E6E7A"/>
<path opacity="0.2" d="M341.894 62.536L338.771 60.4943V41.8789L341.894 43.9206V62.536Z" fill="#3E6E7A"/>
<path opacity="0.2" d="M381.236 43.9206L387.793 41.8789V60.4943L381.236 62.536V43.9206Z" fill="#3E6E7A"/>
<path opacity="0.5" d="M387.794 58.4531V60.4948L381.237 62.5365H341.894L338.771 60.4948V58.4531H387.794Z" fill="white"/>
<path opacity="0.2" d="M326.374 43.9199H287.031V62.5354H326.374V43.9199Z" fill="#3E6E7A"/>
<path opacity="0.2" d="M326.374 43.9199H287.031V62.5354H326.374V43.9199Z" fill="#3E6E7A"/>
<path opacity="0.2" d="M333.087 41.8789H284.064V60.6144H333.087V41.8789Z" fill="#3E6E7A"/>
<path opacity="0.2" d="M287.031 62.536L284.064 60.4943V41.8789L287.031 43.9206V62.536Z" fill="#3E6E7A"/>
<path opacity="0.2" d="M326.373 43.9206L332.93 41.8789V60.4943L326.373 62.536V43.9206Z" fill="#3E6E7A"/>
<path opacity="0.5" d="M332.931 58.4531V60.4948L326.374 62.5365H287.031L284.064 60.4948V58.4531H332.931Z" fill="white"/>
<rect width="49.0229" height="9.71069" transform="translate(119.992 70.3613)" fill="#003E6B"/>
<rect width="49.0229" height="9.71069" transform="translate(119.992 95.8516)" fill="#003E6B"/>
<rect width="49.0229" height="9.71069" transform="translate(119.992 117.967)" fill="#003E6B"/>
<rect width="49.0229" height="9.7107" transform="translate(119.992 137.389)" fill="#003E6B"/>
<rect width="49.0229" height="9.71068" transform="translate(119.992 156.809)" fill="#003E6B"/>
<rect width="49.0229" height="9.71072" transform="translate(119.992 185.941)" fill="#003E6B"/>
<rect width="49.0229" height="9.71071" transform="translate(119.992 227.818)" fill="#003E6B"/>
<rect width="49.0229" height="9.71068" transform="translate(119.992 249.061)" fill="#003E6B"/>
<rect width="49.0229" height="9.71069" transform="translate(119.992 296.4)" fill="#003E6B"/>
<rect width="49.0229" height="9.71075" transform="translate(119.992 350.416)" fill="#003E6B"/>
<rect width="49.0229" height="9.71069" transform="translate(174.605 70.3613)" fill="#003E6B"/>
<rect width="49.0229" height="9.71069" transform="translate(174.605 95.8516)" fill="#003E6B"/>
<rect width="49.0229" height="9.71069" transform="translate(174.605 117.967)" fill="#003E6B"/>
<rect width="49.0229" height="9.7107" transform="translate(174.605 137.389)" fill="#003E6B"/>
<rect width="49.0229" height="9.71068" transform="translate(174.605 156.809)" fill="#003E6B"/>
<rect width="49.0229" height="9.71072" transform="translate(174.605 185.941)" fill="#003E6B"/>
<rect width="49.0229" height="9.71071" transform="translate(174.605 227.818)" fill="#003E6B"/>
<rect width="49.0229" height="9.71068" transform="translate(174.605 249.061)" fill="#003E6B"/>
<rect width="49.0229" height="9.71069" transform="translate(174.605 296.4)" fill="#003E6B"/>
<rect width="49.0229" height="9.71075" transform="translate(174.605 350.416)" fill="#003E6B"/>
<rect width="49.0229" height="9.71069" transform="translate(230.424 70.3613)" fill="#003E6B"/>
<rect width="49.0229" height="9.71069" transform="translate(230.424 95.8516)" fill="#003E6B"/>
<rect width="49.0229" height="9.71069" transform="translate(230.424 117.967)" fill="#003E6B"/>
<rect width="49.0229" height="9.7107" transform="translate(230.424 137.389)" fill="#003E6B"/>
<rect width="49.0229" height="9.71068" transform="translate(230.424 156.809)" fill="#003E6B"/>
<rect width="49.0229" height="9.71072" transform="translate(230.424 185.941)" fill="#003E6B"/>
<rect width="49.0229" height="9.71071" transform="translate(230.424 227.818)" fill="#003E6B"/>
<rect width="49.0229" height="9.71068" transform="translate(230.424 249.061)" fill="#003E6B"/>
<rect width="49.0229" height="9.71069" transform="translate(230.424 296.4)" fill="#003E6B"/>
<rect width="49.0229" height="9.71075" transform="translate(230.424 350.416)" fill="#003E6B"/>
<rect width="49.0229" height="9.71069" transform="translate(284.908 70.3613)" fill="#003E6B"/>
<rect width="49.0229" height="9.71069" transform="translate(284.908 95.8516)" fill="#003E6B"/>
<rect width="49.0229" height="9.71069" transform="translate(284.908 117.967)" fill="#003E6B"/>
<rect width="49.0229" height="9.7107" transform="translate(284.908 137.389)" fill="#003E6B"/>
<rect width="49.0229" height="9.71068" transform="translate(284.908 156.809)" fill="#003E6B"/>
<rect width="49.0229" height="9.71072" transform="translate(284.908 185.941)" fill="#003E6B"/>
<rect width="49.0229" height="9.71071" transform="translate(284.908 227.818)" fill="#003E6B"/>
<rect width="49.0229" height="9.71068" transform="translate(284.908 249.061)" fill="#003E6B"/>
<rect width="49.0229" height="9.71069" transform="translate(284.908 296.4)" fill="#003E6B"/>
<rect width="49.0229" height="9.71075" transform="translate(284.908 350.416)" fill="#003E6B"/>
<rect width="49.0229" height="9.71069" transform="translate(339.727 70.3613)" fill="#003E6B"/>
<rect width="49.0229" height="9.71069" transform="translate(339.727 95.8516)" fill="#003E6B"/>
<rect width="49.0229" height="9.71069" transform="translate(339.727 117.967)" fill="#003E6B"/>
<rect width="49.0229" height="9.7107" transform="translate(339.727 137.389)" fill="#003E6B"/>
<rect width="49.0229" height="9.71068" transform="translate(339.727 156.809)" fill="#003E6B"/>
<rect width="49.0229" height="9.71072" transform="translate(339.727 185.941)" fill="#003E6B"/>
<rect width="49.0229" height="9.71071" transform="translate(339.727 227.818)" fill="#003E6B"/>
<rect width="49.0229" height="9.71068" transform="translate(339.727 249.061)" fill="#003E6B"/>
<rect width="49.0229" height="9.71069" transform="translate(339.727 296.4)" fill="#003E6B"/>
<rect width="49.0229" height="9.71075" transform="translate(339.727 350.416)" fill="#003E6B"/>
<rect width="49.0229" height="9.71069" transform="translate(394.34 70.3613)" fill="#003E6B"/>
<rect width="49.0229" height="9.71069" transform="translate(394.34 95.8516)" fill="#003E6B"/>
<rect width="49.0229" height="9.71069" transform="translate(394.34 117.967)" fill="#003E6B"/>
<rect width="49.0229" height="9.7107" transform="translate(394.34 137.389)" fill="#003E6B"/>
<rect width="49.0229" height="9.71068" transform="translate(394.34 156.809)" fill="#003E6B"/>
<rect width="49.0229" height="9.71072" transform="translate(394.34 185.941)" fill="#003E6B"/>
<rect width="49.0229" height="9.71071" transform="translate(394.34 227.818)" fill="#003E6B"/>
<rect width="49.0229" height="9.71068" transform="translate(394.34 249.061)" fill="#003E6B"/>
<rect width="49.0229" height="9.71069" transform="translate(394.34 296.4)" fill="#003E6B"/>
<rect width="49.0229" height="9.71075" transform="translate(394.34 350.416)" fill="#003E6B"/>
<defs>
<linearGradient id="paint0_linear" x1="276.396" y1="0.890625" x2="276.396" y2="415.461" gradientUnits="userSpaceOnUse">
<stop stop-color="#014C91"/>
<stop offset="1" stop-color="#003257"/>
</linearGradient>
</defs>
</svg>
