<svg width="551" height="396" viewBox="0 0 551 396" fill="none" xmlns="http://www.w3.org/2000/svg">
<rect width="551" height="396" rx="5" fill="url(#paint0_linear)"/>
<path d="M428 19H125V376H428V19Z" fill="white"/>
<path opacity="0.4" d="M416.329 30.4414H137.828V361.338H416.329V30.4414Z" fill="#7CB4D0"/>
<path opacity="0.1" d="M416.329 30.4414H137.828V361.338H416.329V30.4414Z" fill="#BCDEEA"/>
<path opacity="0.5" d="M137.827 30.4409L125 19V376L137.827 361.338V30.4409Z" fill="#7CB4D0"/>
<path opacity="0.5" d="M416.328 361.338L428 376V19L416.328 30.4409V361.338Z" fill="#7CB4D0"/>
<path opacity="0.4" d="M428 19H125V376H428V19Z" fill="#7CB4D0"/>
<path opacity="0.8" d="M416.328 361.227H137.827L125 376H428L416.328 361.227Z" fill="#7CB4D0"/>
<path opacity="0.2" d="M157.191 64.3516H200.764V47.1347H157.191V64.3516Z" fill="#3E6E7A"/>
<path opacity="0.2" d="M157.191 64.3516H200.764V47.1347H157.191V64.3516Z" fill="#3E6E7A"/>
<path opacity="0.2" d="M149.992 62.4336L204.285 62.4336V45.1057H149.992V62.4336Z" fill="#3E6E7A"/>
<path opacity="0.2" d="M200.795 64.3198L204.253 62.4314V45.1035L200.795 46.9918V64.3198Z" fill="#3E6E7A"/>
<path opacity="0.2" d="M157.396 46.9918L149.961 45.1035V62.4314L157.396 64.3198V46.9918Z" fill="#3E6E7A"/>
<path opacity="0.5" d="M149.961 60.543V62.3202L157.396 64.3196H200.796L204.254 62.3202V60.543H149.961Z" fill="white"/>
<path opacity="0.2" d="M224.199 64.3496H267.771V47.1327H224.199V64.3496Z" fill="#3E6E7A"/>
<path opacity="0.2" d="M224.199 64.3496H267.771V47.1327H224.199V64.3496Z" fill="#3E6E7A"/>
<path opacity="0.2" d="M216.826 62.4336L271.119 62.4336V45.1057H216.826V62.4336Z" fill="#3E6E7A"/>
<path opacity="0.2" d="M267.711 64.3198L271.169 62.4314V45.1035L267.711 46.9918V64.3198Z" fill="#3E6E7A"/>
<path opacity="0.2" d="M224.141 46.9918L216.879 45.1035V62.4314L224.141 64.3198V46.9918Z" fill="#3E6E7A"/>
<path opacity="0.5" d="M216.877 60.543V62.3202L224.139 64.3196H267.712L271.17 62.3202V60.543H216.877Z" fill="white"/>
<path opacity="0.2" d="M291.033 64.3496H334.605V47.1327H291.033V64.3496Z" fill="#3E6E7A"/>
<path opacity="0.2" d="M291.033 64.3496H334.605V47.1327H291.033V64.3496Z" fill="#3E6E7A"/>
<path opacity="0.2" d="M283.66 62.4336L337.953 62.4336V45.1057H283.66V62.4336Z" fill="#3E6E7A"/>
<path opacity="0.2" d="M334.627 64.3198L337.912 62.4314V45.1035L334.627 46.9918V64.3198Z" fill="#3E6E7A"/>
<path opacity="0.2" d="M291.057 46.9918L283.795 45.1035V62.4314L291.057 64.3198V46.9918Z" fill="#3E6E7A"/>
<path opacity="0.5" d="M283.793 60.543V62.3202L291.055 64.3196H334.628L337.913 62.3202V60.543H283.793Z" fill="white"/>
<path opacity="0.2" d="M397.565 46.1035H353.992V63.3204H397.565V46.1035Z" fill="#3E6E7A"/>
<path opacity="0.2" d="M397.565 46.1035H353.992V63.3204H397.565V46.1035Z" fill="#3E6E7A"/>
<path opacity="0.2" d="M405 44.2148H350.707V61.5428H405V44.2148Z" fill="#3E6E7A"/>
<path opacity="0.2" d="M353.992 63.32L350.707 61.4317V44.2148L353.992 46.1031V63.32Z" fill="#3E6E7A"/>
<path opacity="0.2" d="M397.566 46.1031L404.829 44.2148V61.4317L397.566 63.32V46.1031Z" fill="#3E6E7A"/>
<path opacity="0.5" d="M404.827 59.543V61.4313L397.565 63.3196H353.992L350.707 61.4313V59.543H404.827Z" fill="white"/>
<rect x="150" y="180" width="54" height="16" fill="#003E6B"/>
<path d="M173.475 192H174.591L175.335 189.912H178.623L179.367 192H180.519L177.543 183.84H176.451L173.475 192ZM175.683 188.928L176.979 185.22L178.275 188.928H175.683Z" fill="white"/>
<rect x="217" y="157" width="54" height="16" fill="#003E6B"/>
<path d="M244.118 169.144C246.038 169.144 247.022 168.208 247.094 166.324H246.038C245.978 167.572 245.366 168.16 244.118 168.16C242.75 168.16 242.15 167.464 242.15 165.892V163.948C242.15 162.376 242.75 161.68 244.118 161.68C245.366 161.68 245.978 162.268 246.038 163.528H247.094C247.022 161.632 246.038 160.696 244.118 160.696C242.066 160.696 241.07 161.776 241.07 163.924V165.916C241.07 168.064 242.066 169.144 244.118 169.144Z" fill="white"/>
<rect x="217" y="271" width="54" height="16" fill="#003E6B"/>
<path d="M241.225 283H244.033C246.169 283 247.129 282.004 247.129 279.832V278.008C247.129 275.836 246.169 274.84 244.033 274.84H241.225V283ZM242.305 282.016V275.824H243.901C245.437 275.824 246.049 276.448 246.049 278.02V279.82C246.049 281.392 245.437 282.016 243.901 282.016H242.305Z" fill="white"/>
<rect x="284" y="133" width="54" height="16" fill="#003E6B"/>
<path d="M308.606 145H314.066V144.016H309.686V141.316H313.346V140.332H309.686V137.824H313.946V136.84H308.606V145Z" fill="white"/>
<rect x="284" y="241" width="54" height="16" fill="#003E6B"/>
<path d="M308.823 253H309.903V249.316H313.455V248.332H309.903V245.824H314.055V244.84H308.823V253Z" fill="white"/>
<rect x="351" y="301" width="54" height="16" fill="#003E6B"/>
<path d="M378.074 313.144C380.09 313.144 381.098 312.1 381.098 310.024V308.584H378.302V309.58H380.042V310.024C380.042 311.512 379.442 312.16 378.086 312.16C376.67 312.16 376.022 311.452 376.022 309.928V307.912C376.022 306.412 376.67 305.68 378.014 305.68C379.262 305.68 379.898 306.304 379.958 307.36H381.014C380.942 305.62 379.85 304.696 378.026 304.696C376.022 304.696 374.942 305.812 374.942 307.852V309.988C374.942 312.052 376.022 313.144 378.074 313.144Z" fill="white"/>
<rect x="150" y="332" width="54" height="16" fill="#003E6B"/>
<path d="M174.266 344H177.662C179.462 344 180.29 343.28 180.29 341.744C180.29 340.664 179.882 340.028 178.946 339.74V339.716C179.69 339.44 180.014 338.864 180.014 337.952C180.014 336.5 179.174 335.84 177.422 335.84H174.266V344ZM175.346 339.344V336.824H177.338C178.478 336.824 178.946 337.184 178.946 338.096C178.946 338.996 178.49 339.344 177.35 339.344H175.346ZM175.346 343.016V340.328H177.374C178.706 340.328 179.21 340.7 179.21 341.672C179.21 342.62 178.73 343.016 177.506 343.016H175.346Z" fill="white"/>
<defs>
<linearGradient id="paint0_linear" x1="275.5" y1="0" x2="275.5" y2="396" gradientUnits="userSpaceOnUse">
<stop stop-color="#014C91"/>
<stop offset="1" stop-color="#003257"/>
</linearGradient>
</defs>
</svg>
