<svg width="18" height="16" viewBox="0 0 18 16" fill="none" xmlns="http://www.w3.org/2000/svg">
<path d="M0.190721 5.31001L5.33364 0.190048C5.4609 0.0633611 5.61151 0 5.78562 0C5.95974 0 6.11046 0.0633611 6.23761 0.190048C6.36486 0.316806 6.42857 0.46682 6.42857 0.640126V3.20011H8.67856C13.4533 3.20011 16.3828 4.54347 17.4678 7.23014C17.8226 8.12336 18 9.23349 18 10.5602C18 11.6668 17.5748 13.17 16.7243 15.0701C16.7043 15.1169 16.6692 15.1967 16.6189 15.31C16.5687 15.4232 16.5235 15.5232 16.4833 15.61C16.443 15.6965 16.3995 15.7699 16.3526 15.8298C16.2724 15.9432 16.1786 16 16.0714 16C15.971 16 15.8923 15.9667 15.8353 15.9C15.7785 15.8334 15.75 15.75 15.75 15.6502C15.75 15.5901 15.7584 15.5019 15.7752 15.3851C15.7919 15.2684 15.8003 15.1902 15.8003 15.1502C15.8339 14.697 15.8506 14.2867 15.8506 13.9203C15.8506 13.247 15.7919 12.6436 15.6748 12.1103C15.5576 11.5769 15.3952 11.1154 15.1876 10.7253C14.98 10.3352 14.7122 9.99873 14.384 9.71537C14.0559 9.43202 13.7027 9.20043 13.3244 9.0204C12.9459 8.84033 12.5006 8.69865 11.9884 8.59536C11.4761 8.49204 10.9605 8.42034 10.4415 8.38031C9.92245 8.34027 9.33484 8.32038 8.67856 8.32038H6.42857V10.8804C6.42857 11.0537 6.365 11.2038 6.23785 11.3304C6.11049 11.4569 5.95988 11.5204 5.78587 11.5204C5.61179 11.5204 5.46107 11.4569 5.33364 11.3304L0.190827 6.21027C0.0635738 6.08358 -2.15536e-07 5.93364 -2.15536e-07 5.76029C3.49663e-05 5.58699 0.0635742 5.43694 0.190721 5.31001Z" fill="white"/>
</svg>
