<svg xmlns="http://www.w3.org/2000/svg" width="36" height="36" fill="none" viewBox="0 0 36 36">
    <circle cx="18" cy="18" r="18" fill="#99B2C4"/>
    <mask id="a" width="36" height="36" x="0" y="0" maskUnits="userSpaceOnUse">
        <circle cx="18" cy="18" r="18" fill="#99B2C4"/>
    </mask>
    <g mask="url(#a)">
        <path fill="#003E6B" d="M16.709 17.201H8.492A.492.492 0 0 1 8 16.71V8.492C8 8.22 8.22 8 8.492 8h1.969c.272 0 .492.22.492.492v3.204a10.145 10.145 0 0 1 7.636-3.368 10.148 10.148 0 0 1 10.097 10.194c-.012 5.608-4.562 10.15-10.172 10.15-2.629 0-5.025-.997-6.83-2.634a.493.493 0 0 1-.019-.714l1.393-1.394a.491.491 0 0 1 .673-.021 7.191 7.191 0 0 0 4.783 1.81 7.215 7.215 0 0 0 7.218-7.219 7.215 7.215 0 0 0-7.218-7.219 7.206 7.206 0 0 0-5.836 2.967h4.031c.272 0 .492.22.492.492v1.969c0 .272-.22.492-.492.492z"/>
    </g>
</svg>
